<?xml version="1.0" encoding="UTF-8"?>
<!DOCTYPE svg PUBLIC "-//W3C//DTD SVG 1.1//EN" "http://www.w3.org/Graphics/SVG/1.1/DTD/svg11.dtd">
<svg xmlns="http://www.w3.org/2000/svg" version="1.1" width="420px" height="420px" style="shape-rendering:geometricPrecision; text-rendering:geometricPrecision; image-rendering:optimizeQuality; fill-rule:evenodd; clip-rule:evenodd" xmlns:xlink="http://www.w3.org/1999/xlink">
<g><path style="opacity:1" fill="#454240" d="M 239.5,44.5 C 247.572,46.362 255.572,49.1954 263.5,53C 261.081,54.5088 260.081,56.6755 260.5,59.5C 265.257,59.7567 267.924,62.2567 268.5,67C 267.923,71.2177 267.09,75.3844 266,79.5C 264.818,81.2351 263.151,82.2351 261,82.5C 252.212,80.4283 243.379,78.2616 234.5,76C 222.833,75.3333 211.167,75.3333 199.5,76C 194.907,77.6477 190.24,78.6477 185.5,79C 182.996,72.8289 179.496,67.3289 175,62.5C 174.53,61.4232 174.697,60.4232 175.5,59.5C 182.09,55.0385 189.09,51.3719 196.5,48.5C 199.428,48.4349 202.095,47.7682 204.5,46.5C 216.094,44.8508 227.761,44.1841 239.5,44.5 Z"/></g>
<g><path style="opacity:1" fill="#3a3735" d="M 199.5,42.5 C 205.842,42.3338 212.175,42.5005 218.5,43C 213.598,43.7409 208.932,44.9076 204.5,46.5C 202.095,47.7682 199.428,48.4349 196.5,48.5C 184.032,50.5668 173.366,56.0668 164.5,65C 163.552,65.4828 162.552,65.6495 161.5,65.5C 161.5,63.5 161.5,61.5 161.5,59.5C 160.167,59.5 158.833,59.5 157.5,59.5C 158.716,57.5491 160.382,56.0491 162.5,55C 168.47,51.8455 174.47,49.0122 180.5,46.5C 186.452,43.9083 192.786,42.575 199.5,42.5 Z"/></g>
<g><path style="opacity:1" fill="#2f2c29" d="M 196.5,48.5 C 189.09,51.3719 182.09,55.0385 175.5,59.5C 171.725,61.0562 168.725,63.5562 166.5,67C 169.662,72.9905 173.329,78.6572 177.5,84C 179.833,84.6667 182.167,84.6667 184.5,84C 207.609,73.9551 230.609,74.1218 253.5,84.5C 244.291,83.8226 235.291,82.3226 226.5,80C 208.024,77.8955 190.524,81.0622 174,89.5C 168.921,85.415 164.921,80.415 162,74.5C 160.622,72.7866 158.955,71.4533 157,70.5C 156.989,67.3408 156.155,64.5074 154.5,62C 155.373,60.955 156.373,60.1217 157.5,59.5C 158.833,59.5 160.167,59.5 161.5,59.5C 161.5,61.5 161.5,63.5 161.5,65.5C 162.552,65.6495 163.552,65.4828 164.5,65C 173.366,56.0668 184.032,50.5668 196.5,48.5 Z"/></g>
<g><path style="opacity:1" fill="#211e1a" d="M 180.5,46.5 C 174.47,49.0122 168.47,51.8455 162.5,55C 160.382,56.0491 158.716,57.5491 157.5,59.5C 156.373,60.1217 155.373,60.955 154.5,62C 156.155,64.5074 156.989,67.3408 157,70.5C 158.955,71.4533 160.622,72.7866 162,74.5C 164.921,80.415 168.921,85.415 174,89.5C 190.524,81.0622 208.024,77.8955 226.5,80C 235.291,82.3226 244.291,83.8226 253.5,84.5C 255.117,85.038 256.784,85.3713 258.5,85.5C 261.833,87.8333 265.167,90.1667 268.5,92.5C 275.398,97.6349 282.398,102.802 289.5,108C 298.352,112.258 307.352,116.258 316.5,120C 324.721,121.392 331.721,119.059 337.5,113C 338.793,112.51 340.127,112.343 341.5,112.5C 339.417,116.918 336.084,119.918 331.5,121.5C 322.087,124.296 312.754,124.13 303.5,121C 300.01,118.089 296.344,115.422 292.5,113C 278.748,105.457 264.748,98.4572 250.5,92C 242.899,89.7147 235.232,87.8814 227.5,86.5C 211.351,84.728 195.351,86.228 179.5,91C 176.339,92.4131 173.339,94.0797 170.5,96C 166.975,96.6579 164.141,95.4912 162,92.5C 158.915,87.328 155.581,82.328 152,77.5C 151.011,74.5443 150.178,71.5443 149.5,68.5C 150.529,66.1974 150.529,63.864 149.5,61.5C 157.798,52.5188 168.132,47.5188 180.5,46.5 Z"/></g>
<g><path style="opacity:1" fill="#2d2a26" d="M 281.5,58.5 C 288.752,63.5778 295.585,69.2445 302,75.5C 302.866,80.7091 302.199,85.7091 300,90.5C 296.573,94.6005 292.573,97.9339 288,100.5C 285.865,99.8729 283.698,99.3729 281.5,99C 277.691,95.7623 273.358,93.5956 268.5,92.5C 265.167,90.1667 261.833,87.8333 258.5,85.5C 263.617,87.4227 268.783,87.7561 274,86.5C 275.833,81.6667 277.667,76.8333 279.5,72C 278.888,69.9423 277.888,68.109 276.5,66.5C 278.542,65.0902 280.542,63.5902 282.5,62C 282.011,60.8615 281.678,59.6948 281.5,58.5 Z"/></g>
<g><path style="opacity:1" fill="#3b3836" d="M 239.5,44.5 C 254.549,46.1831 268.549,50.8498 281.5,58.5C 281.678,59.6948 282.011,60.8615 282.5,62C 280.542,63.5902 278.542,65.0902 276.5,66.5C 277.888,68.109 278.888,69.9423 279.5,72C 277.667,76.8333 275.833,81.6667 274,86.5C 268.783,87.7561 263.617,87.4227 258.5,85.5C 256.784,85.3713 255.117,85.038 253.5,84.5C 230.609,74.1218 207.609,73.9551 184.5,84C 182.167,84.6667 179.833,84.6667 177.5,84C 173.329,78.6572 169.662,72.9905 166.5,67C 168.725,63.5562 171.725,61.0562 175.5,59.5C 174.697,60.4232 174.53,61.4232 175,62.5C 179.496,67.3289 182.996,72.8289 185.5,79C 190.24,78.6477 194.907,77.6477 199.5,76C 211.167,75.3333 222.833,75.3333 234.5,76C 243.379,78.2616 252.212,80.4283 261,82.5C 263.151,82.2351 264.818,81.2351 266,79.5C 267.09,75.3844 267.923,71.2177 268.5,67C 267.924,62.2567 265.257,59.7567 260.5,59.5C 260.081,56.6755 261.081,54.5088 263.5,53C 255.572,49.1954 247.572,46.362 239.5,44.5 Z"/></g>
<g><path style="opacity:0.984" fill="#211e1b" d="M 133.5,76.5 C 136.955,77.9908 139.788,80.3241 142,83.5C 143.479,88.1136 144.646,92.7802 145.5,97.5C 148.85,100.351 152.017,103.351 155,106.5C 156.871,105.003 157.871,103.003 158,100.5C 158.17,104.493 158.004,108.493 157.5,112.5C 156.178,112.33 155.011,112.663 154,113.5C 149.752,111.48 145.252,110.48 140.5,110.5C 135.033,111.229 129.7,112.563 124.5,114.5C 121.749,112.707 118.916,111.041 116,109.5C 114.432,104.517 114.265,99.5168 115.5,94.5C 117.976,84.8121 123.976,78.8121 133.5,76.5 Z"/></g>
<g><path style="opacity:1" fill="#262320" d="M 199.5,42.5 C 222.891,40.0916 245.891,42.5916 268.5,50C 282.525,56.2637 294.692,65.097 305,76.5C 310.785,84.6205 316.952,92.4539 323.5,100C 333.446,106.113 340.279,103.613 344,92.5C 346.268,99.4714 345.434,106.138 341.5,112.5C 340.127,112.343 338.793,112.51 337.5,113C 331.721,119.059 324.721,121.392 316.5,120C 307.352,116.258 298.352,112.258 289.5,108C 282.398,102.802 275.398,97.6349 268.5,92.5C 273.358,93.5956 277.691,95.7623 281.5,99C 283.698,99.3729 285.865,99.8729 288,100.5C 292.573,97.9339 296.573,94.6005 300,90.5C 302.199,85.7091 302.866,80.7091 302,75.5C 295.585,69.2445 288.752,63.5778 281.5,58.5C 268.549,50.8498 254.549,46.1831 239.5,44.5C 227.761,44.1841 216.094,44.8508 204.5,46.5C 208.932,44.9076 213.598,43.7409 218.5,43C 212.175,42.5005 205.842,42.3338 199.5,42.5 Z"/></g>
<g><path style="opacity:1" fill="#120e0b" d="M 227.5,86.5 C 235.232,87.8814 242.899,89.7147 250.5,92C 264.748,98.4572 278.748,105.457 292.5,113C 296.344,115.422 300.01,118.089 303.5,121C 312.754,124.13 322.087,124.296 331.5,121.5C 331.579,128.963 331.412,136.63 331,144.5C 329.183,152.466 326.517,160.132 323,167.5C 322.052,181.418 318.885,194.752 313.5,207.5C 313.5,208.167 313.167,208.5 312.5,208.5C 308.075,214.174 306.075,213.174 306.5,205.5C 308.017,205.489 309.184,204.823 310,203.5C 310.667,201.5 311.333,199.5 312,197.5C 315.485,183.551 318.652,169.551 321.5,155.5C 320.93,151.553 319.597,147.887 317.5,144.5C 312.327,143.541 307.16,142.541 302,141.5C 300.615,141.514 299.449,141.848 298.5,142.5C 297.5,141.167 296.5,139.833 295.5,138.5C 290.759,129.112 283.092,123.612 272.5,122C 268.702,121.228 264.869,120.728 261,120.5C 251.185,121.346 241.351,121.68 231.5,121.5C 232.719,116.266 233.552,110.933 234,105.5C 234.625,102.388 236.458,100.555 239.5,100C 234.514,97.3388 229.181,95.6721 223.5,95C 201.038,92.5781 181.705,99.0781 165.5,114.5C 164.609,115.11 163.609,115.443 162.5,115.5C 164.063,110.416 167.063,106.249 171.5,103C 182.322,95.7544 193.989,90.4211 206.5,87C 213.492,86.5004 220.492,86.3337 227.5,86.5 Z"/></g>
<g><path style="opacity:1" fill="#35322f" d="M 129.5,81.5 C 132.157,81.162 134.49,81.8287 136.5,83.5C 138.788,87.0811 140.788,90.7477 142.5,94.5C 135.417,94.7187 128.417,94.7187 121.5,94.5C 124.908,90.5896 127.575,86.2563 129.5,81.5 Z"/></g>
<g><path style="opacity:1" fill="#171310" d="M 231.5,121.5 C 215.341,120.612 199.341,118.445 183.5,115C 177.509,114.501 171.509,114.334 165.5,114.5C 181.705,99.0781 201.038,92.5781 223.5,95C 229.181,95.6721 234.514,97.3388 239.5,100C 236.458,100.555 234.625,102.388 234,105.5C 233.552,110.933 232.719,116.266 231.5,121.5 Z"/></g>
<g><path style="opacity:0.989" fill="#171411" d="M 149.5,61.5 C 150.529,63.864 150.529,66.1974 149.5,68.5C 150.178,71.5443 151.011,74.5443 152,77.5C 155.581,82.328 158.915,87.328 162,92.5C 164.141,95.4912 166.975,96.6579 170.5,96C 173.339,94.0797 176.339,92.4131 179.5,91C 195.351,86.228 211.351,84.728 227.5,86.5C 220.492,86.3337 213.492,86.5004 206.5,87C 193.989,90.4211 182.322,95.7544 171.5,103C 167.063,106.249 164.063,110.416 162.5,115.5C 159.939,116.918 157.272,117.918 154.5,118.5C 150.493,117.387 146.493,117.387 142.5,118.5C 137.119,121.945 131.619,125.278 126,128.5C 123.524,131.948 122.357,135.781 122.5,140C 122.764,149.353 124.097,158.519 126.5,167.5C 127.425,168.562 128.425,168.562 129.5,167.5C 127.157,177.871 124.657,188.204 122,198.5C 121.617,197.944 121.117,197.611 120.5,197.5C 119.197,195.858 117.864,194.191 116.5,192.5C 115.482,188.917 114.649,185.25 114,181.5C 114.386,162.26 112.553,143.26 108.5,124.5C 109.278,118.181 110.111,111.847 111,105.5C 111.644,101.381 113.144,97.7145 115.5,94.5C 114.265,99.5168 114.432,104.517 116,109.5C 118.916,111.041 121.749,112.707 124.5,114.5C 129.7,112.563 135.033,111.229 140.5,110.5C 145.252,110.48 149.752,111.48 154,113.5C 155.011,112.663 156.178,112.33 157.5,112.5C 158.004,108.493 158.17,104.493 158,100.5C 157.871,103.003 156.871,105.003 155,106.5C 152.017,103.351 148.85,100.351 145.5,97.5C 144.646,92.7802 143.479,88.1136 142,83.5C 139.788,80.3241 136.955,77.9908 133.5,76.5C 135.765,75.6576 138.098,75.9909 140.5,77.5C 142.423,73.5768 144.256,69.5768 146,65.5C 146.949,63.9069 148.115,62.5736 149.5,61.5 Z"/></g>
<g><path style="opacity:1" fill="#302d2a" d="M 145.5,97.5 C 147.442,101.327 148.776,105.327 149.5,109.5C 142.731,109.813 136.731,107.98 131.5,104C 127.459,103.827 123.459,103.327 119.5,102.5C 123.301,98.5641 127.968,96.3975 133.5,96C 137.642,95.6749 141.642,96.1749 145.5,97.5 Z"/></g>
<g><path style="opacity:1" fill="#d6a88a" d="M 181.5,118.5 C 192.047,119.329 202.38,120.663 212.5,122.5C 205.505,121.833 198.505,121.667 191.5,122C 182.573,126.682 179.24,133.848 181.5,143.5C 180.21,142.942 179.377,141.942 179,140.5C 177.388,131.223 180.888,124.723 189.5,121C 186.5,120.333 183.5,120.333 180.5,121C 171.917,131.161 170.417,142.327 176,154.5C 177.419,155.46 178.919,156.293 180.5,157C 191.625,159.598 202.625,162.598 213.5,166C 220.234,166.829 226.901,166.496 233.5,165C 240.064,162.692 246.73,160.692 253.5,159C 259.125,154.089 262.792,147.922 264.5,140.5C 263.847,133.59 260.847,128.256 255.5,124.5C 259.846,124.334 264.179,124.501 268.5,125C 269.579,125.956 270.745,126.789 272,127.5C 273.048,131.79 273.882,136.124 274.5,140.5C 273.5,145.165 272.5,149.832 271.5,154.5C 272.685,157.39 272.685,160.224 271.5,163C 263.833,163.333 256.167,163.667 248.5,164C 239.764,166.136 230.931,167.636 222,168.5C 210.421,167.863 199.255,165.363 188.5,161C 185.854,160.503 183.187,160.336 180.5,160.5C 179.833,160.5 179.167,160.5 178.5,160.5C 173.1,159.813 167.6,159.146 162,158.5C 162.002,148.81 162.668,139.144 164,129.5C 164.895,126.049 166.062,122.716 167.5,119.5C 171.97,118.514 176.637,118.181 181.5,118.5 Z"/></g>
<g><path style="opacity:1" fill="#ddb093" d="M 181.5,143.5 C 190.565,152.391 201.232,158.557 213.5,162C 218.167,162.667 222.833,162.667 227.5,162C 234.227,159.803 240.561,156.803 246.5,153C 259.431,144.711 259.764,135.878 247.5,126.5C 244.358,125.833 241.358,125.166 238.5,124.5C 244.167,124.5 249.833,124.5 255.5,124.5C 260.847,128.256 263.847,133.59 264.5,140.5C 262.792,147.922 259.125,154.089 253.5,159C 246.73,160.692 240.064,162.692 233.5,165C 226.901,166.496 220.234,166.829 213.5,166C 202.625,162.598 191.625,159.598 180.5,157C 178.919,156.293 177.419,155.46 176,154.5C 170.417,142.327 171.917,131.161 180.5,121C 183.5,120.333 186.5,120.333 189.5,121C 180.888,124.723 177.388,131.223 179,140.5C 179.377,141.942 180.21,142.942 181.5,143.5 Z"/></g>
<g><path style="opacity:1" fill="#754b2e" d="M 165.5,114.5 C 171.509,114.334 177.509,114.501 183.5,115C 199.341,118.445 215.341,120.612 231.5,121.5C 241.351,121.68 251.185,121.346 261,120.5C 264.869,120.728 268.702,121.228 272.5,122C 283.092,123.612 290.759,129.112 295.5,138.5C 289.009,132.922 281.675,128.922 273.5,126.5C 272.942,125.21 271.942,124.377 270.5,124C 258.505,123.5 246.505,123.333 234.5,123.5C 227.155,123.371 219.822,123.038 212.5,122.5C 202.38,120.663 192.047,119.329 181.5,118.5C 169.37,115.453 158.37,117.786 148.5,125.5C 148.167,125.5 147.833,125.5 147.5,125.5C 149.527,122.806 151.861,120.473 154.5,118.5C 157.272,117.918 159.939,116.918 162.5,115.5C 163.609,115.443 164.609,115.11 165.5,114.5 Z"/></g>
<g><path style="opacity:1" fill="#201d19" d="M 154.5,118.5 C 151.861,120.473 149.527,122.806 147.5,125.5C 143.12,129.234 139.953,133.901 138,139.5C 135.184,148.765 132.684,158.099 130.5,167.5C 130.167,167.5 129.833,167.5 129.5,167.5C 128.425,168.562 127.425,168.562 126.5,167.5C 124.097,158.519 122.764,149.353 122.5,140C 122.357,135.781 123.524,131.948 126,128.5C 131.619,125.278 137.119,121.945 142.5,118.5C 146.493,117.387 150.493,117.387 154.5,118.5 Z"/></g>
<g><path style="opacity:1" fill="#e3b89c" d="M 212.5,122.5 C 219.822,123.038 227.155,123.371 234.5,123.5C 235.568,124.434 236.901,124.768 238.5,124.5C 241.358,125.166 244.358,125.833 247.5,126.5C 259.764,135.878 259.431,144.711 246.5,153C 240.561,156.803 234.227,159.803 227.5,162C 222.833,162.667 218.167,162.667 213.5,162C 201.232,158.557 190.565,152.391 181.5,143.5C 179.24,133.848 182.573,126.682 191.5,122C 198.505,121.667 205.505,121.833 212.5,122.5 Z"/></g>
<g><path style="opacity:1" fill="#e9bfa4" d="M 205.5,123.5 C 214.167,123.917 222.834,124.417 231.5,125C 236.301,128.799 240.801,132.966 245,137.5C 245.79,140.634 245.457,143.634 244,146.5C 225.136,162.976 207.47,161.643 191,142.5C 189,139.833 189,137.167 191,134.5C 195.45,130.202 200.283,126.535 205.5,123.5 Z"/></g>
<g><path style="opacity:1" fill="#c99978" d="M 167.5,119.5 C 166.062,122.716 164.895,126.049 164,129.5C 162.668,139.144 162.002,148.81 162,158.5C 167.6,159.146 173.1,159.813 178.5,160.5C 169.936,159.887 161.602,160.887 153.5,163.5C 152.206,161.952 151.539,159.952 151.5,157.5C 152.179,146.843 152.679,136.176 153,125.5C 157.134,122.077 161.967,120.077 167.5,119.5 Z"/></g>
<g><path style="opacity:1" fill="#c0906d" d="M 181.5,118.5 C 176.637,118.181 171.97,118.514 167.5,119.5C 161.967,120.077 157.134,122.077 153,125.5C 152.679,136.176 152.179,146.843 151.5,157.5C 151.539,159.952 152.206,161.952 153.5,163.5C 150.869,165.153 148.203,166.819 145.5,168.5C 144.34,156.007 144.173,143.34 145,130.5C 146.176,128.804 147.343,127.138 148.5,125.5C 158.37,117.786 169.37,115.453 181.5,118.5 Z"/></g>
<g><path style="opacity:1" fill="#b08260" d="M 147.5,125.5 C 147.833,125.5 148.167,125.5 148.5,125.5C 147.343,127.138 146.176,128.804 145,130.5C 144.173,143.34 144.34,156.007 145.5,168.5C 144.859,169.482 144.193,170.482 143.5,171.5C 144.167,171.833 144.833,172.167 145.5,172.5C 147.511,171.481 149.511,170.481 151.5,169.5C 150.223,171.148 149.223,172.982 148.5,175C 148.728,175.399 149.062,175.565 149.5,175.5C 143.503,177.912 137.17,179.245 130.5,179.5C 130.5,175.5 130.5,171.5 130.5,167.5C 132.684,158.099 135.184,148.765 138,139.5C 139.953,133.901 143.12,129.234 147.5,125.5 Z"/></g>
<g><path style="opacity:1" fill="#c0906f" d="M 283.5,133.5 C 286.267,134.432 288.933,135.599 291.5,137C 292.894,137.956 293.561,139.289 293.5,141C 291.632,151.441 290.299,161.941 289.5,172.5C 288.5,172.5 287.5,172.5 286.5,172.5C 282.434,169.595 278.1,167.262 273.5,165.5C 275.401,165.433 277.234,165.767 279,166.5C 279.945,166.095 280.612,165.428 281,164.5C 281.317,154.113 282.151,143.78 283.5,133.5 Z"/></g>
<g><path style="opacity:1" fill="#ad7f5e" d="M 273.5,126.5 C 281.675,128.922 289.009,132.922 295.5,138.5C 296.5,139.833 297.5,141.167 298.5,142.5C 301.115,149.243 302.449,156.243 302.5,163.5C 303.077,173.243 301.744,182.576 298.5,191.5C 292.891,190.02 287.557,188.02 282.5,185.5C 283.586,185.38 284.253,184.713 284.5,183.5C 283.692,180.408 282.692,177.408 281.5,174.5C 284.245,175.737 286.578,177.57 288.5,180C 289.448,180.483 290.448,180.649 291.5,180.5C 291.649,179.448 291.483,178.448 291,177.5C 289.293,175.963 287.793,174.296 286.5,172.5C 287.5,172.5 288.5,172.5 289.5,172.5C 290.299,161.941 291.632,151.441 293.5,141C 293.561,139.289 292.894,137.956 291.5,137C 288.933,135.599 286.267,134.432 283.5,133.5C 280.688,131.592 277.688,129.925 274.5,128.5C 273.702,128.043 273.369,127.376 273.5,126.5 Z"/></g>
<g><path style="opacity:1" fill="#1a1613" d="M 306.5,205.5 C 306.5,203.833 306.5,202.167 306.5,200.5C 306.813,196.958 306.479,193.625 305.5,190.5C 304.892,181.315 303.892,172.315 302.5,163.5C 302.449,156.243 301.115,149.243 298.5,142.5C 299.449,141.848 300.615,141.514 302,141.5C 307.16,142.541 312.327,143.541 317.5,144.5C 319.597,147.887 320.93,151.553 321.5,155.5C 318.652,169.551 315.485,183.551 312,197.5C 311.333,199.5 310.667,201.5 310,203.5C 309.184,204.823 308.017,205.489 306.5,205.5 Z"/></g>
<g><path style="opacity:1" fill="#715949" d="M 178.5,160.5 C 179.167,160.5 179.833,160.5 180.5,160.5C 184.411,161.818 188.411,163.151 192.5,164.5C 193.761,167.28 192.761,168.947 189.5,169.5C 176.693,164.282 164.027,164.282 151.5,169.5C 149.511,170.481 147.511,171.481 145.5,172.5C 144.833,172.167 144.167,171.833 143.5,171.5C 144.193,170.482 144.859,169.482 145.5,168.5C 148.203,166.819 150.869,165.153 153.5,163.5C 161.602,160.887 169.936,159.887 178.5,160.5 Z"/></g>
<g><path style="opacity:1" fill="#cc9e7f" d="M 234.5,123.5 C 246.505,123.333 258.505,123.5 270.5,124C 271.942,124.377 272.942,125.21 273.5,126.5C 273.369,127.376 273.702,128.043 274.5,128.5C 277.688,129.925 280.688,131.592 283.5,133.5C 282.151,143.78 281.317,154.113 281,164.5C 280.612,165.428 279.945,166.095 279,166.5C 277.234,165.767 275.401,165.433 273.5,165.5C 263.177,163.764 253.177,164.764 243.5,168.5C 228.102,174.935 212.602,174.935 197,168.5C 195.699,166.845 194.199,165.511 192.5,164.5C 188.411,163.151 184.411,161.818 180.5,160.5C 183.187,160.336 185.854,160.503 188.5,161C 199.255,165.363 210.421,167.863 222,168.5C 230.931,167.636 239.764,166.136 248.5,164C 256.167,163.667 263.833,163.333 271.5,163C 272.685,160.224 272.685,157.39 271.5,154.5C 272.5,149.832 273.5,145.165 274.5,140.5C 273.882,136.124 273.048,131.79 272,127.5C 270.745,126.789 269.579,125.956 268.5,125C 264.179,124.501 259.846,124.334 255.5,124.5C 249.833,124.5 244.167,124.5 238.5,124.5C 236.901,124.768 235.568,124.434 234.5,123.5 Z"/></g>
<g><path style="opacity:1" fill="#c49778" d="M 192.5,164.5 C 194.199,165.511 195.699,166.845 197,168.5C 212.602,174.935 228.102,174.935 243.5,168.5C 243.5,169.833 243.5,171.167 243.5,172.5C 249.873,170.767 256.373,169.767 263,169.5C 269.767,169.035 275.933,170.701 281.5,174.5C 282.692,177.408 283.692,180.408 284.5,183.5C 284.253,184.713 283.586,185.38 282.5,185.5C 269.447,182.696 256.447,182.863 243.5,186C 239.449,188.018 235.783,190.518 232.5,193.5C 222.26,187.882 211.76,187.215 201,191.5C 192.598,182.216 182.098,177.05 169.5,176C 162.842,175.5 156.175,175.334 149.5,175.5C 149.062,175.565 148.728,175.399 148.5,175C 149.223,172.982 150.223,171.148 151.5,169.5C 164.027,164.282 176.693,164.282 189.5,169.5C 192.761,168.947 193.761,167.28 192.5,164.5 Z"/></g>
<g><path style="opacity:1" fill="#6e5646" d="M 273.5,165.5 C 278.1,167.262 282.434,169.595 286.5,172.5C 287.793,174.296 289.293,175.963 291,177.5C 291.483,178.448 291.649,179.448 291.5,180.5C 290.448,180.649 289.448,180.483 288.5,180C 286.578,177.57 284.245,175.737 281.5,174.5C 275.933,170.701 269.767,169.035 263,169.5C 256.373,169.767 249.873,170.767 243.5,172.5C 243.5,171.167 243.5,169.833 243.5,168.5C 253.177,164.764 263.177,163.764 273.5,165.5 Z"/></g>
<g><path style="opacity:1" fill="#8c6245" d="M 302.5,163.5 C 303.892,172.315 304.892,181.315 305.5,190.5C 305.5,191.5 305.5,192.5 305.5,193.5C 302.848,193.59 300.515,192.924 298.5,191.5C 301.744,182.576 303.077,173.243 302.5,163.5 Z"/></g>
<g><path style="opacity:1" fill="#c79877" d="M 116.5,192.5 C 117.864,194.191 119.197,195.858 120.5,197.5C 120.91,202.673 120.243,207.673 118.5,212.5C 116.628,210.09 115.295,207.423 114.5,204.5C 114.019,201.545 112.519,199.211 110,197.5C 109.506,195.866 109.34,194.199 109.5,192.5C 111.792,191.314 114.126,191.314 116.5,192.5 Z"/></g>
<g><path style="opacity:1" fill="#bf8f6e" d="M 321.5,210.5 C 321.5,211.5 321.5,212.5 321.5,213.5C 318.386,214.091 315.886,215.758 314,218.5C 312.76,221.412 311.094,224.079 309,226.5C 308.333,222.833 308.333,219.167 309,215.5C 311.238,213.691 312.405,211.358 312.5,208.5C 313.167,208.5 313.5,208.167 313.5,207.5C 317.177,205.726 319.844,206.726 321.5,210.5 Z"/></g>
<g><path style="opacity:1" fill="#a57756" d="M 109.5,192.5 C 109.34,194.199 109.506,195.866 110,197.5C 112.519,199.211 114.019,201.545 114.5,204.5C 113.163,203.685 112.163,202.518 111.5,201C 110.365,200.251 109.365,200.417 108.5,201.5C 116.553,212.182 120.219,224.348 119.5,238C 119.463,241.583 119.13,245.083 118.5,248.5C 116.833,248.5 115.167,248.5 113.5,248.5C 110.378,246.874 108.712,244.208 108.5,240.5C 110.812,241.478 112.478,243.145 113.5,245.5C 115.045,246.452 116.712,246.785 118.5,246.5C 117.486,238.923 115.653,231.589 113,224.5C 112.667,220.833 112.333,217.167 112,213.5C 111.293,211.919 110.46,210.419 109.5,209C 108.216,208.316 107.049,208.483 106,209.5C 105.501,213.152 105.335,216.818 105.5,220.5C 104.346,214.013 104.179,207.346 105,200.5C 105.754,197.316 107.254,194.649 109.5,192.5 Z"/></g>
<g><path style="opacity:1" fill="#c69674" d="M 108.5,240.5 C 106.573,234.012 105.573,227.346 105.5,220.5C 105.335,216.818 105.501,213.152 106,209.5C 107.049,208.483 108.216,208.316 109.5,209C 110.46,210.419 111.293,211.919 112,213.5C 112.333,217.167 112.667,220.833 113,224.5C 115.653,231.589 117.486,238.923 118.5,246.5C 116.712,246.785 115.045,246.452 113.5,245.5C 112.478,243.145 110.812,241.478 108.5,240.5 Z"/></g>
<g><path style="opacity:1" fill="#9e7355" d="M 201.5,199.5 C 202.156,200.278 202.989,200.944 204,201.5C 212.634,198.814 221.134,199.148 229.5,202.5C 229.5,205.833 229.5,209.167 229.5,212.5C 228.935,210.58 227.935,208.913 226.5,207.5C 223.993,206.108 221.327,205.108 218.5,204.5C 205.704,201.121 200.204,206.121 202,219.5C 200.156,222.533 199.156,225.866 199,229.5C 194.961,233.713 191.461,238.38 188.5,243.5C 184.248,246.025 179.915,248.358 175.5,250.5C 159.906,254.518 146.573,250.851 135.5,239.5C 134.092,235.314 133.425,230.981 133.5,226.5C 135.804,229.141 138.138,231.808 140.5,234.5C 141.912,239.576 145.245,242.576 150.5,243.5C 154.464,246.029 158.964,247.029 164,246.5C 169.064,246.816 173.897,245.983 178.5,244C 186.579,239.611 192.746,233.444 197,225.5C 197.765,223.934 197.598,222.601 196.5,221.5C 200.052,214.621 201.719,207.288 201.5,199.5 Z"/></g>
<g><path style="opacity:1" fill="#3e3e3d" d="M 149.5,175.5 C 156.175,175.334 162.842,175.5 169.5,176C 182.098,177.05 192.598,182.216 201,191.5C 211.76,187.215 222.26,187.882 232.5,193.5C 235.783,190.518 239.449,188.018 243.5,186C 256.447,182.863 269.447,182.696 282.5,185.5C 287.557,188.02 292.891,190.02 298.5,191.5C 300.515,192.924 302.848,193.59 305.5,193.5C 305.5,192.5 305.5,191.5 305.5,190.5C 306.479,193.625 306.813,196.958 306.5,200.5C 304.248,200.916 302.748,202.249 302,204.5C 302.518,214.669 300.684,224.336 296.5,233.5C 294.528,237.105 291.861,240.105 288.5,242.5C 274.135,251.607 259.468,251.774 244.5,243C 242.63,240.96 240.63,239.127 238.5,237.5C 234.146,231.751 231.146,225.417 229.5,218.5C 229.5,216.5 229.5,214.5 229.5,212.5C 229.5,209.167 229.5,205.833 229.5,202.5C 230.793,200.636 230.793,198.636 229.5,196.5C 220.757,191.812 211.757,191.312 202.5,195C 201.62,196.356 201.286,197.856 201.5,199.5C 201.719,207.288 200.052,214.621 196.5,221.5C 193.58,228.416 188.913,233.75 182.5,237.5C 172.292,241.892 161.959,242.559 151.5,239.5C 157.598,240.117 163.265,239.45 168.5,237.5C 177.12,236.532 183.787,232.532 188.5,225.5C 190.588,223.664 191.921,221.331 192.5,218.5C 193.167,218.5 193.5,218.167 193.5,217.5C 195.472,214.916 196.472,211.916 196.5,208.5C 197.833,203.833 197.833,199.167 196.5,194.5C 191.339,186.74 184.005,182.24 174.5,181C 163.61,178.482 152.944,179.148 142.5,183C 138.781,185.612 136.448,189.112 135.5,193.5C 134.71,194.609 134.21,195.942 134,197.5C 133.333,203.833 133.333,210.167 134,216.5C 134.67,219.174 135.837,221.507 137.5,223.5C 137.833,224.167 138.167,224.833 138.5,225.5C 137.427,226.251 137.26,227.251 138,228.5C 141.097,231.418 143.93,234.418 146.5,237.5C 144.517,236.529 142.517,235.529 140.5,234.5C 138.138,231.808 135.804,229.141 133.5,226.5C 132.833,225.167 132.167,223.833 131.5,222.5C 129.876,217.626 128.876,212.626 128.5,207.5C 128.935,201.158 129.102,194.825 129,188.5C 127.978,187.646 127.145,186.646 126.5,185.5C 126.937,182.775 128.27,180.775 130.5,179.5C 137.17,179.245 143.503,177.912 149.5,175.5 Z"/></g>
<g><path style="opacity:1" fill="#9c7964" d="M 194.5,195.5 C 189.448,194.317 184.448,192.817 179.5,191C 172.833,190.333 166.167,190.333 159.5,191C 158.263,191.232 157.263,191.732 156.5,192.5C 154.412,193.201 152.412,194.201 150.5,195.5C 145.682,199.172 140.515,202.506 135,205.5C 134.014,208.742 134.848,211.408 137.5,213.5C 138.313,209.523 140.146,206.189 143,203.5C 143.483,204.448 143.649,205.448 143.5,206.5C 142.115,207.574 140.949,208.907 140,210.5C 138.554,214.722 137.72,219.055 137.5,223.5C 135.837,221.507 134.67,219.174 134,216.5C 133.333,210.167 133.333,203.833 134,197.5C 134.21,195.942 134.71,194.609 135.5,193.5C 135.183,196.572 135.516,199.572 136.5,202.5C 151.289,188.315 168.623,184.482 188.5,191C 191.177,191.814 193.177,193.314 194.5,195.5 Z"/></g>
<g><path style="opacity:1" fill="#6d553a" d="M 162.5,199.5 C 162.433,200.959 162.766,202.292 163.5,203.5C 162.235,204.514 161.569,206.014 161.5,208C 161.036,211.007 162.036,213.173 164.5,214.5C 163.5,214.5 162.5,214.5 161.5,214.5C 160.167,213.833 158.833,213.167 157.5,212.5C 158.371,208.979 159.205,205.312 160,201.5C 160.708,200.619 161.542,199.953 162.5,199.5 Z"/></g>
<g><path style="opacity:1" fill="#644d38" d="M 176.5,198.5 C 180.02,199.353 182.687,201.353 184.5,204.5C 183.5,204.5 182.5,204.5 181.5,204.5C 181.795,206.735 181.461,208.735 180.5,210.5C 181.258,205.729 179.925,201.729 176.5,198.5 Z"/></g>
<g><path style="opacity:1" fill="#262524" d="M 176.5,198.5 C 179.925,201.729 181.258,205.729 180.5,210.5C 179.116,212.97 177.116,214.637 174.5,215.5C 171.214,214.793 167.881,214.46 164.5,214.5C 162.036,213.173 161.036,211.007 161.5,208C 161.569,206.014 162.235,204.514 163.5,203.5C 168.167,204.833 169.833,203.167 168.5,198.5C 171.026,197.343 173.693,197.343 176.5,198.5 Z"/></g>
<g><path style="opacity:1" fill="#a58169" d="M 196.5,208.5 C 196.472,211.916 195.472,214.916 193.5,217.5C 193.443,216.391 193.11,215.391 192.5,214.5C 193.659,211.747 193.159,209.081 191,206.5C 188.715,203.568 186.215,200.902 183.5,198.5C 183.369,197.624 183.702,196.957 184.5,196.5C 188.434,198.439 192.101,200.772 195.5,203.5C 196.452,205.045 196.785,206.712 196.5,208.5 Z"/></g>
<g><path style="opacity:1" fill="#473a2e" d="M 160.5,195.5 C 166.32,193.741 171.654,194.741 176.5,198.5C 173.693,197.343 171.026,197.343 168.5,198.5C 166.099,196.938 164.099,197.271 162.5,199.5C 161.542,199.953 160.708,200.619 160,201.5C 159.205,205.312 158.371,208.979 157.5,212.5C 155.192,205.994 156.525,200.494 161.5,196C 161.272,195.601 160.938,195.435 160.5,195.5 Z"/></g>
<g><path style="opacity:1" fill="#7d5d4b" d="M 150.5,195.5 C 148.688,197.461 147.688,199.794 147.5,202.5C 146.833,203.833 146.167,205.167 145.5,206.5C 144.833,206.5 144.167,206.5 143.5,206.5C 143.649,205.448 143.483,204.448 143,203.5C 140.146,206.189 138.313,209.523 137.5,213.5C 134.848,211.408 134.014,208.742 135,205.5C 140.515,202.506 145.682,199.172 150.5,195.5 Z"/></g>
<g><path style="opacity:1" fill="#d7d6d6" d="M 156.5,212.5 C 151.794,212.315 148.127,210.315 145.5,206.5C 146.167,205.167 146.833,203.833 147.5,202.5C 148.5,201.833 149.5,201.167 150.5,200.5C 152.575,200.302 154.575,200.135 156.5,200C 155.197,204.166 155.197,208.333 156.5,212.5 Z"/></g>
<g><path style="opacity:1" fill="#d7d6d5" d="M 168.5,198.5 C 169.833,203.167 168.167,204.833 163.5,203.5C 162.766,202.292 162.433,200.959 162.5,199.5C 164.099,197.271 166.099,196.938 168.5,198.5 Z"/></g>
<g><path style="opacity:1" fill="#b3b1b0" d="M 160.5,195.5 C 160.938,195.435 161.272,195.601 161.5,196C 156.525,200.494 155.192,205.994 157.5,212.5C 157.167,212.5 156.833,212.5 156.5,212.5C 155.197,208.333 155.197,204.166 156.5,200C 154.575,200.135 152.575,200.302 150.5,200.5C 153.235,197.799 156.569,196.132 160.5,195.5 Z"/></g>
<g><path style="opacity:1" fill="#97735b" d="M 291.5,195.5 C 294.79,198.756 296.457,202.756 296.5,207.5C 296.666,211.514 296.499,215.514 296,219.5C 294.807,217.395 293.14,215.728 291,214.5C 290.667,214.833 290.333,215.167 290,215.5C 286.774,211.6 285.274,211.933 285.5,216.5C 285.5,217.167 285.167,217.5 284.5,217.5C 283.833,216.167 283.167,214.833 282.5,213.5C 283.652,209.598 282.318,206.431 278.5,204C 267.833,196.667 257.167,196.667 246.5,204C 242.573,207.258 239.24,210.925 236.5,215C 236.57,215.765 236.903,216.265 237.5,216.5C 236.058,217.82 235.392,219.486 235.5,221.5C 233.588,215.419 233.088,209.086 234,202.5C 234.566,200.277 235.4,198.277 236.5,196.5C 236.369,197.376 236.702,198.043 237.5,198.5C 248.253,193.687 259.253,193.187 270.5,197C 274.09,198.53 277.757,199.864 281.5,201C 284.306,203.806 287.14,206.64 290,209.5C 290.538,204.829 291.038,200.162 291.5,195.5 Z"/></g>
<g><path style="opacity:1" fill="#2a2624" d="M 282.5,213.5 C 279.71,209.372 276.043,206.372 271.5,204.5C 270.739,203.609 269.739,202.942 268.5,202.5C 263.397,201.994 258.397,202.661 253.5,204.5C 252.167,205.167 250.833,205.833 249.5,206.5C 248.833,206.5 248.5,206.833 248.5,207.5C 246.147,208.34 244.147,209.674 242.5,211.5C 240.5,212.833 238.833,214.5 237.5,216.5C 236.903,216.265 236.57,215.765 236.5,215C 239.24,210.925 242.573,207.258 246.5,204C 257.167,196.667 267.833,196.667 278.5,204C 282.318,206.431 283.652,209.598 282.5,213.5 Z"/></g>
<g><path style="opacity:1" fill="#c19578" d="M 229.5,202.5 C 221.134,199.148 212.634,198.814 204,201.5C 202.989,200.944 202.156,200.278 201.5,199.5C 201.286,197.856 201.62,196.356 202.5,195C 211.757,191.312 220.757,191.812 229.5,196.5C 230.793,198.636 230.793,200.636 229.5,202.5 Z"/></g>
<g><path style="opacity:1" fill="#896650" d="M 194.5,195.5 C 195.925,197.031 196.591,196.698 196.5,194.5C 197.833,199.167 197.833,203.833 196.5,208.5C 196.785,206.712 196.452,205.045 195.5,203.5C 192.101,200.772 188.434,198.439 184.5,196.5C 183.702,196.957 183.369,197.624 183.5,198.5C 175.71,191.915 166.71,189.915 156.5,192.5C 157.263,191.732 158.263,191.232 159.5,191C 166.167,190.333 172.833,190.333 179.5,191C 184.448,192.817 189.448,194.317 194.5,195.5 Z"/></g>
<g><path style="opacity:1" fill="#2b2725" d="M 183.5,198.5 C 186.215,200.902 188.715,203.568 191,206.5C 193.159,209.081 193.659,211.747 192.5,214.5C 190.975,211.437 188.975,208.77 186.5,206.5C 186.167,205.5 185.5,204.833 184.5,204.5C 182.687,201.353 180.02,199.353 176.5,198.5C 171.654,194.741 166.32,193.741 160.5,195.5C 156.569,196.132 153.235,197.799 150.5,200.5C 149.5,201.167 148.5,201.833 147.5,202.5C 147.688,199.794 148.688,197.461 150.5,195.5C 152.412,194.201 154.412,193.201 156.5,192.5C 166.71,189.915 175.71,191.915 183.5,198.5 Z"/></g>
<g><path style="opacity:1" fill="#b89177" d="M 291.5,195.5 C 291.038,200.162 290.538,204.829 290,209.5C 287.14,206.64 284.306,203.806 281.5,201C 277.757,199.864 274.09,198.53 270.5,197C 259.253,193.187 248.253,193.687 237.5,198.5C 236.702,198.043 236.369,197.376 236.5,196.5C 238.506,193.645 241.172,191.479 244.5,190C 258.722,186.235 272.722,186.901 286.5,192C 288.584,192.697 290.251,193.864 291.5,195.5 Z"/></g>
<g><path style="opacity:1" fill="#b99278" d="M 196.5,194.5 C 196.591,196.698 195.925,197.031 194.5,195.5C 193.177,193.314 191.177,191.814 188.5,191C 168.623,184.482 151.289,188.315 136.5,202.5C 135.516,199.572 135.183,196.572 135.5,193.5C 136.448,189.112 138.781,185.612 142.5,183C 152.944,179.148 163.61,178.482 174.5,181C 184.005,182.24 191.339,186.74 196.5,194.5 Z"/></g>
<g><path style="opacity:1" fill="#bd8e6c" d="M 321.5,224.5 C 321.5,226.5 321.5,228.5 321.5,230.5C 320.071,240.45 317.071,249.783 312.5,258.5C 310.087,260.051 307.421,260.717 304.5,260.5C 304.857,256.737 305.69,253.07 307,249.5C 308,248.833 309,248.167 310,247.5C 311.978,241.589 313.645,235.589 315,229.5C 316.191,226.466 318.358,224.799 321.5,224.5 Z"/></g>
<g><path style="opacity:1" fill="#a17252" d="M 321.5,224.5 C 318.358,224.799 316.191,226.466 315,229.5C 313.645,235.589 311.978,241.589 310,247.5C 309,248.167 308,248.833 307,249.5C 305.69,253.07 304.857,256.737 304.5,260.5C 307.421,260.717 310.087,260.051 312.5,258.5C 311.004,263.396 308.004,265.063 303.5,263.5C 302.957,262.258 302.623,260.925 302.5,259.5C 303.825,253.882 304.825,248.215 305.5,242.5C 307.473,237.601 309.473,232.601 311.5,227.5C 313.632,225.187 316.132,223.52 319,222.5C 320.376,222.684 321.209,223.351 321.5,224.5 Z"/></g>
<g><path style="opacity:1" fill="#8d6041" d="M 129.5,167.5 C 129.833,167.5 130.167,167.5 130.5,167.5C 130.5,171.5 130.5,175.5 130.5,179.5C 128.27,180.775 126.937,182.775 126.5,185.5C 127.145,186.646 127.978,187.646 129,188.5C 129.102,194.825 128.935,201.158 128.5,207.5C 119.805,242.668 127.972,273.001 153,298.5C 153.333,299.833 153.667,301.167 154,302.5C 162.706,312.368 171.539,322.035 180.5,331.5C 197.061,337.406 214.061,338.906 231.5,336C 240.903,329.767 249.237,322.267 256.5,313.5C 261.759,309.286 266.926,304.952 272,300.5C 272.667,298.5 273.333,296.5 274,294.5C 278.225,289.737 282.225,284.737 286,279.5C 288.914,271.337 291.747,263.17 294.5,255C 295.34,253.829 296.173,252.662 297,251.5C 297.819,245.319 297.653,239.319 296.5,233.5C 300.684,224.336 302.518,214.669 302,204.5C 302.748,202.249 304.248,200.916 306.5,200.5C 306.5,202.167 306.5,203.833 306.5,205.5C 306.075,213.174 308.075,214.174 312.5,208.5C 312.405,211.358 311.238,213.691 309,215.5C 308.333,219.167 308.333,222.833 309,226.5C 311.094,224.079 312.76,221.412 314,218.5C 315.886,215.758 318.386,214.091 321.5,213.5C 321.5,212.5 321.5,211.5 321.5,210.5C 322.991,213.186 323.657,216.186 323.5,219.5C 323.546,223.428 322.88,227.095 321.5,230.5C 321.5,228.5 321.5,226.5 321.5,224.5C 321.209,223.351 320.376,222.684 319,222.5C 316.132,223.52 313.632,225.187 311.5,227.5C 309.473,232.601 307.473,237.601 305.5,242.5C 305.657,241.127 305.49,239.793 305,238.5C 301.027,251.795 297.027,265.129 293,278.5C 291.066,282.759 288.732,286.759 286,290.5C 271.071,306.433 255.238,321.266 238.5,335C 234.57,336.865 230.57,338.531 226.5,340C 209.111,342.771 192.778,340.104 177.5,332C 169.859,324.87 163.192,317.036 157.5,308.5C 154.567,307.07 152.067,305.07 150,302.5C 144,294.5 138,286.5 132,278.5C 126.798,265.702 123.131,252.369 121,238.5C 121.083,242.311 120.25,245.645 118.5,248.5C 119.13,245.083 119.463,241.583 119.5,238C 120.219,224.348 116.553,212.182 108.5,201.5C 109.365,200.417 110.365,200.251 111.5,201C 112.163,202.518 113.163,203.685 114.5,204.5C 115.295,207.423 116.628,210.09 118.5,212.5C 120.243,207.673 120.91,202.673 120.5,197.5C 121.117,197.611 121.617,197.944 122,198.5C 124.657,188.204 127.157,177.871 129.5,167.5 Z"/></g>
<g><path style="opacity:1" fill="#c79877" d="M 218.5,204.5 C 215.813,204.336 213.146,204.503 210.5,205C 208.347,205.099 206.681,205.933 205.5,207.5C 204.676,210.764 204.342,214.098 204.5,217.5C 202.56,221.915 201.227,226.582 200.5,231.5C 204.767,232.459 209.1,233.126 213.5,233.5C 218.208,233.04 222.874,232.373 227.5,231.5C 227.77,223.445 227.437,215.445 226.5,207.5C 227.935,208.913 228.935,210.58 229.5,212.5C 229.5,214.5 229.5,216.5 229.5,218.5C 229.335,221.85 229.502,225.183 230,228.5C 231.08,233.043 232.58,237.377 234.5,241.5C 232.549,240.284 231.049,238.618 230,236.5C 229.51,237.793 229.343,239.127 229.5,240.5C 227.494,238.827 225.494,237.16 223.5,235.5C 222.558,235.608 221.725,235.941 221,236.5C 222.204,241.363 222.537,246.363 222,251.5C 220.887,252.305 219.721,252.972 218.5,253.5C 218.389,254.117 218.056,254.617 217.5,255C 204.589,257.412 198.756,252.245 200,239.5C 196.297,242.243 194.797,245.91 195.5,250.5C 195.667,252.5 195.833,254.5 196,256.5C 197.802,257.789 198.969,259.456 199.5,261.5C 194.447,261.114 191.78,258.447 191.5,253.5C 191.74,248.104 192.907,243.104 195,238.5C 193.044,240.548 190.877,242.214 188.5,243.5C 191.461,238.38 194.961,233.713 199,229.5C 199.156,225.866 200.156,222.533 202,219.5C 200.204,206.121 205.704,201.121 218.5,204.5 Z"/></g>
<g><path style="opacity:1" fill="#e0bea9" d="M 284.5,238.5 C 284.5,239.167 284.5,239.833 284.5,240.5C 281.878,241.811 279.211,243.145 276.5,244.5C 277.506,245.396 277.506,246.062 276.5,246.5C 266.298,246.677 256.632,244.511 247.5,240C 243.132,236.745 240.132,232.578 238.5,227.5C 245.95,226.583 253.284,225.416 260.5,224C 263.167,225.333 265.167,227.333 266.5,230C 271.165,231.826 274.832,234.826 277.5,239C 279.885,239.556 282.218,239.39 284.5,238.5 Z"/></g>
<g><path style="opacity:1" fill="#d2a484" d="M 218.5,204.5 C 221.327,205.108 223.993,206.108 226.5,207.5C 227.437,215.445 227.77,223.445 227.5,231.5C 222.874,232.373 218.208,233.04 213.5,233.5C 209.1,233.126 204.767,232.459 200.5,231.5C 201.227,226.582 202.56,221.915 204.5,217.5C 204.33,219.848 203.997,222.182 203.5,224.5C 203.709,225.994 204.376,227.161 205.5,228C 209.833,228.667 214.167,228.667 218.5,228C 220.723,227.348 221.89,225.848 222,223.5C 222.829,218.136 222.663,212.802 221.5,207.5C 216.168,206.218 210.834,206.218 205.5,207.5C 206.681,205.933 208.347,205.099 210.5,205C 213.146,204.503 215.813,204.336 218.5,204.5 Z"/></g>
<g><path style="opacity:1" fill="#d8b49e" d="M 236.5,222.5 C 239.5,222.5 242.5,222.5 245.5,222.5C 246.833,222.5 248.167,222.5 249.5,222.5C 257.507,222.334 265.507,222.5 273.5,223C 275.863,225.18 278.53,226.847 281.5,228C 283.912,230.071 285.912,232.404 287.5,235C 285.937,235.759 284.937,236.926 284.5,238.5C 282.218,239.39 279.885,239.556 277.5,239C 274.832,234.826 271.165,231.826 266.5,230C 265.167,227.333 263.167,225.333 260.5,224C 253.284,225.416 245.95,226.583 238.5,227.5C 237.069,226.22 236.402,224.553 236.5,222.5 Z"/></g>
<g><path style="opacity:1" fill="#c9a58f" d="M 285.5,216.5 C 286.822,216.33 287.989,216.663 289,217.5C 291.23,221.229 292.73,225.229 293.5,229.5C 291.605,234.063 288.605,237.73 284.5,240.5C 284.5,239.833 284.5,239.167 284.5,238.5C 284.937,236.926 285.937,235.759 287.5,235C 285.912,232.404 283.912,230.071 281.5,228C 278.53,226.847 275.863,225.18 273.5,223C 265.507,222.5 257.507,222.334 249.5,222.5C 249.842,221.662 250.508,221.328 251.5,221.5C 256.167,221.5 260.833,221.5 265.5,221.5C 267.833,221.5 270.167,221.5 272.5,221.5C 276.845,221.163 280.845,219.829 284.5,217.5C 285.167,217.5 285.5,217.167 285.5,216.5 Z"/></g>
<g><path style="opacity:1" fill="#997a60" d="M 272.5,210.5 C 273.787,214.065 273.787,217.732 272.5,221.5C 270.167,221.5 267.833,221.5 265.5,221.5C 267.631,218.554 268.631,215.221 268.5,211.5C 268.281,210.325 268.614,209.325 269.5,208.5C 270.518,209.193 271.518,209.859 272.5,210.5 Z"/></g>
<g><path style="opacity:1" fill="#8e7365" d="M 296.5,207.5 C 297.648,211.981 297.815,216.648 297,221.5C 296.295,224.476 295.129,227.142 293.5,229.5C 292.73,225.229 291.23,221.229 289,217.5C 287.989,216.663 286.822,216.33 285.5,216.5C 285.274,211.933 286.774,211.6 290,215.5C 290.333,215.167 290.667,214.833 291,214.5C 293.14,215.728 294.807,217.395 296,219.5C 296.499,215.514 296.666,211.514 296.5,207.5 Z"/></g>
<g><path style="opacity:1" fill="#6b543d" d="M 249.5,206.5 C 249.5,207.5 249.5,208.5 249.5,209.5C 248.24,213.751 248.907,217.751 251.5,221.5C 250.508,221.328 249.842,221.662 249.5,222.5C 248.167,222.5 246.833,222.5 245.5,222.5C 245.5,221.5 245.5,220.5 245.5,219.5C 245.032,215.058 246.032,211.058 248.5,207.5C 248.5,206.833 248.833,206.5 249.5,206.5 Z"/></g>
<g><path style="opacity:1" fill="#e2b79b" d="M 204.5,217.5 C 204.342,214.098 204.676,210.764 205.5,207.5C 210.834,206.218 216.168,206.218 221.5,207.5C 222.663,212.802 222.829,218.136 222,223.5C 221.89,225.848 220.723,227.348 218.5,228C 214.167,228.667 209.833,228.667 205.5,228C 204.376,227.161 203.709,225.994 203.5,224.5C 203.997,222.182 204.33,219.848 204.5,217.5 Z"/></g>
<g><path style="opacity:1" fill="#d9b59f" d="M 161.5,214.5 C 162.5,214.5 163.5,214.5 164.5,214.5C 167.881,214.46 171.214,214.793 174.5,215.5C 177.313,217.284 180.313,217.617 183.5,216.5C 186.123,218.265 189.123,218.932 192.5,218.5C 191.921,221.331 190.588,223.664 188.5,225.5C 182.527,222.797 176.193,221.631 169.5,222C 162.564,229.146 154.23,232.313 144.5,231.5C 142.833,230.5 141.5,229.167 140.5,227.5C 142.205,228.535 143.872,228.535 145.5,227.5C 146.959,225.417 148.292,223.25 149.5,221C 152.304,219.362 154.971,217.529 157.5,215.5C 158.689,214.571 160.022,214.238 161.5,214.5 Z"/></g>
<g><path style="opacity:1" fill="#d0cfcf" d="M 242.5,211.5 C 243.251,214.246 244.251,216.913 245.5,219.5C 245.5,220.5 245.5,221.5 245.5,222.5C 242.5,222.5 239.5,222.5 236.5,222.5C 235.833,222.5 235.5,222.167 235.5,221.5C 235.392,219.486 236.058,217.82 237.5,216.5C 238.833,214.5 240.5,212.833 242.5,211.5 Z"/></g>
<g><path style="opacity:1" fill="#9f7d62" d="M 184.5,204.5 C 185.5,204.833 186.167,205.5 186.5,206.5C 185.716,209.801 184.716,213.134 183.5,216.5C 180.313,217.617 177.313,217.284 174.5,215.5C 177.116,214.637 179.116,212.97 180.5,210.5C 181.461,208.735 181.795,206.735 181.5,204.5C 182.5,204.5 183.5,204.5 184.5,204.5 Z"/></g>
<g><path style="opacity:1" fill="#2a2928" d="M 255.5,204.5 C 261.82,203.489 266.154,205.822 268.5,211.5C 268.631,215.221 267.631,218.554 265.5,221.5C 260.833,221.5 256.167,221.5 251.5,221.5C 248.907,217.751 248.24,213.751 249.5,209.5C 255.261,211.923 257.261,210.256 255.5,204.5 Z"/></g>
<g><path style="opacity:1" fill="#cca68d" d="M 143.5,206.5 C 144.167,206.5 144.833,206.5 145.5,206.5C 148.127,210.315 151.794,212.315 156.5,212.5C 156.833,212.5 157.167,212.5 157.5,212.5C 158.833,213.167 160.167,213.833 161.5,214.5C 160.022,214.238 158.689,214.571 157.5,215.5C 154.971,217.529 152.304,219.362 149.5,221C 148.292,223.25 146.959,225.417 145.5,227.5C 143.872,228.535 142.205,228.535 140.5,227.5C 139.5,227.167 138.833,226.5 138.5,225.5C 138.167,224.833 137.833,224.167 137.5,223.5C 137.72,219.055 138.554,214.722 140,210.5C 140.949,208.907 142.115,207.574 143.5,206.5 Z"/></g>
<g><path style="opacity:1" fill="#493b30" d="M 248.5,207.5 C 246.032,211.058 245.032,215.058 245.5,219.5C 244.251,216.913 243.251,214.246 242.5,211.5C 244.147,209.674 246.147,208.34 248.5,207.5 Z"/></g>
<g><path style="opacity:1" fill="#d1cecd" d="M 186.5,206.5 C 188.975,208.77 190.975,211.437 192.5,214.5C 193.11,215.391 193.443,216.391 193.5,217.5C 193.5,218.167 193.167,218.5 192.5,218.5C 189.123,218.932 186.123,218.265 183.5,216.5C 184.716,213.134 185.716,209.801 186.5,206.5 Z"/></g>
<g><path style="opacity:1" fill="#d0cfce" d="M 271.5,204.5 C 276.043,206.372 279.71,209.372 282.5,213.5C 283.167,214.833 283.833,216.167 284.5,217.5C 280.845,219.829 276.845,221.163 272.5,221.5C 273.787,217.732 273.787,214.065 272.5,210.5C 272.483,208.435 272.15,206.435 271.5,204.5 Z"/></g>
<g><path style="opacity:1" fill="#604a36" d="M 271.5,204.5 C 272.15,206.435 272.483,208.435 272.5,210.5C 271.518,209.859 270.518,209.193 269.5,208.5C 268.614,209.325 268.281,210.325 268.5,211.5C 266.154,205.822 261.82,203.489 255.5,204.5C 254.833,204.5 254.167,204.5 253.5,204.5C 258.397,202.661 263.397,201.994 268.5,202.5C 269.739,202.942 270.739,203.609 271.5,204.5 Z"/></g>
<g><path style="opacity:1" fill="#d2d1d0" d="M 253.5,204.5 C 254.167,204.5 254.833,204.5 255.5,204.5C 257.261,210.256 255.261,211.923 249.5,209.5C 249.5,208.5 249.5,207.5 249.5,206.5C 250.833,205.833 252.167,205.167 253.5,204.5 Z"/></g>
<g><path style="opacity:1" fill="#a27455" d="M 128.5,207.5 C 128.876,212.626 129.876,217.626 131.5,222.5C 130.778,222.918 130.278,223.584 130,224.5C 129.667,223.167 129.333,221.833 129,220.5C 126.506,241.144 130.172,260.478 140,278.5C 148.103,287.936 155.436,297.936 162,308.5C 165.105,311.293 168.272,313.96 171.5,316.5C 174.894,325.395 181.228,330.895 190.5,333C 204.164,334.97 217.831,334.97 231.5,333C 240.694,326.473 248.527,318.639 255,309.5C 273.415,294.825 286.248,276.325 293.5,254C 293.333,253.5 293.167,253 293,252.5C 290.152,255.152 286.985,257.152 283.5,258.5C 272.781,259.942 262.114,259.608 251.5,257.5C 245.201,252.869 239.534,247.535 234.5,241.5C 232.58,237.377 231.08,233.043 230,228.5C 229.502,225.183 229.335,221.85 229.5,218.5C 231.146,225.417 234.146,231.751 238.5,237.5C 237.475,237.897 237.308,238.563 238,239.5C 249.828,253.116 264.662,257.616 282.5,253C 284.249,251.708 286.082,250.542 288,249.5C 288.931,247.541 289.764,245.541 290.5,243.5C 290.043,242.702 289.376,242.369 288.5,242.5C 291.861,240.105 294.528,237.105 296.5,233.5C 297.653,239.319 297.819,245.319 297,251.5C 296.173,252.662 295.34,253.829 294.5,255C 291.747,263.17 288.914,271.337 286,279.5C 282.225,284.737 278.225,289.737 274,294.5C 273.333,296.5 272.667,298.5 272,300.5C 266.926,304.952 261.759,309.286 256.5,313.5C 249.237,322.267 240.903,329.767 231.5,336C 214.061,338.906 197.061,337.406 180.5,331.5C 171.539,322.035 162.706,312.368 154,302.5C 153.667,301.167 153.333,299.833 153,298.5C 127.972,273.001 119.805,242.668 128.5,207.5 Z"/></g>
<g><path style="opacity:1" fill="#b68766" d="M 135.5,239.5 C 146.573,250.851 159.906,254.518 175.5,250.5C 174.653,251.966 173.32,252.8 171.5,253C 159.527,254.674 148.527,252.174 138.5,245.5C 137.915,243.078 136.415,241.411 134,240.5C 133.174,245.589 133.508,250.589 135,255.5C 136.923,259.088 138.756,262.754 140.5,266.5C 143.683,270.526 146.517,274.859 149,279.5C 152.583,282.324 154.916,285.99 156,290.5C 160.333,296.833 164.667,303.167 169,309.5C 171.738,311.907 174.738,313.907 178,315.5C 179.947,314.956 180.78,313.623 180.5,311.5C 176.602,301.701 173.269,291.701 170.5,281.5C 172.664,283.822 174.331,286.489 175.5,289.5C 178.716,295.555 183.216,300.555 189,304.5C 189.576,306.377 189.409,308.211 188.5,310C 195.556,321.85 205.889,326.016 219.5,322.5C 225.679,319.496 231.179,315.496 236,310.5C 238.37,306.403 241.203,302.736 244.5,299.5C 242.454,305.324 239.954,310.991 237,316.5C 236.506,318.134 236.34,319.801 236.5,321.5C 238.783,321.392 240.783,320.559 242.5,319C 250.671,309.163 259.505,299.996 269,291.5C 270.873,286.088 273.539,281.088 277,276.5C 283.066,271.344 286.733,265.011 288,257.5C 286.644,258.38 285.144,258.714 283.5,258.5C 286.985,257.152 290.152,255.152 293,252.5C 293.167,253 293.333,253.5 293.5,254C 286.248,276.325 273.415,294.825 255,309.5C 248.527,318.639 240.694,326.473 231.5,333C 217.831,334.97 204.164,334.97 190.5,333C 181.228,330.895 174.894,325.395 171.5,316.5C 169.251,312.402 166.751,308.402 164,304.5C 159,298.5 154,292.5 149,286.5C 148,283.167 147,279.833 146,276.5C 134.533,264.095 129.866,249.428 132,232.5C 132.898,235.069 134.065,237.402 135.5,239.5 Z"/></g>
<g><path style="opacity:1" fill="#ae805f" d="M 131.5,222.5 C 132.167,223.833 132.833,225.167 133.5,226.5C 133.425,230.981 134.092,235.314 135.5,239.5C 134.065,237.402 132.898,235.069 132,232.5C 129.866,249.428 134.533,264.095 146,276.5C 147,279.833 148,283.167 149,286.5C 154,292.5 159,298.5 164,304.5C 166.751,308.402 169.251,312.402 171.5,316.5C 168.272,313.96 165.105,311.293 162,308.5C 155.436,297.936 148.103,287.936 140,278.5C 130.172,260.478 126.506,241.144 129,220.5C 129.333,221.833 129.667,223.167 130,224.5C 130.278,223.584 130.778,222.918 131.5,222.5 Z"/></g>
<g><path style="opacity:1" fill="#cea081" d="M 234.5,241.5 C 239.534,247.535 245.201,252.869 251.5,257.5C 253.273,258.892 255.273,260.059 257.5,261C 266.283,262.003 274.95,261.503 283.5,259.5C 284.167,259.833 284.833,260.167 285.5,260.5C 283.06,264.229 280.06,267.395 276.5,270C 272.353,270.098 268.687,268.765 265.5,266C 260.167,265.333 254.833,265.333 249.5,266C 247.294,268.037 245.294,270.203 243.5,272.5C 231.167,272.5 218.833,272.5 206.5,272.5C 198.344,272.429 190.344,271.429 182.5,269.5C 181.469,268.751 180.302,268.085 179,267.5C 177.961,265.254 176.794,263.087 175.5,261C 170.309,258.023 164.642,256.523 158.5,256.5C 147.412,260.919 140.079,257.419 136.5,246C 137.094,245.536 137.761,245.369 138.5,245.5C 148.527,252.174 159.527,254.674 171.5,253C 173.32,252.8 174.653,251.966 175.5,250.5C 179.915,248.358 184.248,246.025 188.5,243.5C 190.877,242.214 193.044,240.548 195,238.5C 192.907,243.104 191.74,248.104 191.5,253.5C 191.78,258.447 194.447,261.114 199.5,261.5C 200.5,261.5 201.5,261.5 202.5,261.5C 204.121,263.117 206.121,264.284 208.5,265C 211.817,265.498 215.15,265.665 218.5,265.5C 214.689,266.645 210.689,266.812 206.5,266C 202.667,263.247 198.667,262.914 194.5,265C 193.62,266.356 193.286,267.856 193.5,269.5C 205.381,271.326 217.381,271.992 229.5,271.5C 229.227,266.668 226.56,264.668 221.5,265.5C 223.65,264.33 225.984,263.33 228.5,262.5C 230.196,259.218 231.196,255.718 231.5,252C 230.75,248.17 230.083,244.337 229.5,240.5C 229.343,239.127 229.51,237.793 230,236.5C 231.049,238.618 232.549,240.284 234.5,241.5 Z"/></g>
<g><path style="opacity:1" fill="#cda285" d="M 238.5,237.5 C 240.63,239.127 242.63,240.96 244.5,243C 259.468,251.774 274.135,251.607 288.5,242.5C 289.376,242.369 290.043,242.702 290.5,243.5C 289.764,245.541 288.931,247.541 288,249.5C 286.082,250.542 284.249,251.708 282.5,253C 264.662,257.616 249.828,253.116 238,239.5C 237.308,238.563 237.475,237.897 238.5,237.5 Z"/></g>
<g><path style="opacity:1" fill="#b78867" d="M 229.5,240.5 C 230.083,244.337 230.75,248.17 231.5,252C 231.196,255.718 230.196,259.218 228.5,262.5C 225.984,263.33 223.65,264.33 221.5,265.5C 220.5,265.5 219.5,265.5 218.5,265.5C 215.15,265.665 211.817,265.498 208.5,265C 206.121,264.284 204.121,263.117 202.5,261.5C 201.5,261.5 200.5,261.5 199.5,261.5C 198.969,259.456 197.802,257.789 196,256.5C 195.833,254.5 195.667,252.5 195.5,250.5C 194.797,245.91 196.297,242.243 200,239.5C 198.756,252.245 204.589,257.412 217.5,255C 218.056,254.617 218.389,254.117 218.5,253.5C 219.721,252.972 220.887,252.305 222,251.5C 222.537,246.363 222.204,241.363 221,236.5C 221.725,235.941 222.558,235.608 223.5,235.5C 225.494,237.16 227.494,238.827 229.5,240.5 Z"/></g>
<g><path style="opacity:1" fill="#cda388" d="M 140.5,234.5 C 142.517,235.529 144.517,236.529 146.5,237.5C 147.78,238.931 149.447,239.598 151.5,239.5C 161.959,242.559 172.292,241.892 182.5,237.5C 184.379,237.393 184.712,237.893 183.5,239C 173.235,245.643 162.235,247.143 150.5,243.5C 145.245,242.576 141.912,239.576 140.5,234.5 Z"/></g>
<g><path style="opacity:1" fill="#bc9176" d="M 196.5,221.5 C 197.598,222.601 197.765,223.934 197,225.5C 192.746,233.444 186.579,239.611 178.5,244C 173.897,245.983 169.064,246.816 164,246.5C 158.964,247.029 154.464,246.029 150.5,243.5C 162.235,247.143 173.235,245.643 183.5,239C 184.712,237.893 184.379,237.393 182.5,237.5C 188.913,233.75 193.58,228.416 196.5,221.5 Z"/></g>
<g><path style="opacity:1" fill="#545454" d="M 138.5,225.5 C 138.833,226.5 139.5,227.167 140.5,227.5C 141.5,229.167 142.833,230.5 144.5,231.5C 151.646,236.402 159.646,238.402 168.5,237.5C 163.265,239.45 157.598,240.117 151.5,239.5C 149.447,239.598 147.78,238.931 146.5,237.5C 143.93,234.418 141.097,231.418 138,228.5C 137.26,227.251 137.427,226.251 138.5,225.5 Z"/></g>
<g><path style="opacity:1" fill="#e2c1ad" d="M 188.5,225.5 C 183.787,232.532 177.12,236.532 168.5,237.5C 159.646,238.402 151.646,236.402 144.5,231.5C 154.23,232.313 162.564,229.146 169.5,222C 176.193,221.631 182.527,222.797 188.5,225.5 Z"/></g>
<g><path style="opacity:1" fill="#7c5031" d="M 305.5,242.5 C 304.825,248.215 303.825,253.882 302.5,259.5C 302.623,260.925 302.957,262.258 303.5,263.5C 302.325,263.281 301.325,263.614 300.5,264.5C 296.359,278.45 289.859,291.117 281,302.5C 266.261,316.913 250.095,329.413 232.5,340C 211.157,345.285 191.157,342.285 172.5,331C 158.552,317.391 145.718,302.891 134,287.5C 127.731,275.525 123.564,262.858 121.5,249.5C 119.801,249.62 118.135,249.954 116.5,250.5C 114.962,250.547 113.962,249.88 113.5,248.5C 115.167,248.5 116.833,248.5 118.5,248.5C 120.25,245.645 121.083,242.311 121,238.5C 123.131,252.369 126.798,265.702 132,278.5C 138,286.5 144,294.5 150,302.5C 152.067,305.07 154.567,307.07 157.5,308.5C 163.192,317.036 169.859,324.87 177.5,332C 192.778,340.104 209.111,342.771 226.5,340C 230.57,338.531 234.57,336.865 238.5,335C 255.238,321.266 271.071,306.433 286,290.5C 288.732,286.759 291.066,282.759 293,278.5C 297.027,265.129 301.027,251.795 305,238.5C 305.49,239.793 305.657,241.127 305.5,242.5 Z"/></g>
<g><path style="opacity:1" fill="#a67757" d="M 175.5,289.5 C 180.629,295.259 186.296,300.426 192.5,305C 205.564,312.294 218.564,312.294 231.5,305C 236.647,301.68 241.314,297.847 245.5,293.5C 246.363,292.537 247.03,292.537 247.5,293.5C 246.871,295.741 245.871,297.741 244.5,299.5C 241.203,302.736 238.37,306.403 236,310.5C 231.179,315.496 225.679,319.496 219.5,322.5C 205.889,326.016 195.556,321.85 188.5,310C 189.409,308.211 189.576,306.377 189,304.5C 183.216,300.555 178.716,295.555 175.5,289.5 Z"/></g>
<g><path style="opacity:1" fill="#be8f6f" d="M 251.5,257.5 C 262.114,259.608 272.781,259.942 283.5,258.5C 285.144,258.714 286.644,258.38 288,257.5C 286.733,265.011 283.066,271.344 277,276.5C 273.539,281.088 270.873,286.088 269,291.5C 259.505,299.996 250.671,309.163 242.5,319C 240.783,320.559 238.783,321.392 236.5,321.5C 236.34,319.801 236.506,318.134 237,316.5C 239.954,310.991 242.454,305.324 244.5,299.5C 245.871,297.741 246.871,295.741 247.5,293.5C 247.03,292.537 246.363,292.537 245.5,293.5C 244.761,293.631 244.094,293.464 243.5,293C 246.777,289.563 249.443,285.729 251.5,281.5C 252.441,279.95 253.107,278.284 253.5,276.5C 255.352,275.911 257.185,275.244 259,274.5C 259.511,269.811 257.344,267.977 252.5,269C 250.281,272.045 247.281,273.211 243.5,272.5C 245.294,270.203 247.294,268.037 249.5,266C 254.833,265.333 260.167,265.333 265.5,266C 268.687,268.765 272.353,270.098 276.5,270C 280.06,267.395 283.06,264.229 285.5,260.5C 284.833,260.167 284.167,259.833 283.5,259.5C 274.95,261.503 266.283,262.003 257.5,261C 255.273,260.059 253.273,258.892 251.5,257.5 Z"/></g>
<g><path style="opacity:1" fill="#b6816a" d="M 170.5,278.5 C 171.637,279.789 172.97,280.789 174.5,281.5C 177.5,283.833 180.167,286.5 182.5,289.5C 184.506,293.347 187.506,296.514 191.5,299C 195.171,300.393 198.838,301.893 202.5,303.5C 209.142,304.664 215.808,304.831 222.5,304C 227.535,301.659 232.535,299.326 237.5,297C 238.823,296.184 239.489,295.017 239.5,293.5C 243.904,290.426 247.237,286.426 249.5,281.5C 250.167,281.5 250.833,281.5 251.5,281.5C 249.443,285.729 246.777,289.563 243.5,293C 244.094,293.464 244.761,293.631 245.5,293.5C 241.314,297.847 236.647,301.68 231.5,305C 218.564,312.294 205.564,312.294 192.5,305C 186.296,300.426 180.629,295.259 175.5,289.5C 174.331,286.489 172.664,283.822 170.5,281.5C 170.5,280.5 170.5,279.5 170.5,278.5 Z"/></g>
<g><path style="opacity:1" fill="#af7461" d="M 182.5,289.5 C 183.167,289.833 183.833,290.167 184.5,290.5C 184.5,291.167 184.833,291.5 185.5,291.5C 186.436,292.974 187.77,293.974 189.5,294.5C 192.008,296.924 195.008,298.59 198.5,299.5C 199.15,299.804 199.817,300.137 200.5,300.5C 201.696,300.154 201.696,299.654 200.5,299C 203.577,298.74 206.577,299.24 209.5,300.5C 211.801,299.604 214.134,299.438 216.5,300C 213.623,301.127 210.623,301.794 207.5,302C 211.92,302.768 216.253,302.602 220.5,301.5C 222.703,301.396 224.703,300.73 226.5,299.5C 227.492,299.672 228.158,299.338 228.5,298.5C 230.153,298.34 231.486,297.674 232.5,296.5C 234.98,295.758 237.313,294.758 239.5,293.5C 239.489,295.017 238.823,296.184 237.5,297C 232.535,299.326 227.535,301.659 222.5,304C 215.808,304.831 209.142,304.664 202.5,303.5C 198.838,301.893 195.171,300.393 191.5,299C 187.506,296.514 184.506,293.347 182.5,289.5 Z"/></g>
<g><path style="opacity:1" fill="#8b4b44" d="M 226.5,299.5 C 224.703,300.73 222.703,301.396 220.5,301.5C 223.442,298.534 222.775,296.7 218.5,296C 211.833,295.333 205.167,295.333 198.5,296C 197.316,297.145 197.316,298.312 198.5,299.5C 195.008,298.59 192.008,296.924 189.5,294.5C 191.215,293.343 193.215,292.676 195.5,292.5C 205.749,294.224 216.083,294.89 226.5,294.5C 226.5,296.167 226.5,297.833 226.5,299.5 Z"/></g>
<g><path style="opacity:1" fill="#a25b54" d="M 220.5,301.5 C 216.253,302.602 211.92,302.768 207.5,302C 210.623,301.794 213.623,301.127 216.5,300C 214.134,299.438 211.801,299.604 209.5,300.5C 206.577,299.24 203.577,298.74 200.5,299C 201.696,299.654 201.696,300.154 200.5,300.5C 199.817,300.137 199.15,299.804 198.5,299.5C 197.316,298.312 197.316,297.145 198.5,296C 205.167,295.333 211.833,295.333 218.5,296C 222.775,296.7 223.442,298.534 220.5,301.5 Z"/></g>
<g><path style="opacity:1" fill="#45211c" d="M 233.5,291.5 C 233.703,293.39 233.037,294.89 231.5,296C 231.728,296.399 232.062,296.565 232.5,296.5C 231.486,297.674 230.153,298.34 228.5,298.5C 230.897,296.544 230.897,294.71 228.5,293C 219.99,292.829 211.657,292.329 203.5,291.5C 213.564,291.208 223.564,291.208 233.5,291.5 Z"/></g>
<g><path style="opacity:1" fill="#65332c" d="M 203.5,291.5 C 211.657,292.329 219.99,292.829 228.5,293C 230.897,294.71 230.897,296.544 228.5,298.5C 228.158,299.338 227.492,299.672 226.5,299.5C 226.5,297.833 226.5,296.167 226.5,294.5C 216.083,294.89 205.749,294.224 195.5,292.5C 193.215,292.676 191.215,293.343 189.5,294.5C 187.77,293.974 186.436,292.974 185.5,291.5C 185.5,290.167 185.5,288.833 185.5,287.5C 191.668,288.465 197.668,289.798 203.5,291.5 Z"/></g>
<g><path style="opacity:1" fill="#d6a98b" d="M 254.5,279.5 C 257.193,280.552 259.86,281.552 262.5,282.5C 261.809,290.7 257.976,297.033 251,301.5C 250.5,301.167 250,300.833 249.5,300.5C 250.271,293.29 251.938,286.29 254.5,279.5 Z"/></g>
<g><path style="opacity:1" fill="#25100c" d="M 233.5,291.5 C 223.564,291.208 213.564,291.208 203.5,291.5C 197.668,289.798 191.668,288.465 185.5,287.5C 185.5,288.833 185.5,290.167 185.5,291.5C 184.833,291.5 184.5,291.167 184.5,290.5C 184.5,289.167 184.5,287.833 184.5,286.5C 188.453,286.536 192.286,285.869 196,284.5C 204.666,287.436 213.499,288.102 222.5,286.5C 226.864,286.852 230.531,288.519 233.5,291.5 Z"/></g>
<g><path style="opacity:1" fill="#150907" d="M 172.5,269.5 C 176.254,275.05 181.587,278.05 188.5,278.5C 190.5,278.833 192.5,279.167 194.5,279.5C 199.114,280.445 203.781,281.112 208.5,281.5C 217.038,282.788 225.705,282.788 234.5,281.5C 238.406,281.106 242.072,279.94 245.5,278C 246.252,277.329 246.586,276.496 246.5,275.5C 248.288,275.215 249.955,275.548 251.5,276.5C 250.826,278.195 250.159,279.862 249.5,281.5C 247.237,286.426 243.904,290.426 239.5,293.5C 237.313,294.758 234.98,295.758 232.5,296.5C 232.062,296.565 231.728,296.399 231.5,296C 233.037,294.89 233.703,293.39 233.5,291.5C 230.531,288.519 226.864,286.852 222.5,286.5C 213.499,288.102 204.666,287.436 196,284.5C 192.286,285.869 188.453,286.536 184.5,286.5C 184.5,287.833 184.5,289.167 184.5,290.5C 183.833,290.167 183.167,289.833 182.5,289.5C 180.167,286.5 177.5,283.833 174.5,281.5C 173.041,278.076 171.708,274.576 170.5,271C 170.836,269.97 171.503,269.47 172.5,269.5 Z"/></g>
<g><path style="opacity:1" fill="#5a524f" d="M 246.5,275.5 C 246.586,276.496 246.252,277.329 245.5,278C 242.072,279.94 238.406,281.106 234.5,281.5C 235.091,280.849 235.757,280.182 236.5,279.5C 236.291,278.914 235.957,278.414 235.5,278C 228.321,277.829 221.321,277.329 214.5,276.5C 225.205,276.763 235.872,276.43 246.5,275.5 Z"/></g>
<g><path style="opacity:1" fill="#9b9996" d="M 208.5,281.5 C 203.781,281.112 199.114,280.445 194.5,279.5C 195.871,278.213 197.705,277.547 200,277.5C 209.301,277.926 218.467,279.093 227.5,281C 221.175,281.5 214.842,281.666 208.5,281.5 Z"/></g>
<g><path style="opacity:1" fill="#7b7774" d="M 185.5,273.5 C 195.097,275.157 204.763,276.157 214.5,276.5C 221.321,277.329 228.321,277.829 235.5,278C 235.957,278.414 236.291,278.914 236.5,279.5C 235.757,280.182 235.091,280.849 234.5,281.5C 225.705,282.788 217.038,282.788 208.5,281.5C 214.842,281.666 221.175,281.5 227.5,281C 218.467,279.093 209.301,277.926 200,277.5C 197.705,277.547 195.871,278.213 194.5,279.5C 192.5,279.167 190.5,278.833 188.5,278.5C 186.981,277.59 185.315,276.757 183.5,276C 184.066,275.005 184.733,274.172 185.5,273.5 Z"/></g>
<g><path style="opacity:1" fill="#7f4b33" d="M 174.5,269.5 C 175.833,269.5 177.167,269.5 178.5,269.5C 179.833,269.5 181.167,269.5 182.5,269.5C 190.344,271.429 198.344,272.429 206.5,272.5C 221.661,273.331 236.995,273.831 252.5,274C 253.252,274.671 253.586,275.504 253.5,276.5C 253.107,278.284 252.441,279.95 251.5,281.5C 250.833,281.5 250.167,281.5 249.5,281.5C 250.159,279.862 250.826,278.195 251.5,276.5C 249.955,275.548 248.288,275.215 246.5,275.5C 235.872,276.43 225.205,276.763 214.5,276.5C 204.763,276.157 195.097,275.157 185.5,273.5C 181.783,272.32 178.116,270.987 174.5,269.5 Z"/></g>
<g><path style="opacity:1" fill="#5c5755" d="M 172.5,269.5 C 173.167,269.5 173.833,269.5 174.5,269.5C 178.116,270.987 181.783,272.32 185.5,273.5C 184.733,274.172 184.066,275.005 183.5,276C 185.315,276.757 186.981,277.59 188.5,278.5C 181.587,278.05 176.254,275.05 172.5,269.5 Z"/></g>
<g><path style="opacity:1" fill="#a47556" d="M 253.5,276.5 C 253.586,275.504 253.252,274.671 252.5,274C 236.995,273.831 221.661,273.331 206.5,272.5C 218.833,272.5 231.167,272.5 243.5,272.5C 247.281,273.211 250.281,272.045 252.5,269C 257.344,267.977 259.511,269.811 259,274.5C 257.185,275.244 255.352,275.911 253.5,276.5 Z"/></g>
<g><path style="opacity:1" fill="#9e6f50" d="M 178.5,269.5 C 177.167,269.5 175.833,269.5 174.5,269.5C 173.833,269.5 173.167,269.5 172.5,269.5C 171.503,269.47 170.836,269.97 170.5,271C 171.708,274.576 173.041,278.076 174.5,281.5C 172.97,280.789 171.637,279.789 170.5,278.5C 170.768,276.901 170.434,275.568 169.5,274.5C 168.962,272.883 168.629,271.216 168.5,269.5C 164.016,269.711 162.183,267.711 163,263.5C 166.174,262.272 169.341,262.439 172.5,264C 173.771,266.777 175.771,268.611 178.5,269.5 Z"/></g>
<g><path style="opacity:1" fill="#deb295" d="M 218.5,265.5 C 219.5,265.5 220.5,265.5 221.5,265.5C 226.56,264.668 229.227,266.668 229.5,271.5C 217.381,271.992 205.381,271.326 193.5,269.5C 193.286,267.856 193.62,266.356 194.5,265C 198.667,262.914 202.667,263.247 206.5,266C 210.689,266.812 214.689,266.645 218.5,265.5 Z"/></g>
<g><path style="opacity:1" fill="#c39474" d="M 138.5,245.5 C 137.761,245.369 137.094,245.536 136.5,246C 140.079,257.419 147.412,260.919 158.5,256.5C 164.642,256.523 170.309,258.023 175.5,261C 176.794,263.087 177.961,265.254 179,267.5C 180.302,268.085 181.469,268.751 182.5,269.5C 181.167,269.5 179.833,269.5 178.5,269.5C 175.771,268.611 173.771,266.777 172.5,264C 169.341,262.439 166.174,262.272 163,263.5C 162.183,267.711 164.016,269.711 168.5,269.5C 168.629,271.216 168.962,272.883 169.5,274.5C 170.434,275.568 170.768,276.901 170.5,278.5C 170.5,279.5 170.5,280.5 170.5,281.5C 173.269,291.701 176.602,301.701 180.5,311.5C 180.78,313.623 179.947,314.956 178,315.5C 174.738,313.907 171.738,311.907 169,309.5C 164.667,303.167 160.333,296.833 156,290.5C 154.916,285.99 152.583,282.324 149,279.5C 146.517,274.859 143.683,270.526 140.5,266.5C 138.756,262.754 136.923,259.088 135,255.5C 133.508,250.589 133.174,245.589 134,240.5C 136.415,241.411 137.915,243.078 138.5,245.5 Z"/></g>
<g><path style="opacity:1" fill="#d6a98b" d="M 169.5,274.5 C 169.322,275.695 168.989,276.862 168.5,278C 168.969,285.42 170.302,292.586 172.5,299.5C 171.448,299.649 170.448,299.483 169.5,299C 162.451,292.735 158.784,284.902 158.5,275.5C 161.354,275.076 164.021,274.076 166.5,272.5C 167.251,273.376 167.751,274.376 168,275.5C 168.383,274.944 168.883,274.611 169.5,274.5 Z"/></g>
<g><path style="opacity:1" fill="#835737" d="M 202.5,261.5 C 201.207,259.704 199.707,258.037 198,256.5C 196.682,253.594 196.348,250.594 197,247.5C 198.128,250.207 199.628,252.707 201.5,255C 208.86,258.277 216.194,258.277 223.5,255C 227.283,243.747 228.783,244.247 228,256.5C 227.215,258.286 226.049,259.786 224.5,261C 217.219,263.995 209.886,264.161 202.5,261.5 Z"/></g>
<g><path style="opacity:1" fill="#e2b69a" d="M 218.5,253.5 C 214.363,253.854 210.363,253.354 206.5,252C 202.687,247.837 203.02,243.837 207.5,240C 214.608,238.292 219.275,240.792 221.5,247.5C 220.727,249.68 219.727,251.68 218.5,253.5 Z"/></g>
</svg>
