<?xml version="1.0" encoding="UTF-8"?>
<!DOCTYPE svg PUBLIC "-//W3C//DTD SVG 1.1//EN" "http://www.w3.org/Graphics/SVG/1.1/DTD/svg11.dtd">
<svg xmlns="http://www.w3.org/2000/svg" version="1.1" width="420px" height="420px" style="shape-rendering:geometricPrecision; text-rendering:geometricPrecision; image-rendering:optimizeQuality; fill-rule:evenodd; clip-rule:evenodd" xmlns:xlink="http://www.w3.org/1999/xlink">
<g><path style="opacity:1" fill="#ca9c7b" d="M 92.5,20.5 C 92.5,21.1667 92.5,21.8333 92.5,22.5C 92.1663,44.6591 92.1663,66.9924 92.5,89.5C 85.9883,90.7832 81.4883,88.4499 79,82.5C 78.6049,79.7934 78.1049,77.1267 77.5,74.5C 78.7079,75.2341 80.0413,75.5674 81.5,75.5C 81.3379,77.5273 81.5045,79.5273 82,81.5C 82.2355,83.1193 83.0689,84.1193 84.5,84.5C 85.0056,87.734 86.6722,88.4007 89.5,86.5C 89.9814,65.1695 90.3147,43.8362 90.5,22.5C 90.8333,21.5 91.5,20.8333 92.5,20.5 Z"/></g>
<g><path style="opacity:1" fill="#c69776" d="M 126.5,11.5 C 126.821,12.8175 127.154,14.1508 127.5,15.5C 124.588,21.9571 123.921,28.6238 125.5,35.5C 125.239,38.2918 124.239,40.6251 122.5,42.5C 123.512,37.3636 123.512,32.197 122.5,27C 122.433,23.015 123.099,19.1816 124.5,15.5C 123.133,11.541 120.466,10.541 116.5,12.5C 114.177,34.4628 112.343,56.4628 111,78.5C 109.812,79.5634 109.312,80.8967 109.5,82.5C 106.223,82.7839 103.057,82.4505 100,81.5C 99.0806,67.7448 99.5806,54.0782 101.5,40.5C 101.209,50.3319 101.542,60.3319 102.5,70.5C 102.514,74.2386 103.18,77.572 104.5,80.5C 105.167,80.5 105.5,80.1667 105.5,79.5C 106.649,79.2089 107.316,78.3756 107.5,77C 110.811,57.4238 112.478,37.5905 112.5,17.5C 114.472,9.51816 119.138,7.51816 126.5,11.5 Z"/></g>
<g><path style="opacity:1" fill="#875b3c" d="M 149.5,28.5 C 150.434,29.7725 151.101,31.2725 151.5,33C 148.244,51.2831 145.244,69.6164 142.5,88C 142.774,91.5918 143.441,95.0918 144.5,98.5C 140.629,95.7502 138.963,91.9169 139.5,87C 142.147,67.3472 145.481,47.8472 149.5,28.5 Z"/></g>
<g><path style="opacity:1" fill="#b98b6a" d="M 149.5,28.5 C 145.481,47.8472 142.147,67.3472 139.5,87C 138.963,91.9169 140.629,95.7502 144.5,98.5C 146.23,99.0256 147.564,100.026 148.5,101.5C 144.586,100.76 141.253,98.9266 138.5,96C 137.541,94.2927 136.875,92.4594 136.5,90.5C 139.342,78.9675 141.008,67.3008 141.5,55.5C 143.094,45.823 144.761,36.1563 146.5,26.5C 143.233,24.917 140.233,25.2504 137.5,27.5C 136.507,32.1196 136.173,36.7863 136.5,41.5C 135.5,41.5 134.5,41.5 133.5,41.5C 133.666,47.8421 133.5,54.1754 133,60.5C 131.34,67.2695 129.84,73.9361 128.5,80.5C 125.635,80.9452 123.135,80.2785 121,78.5C 120.779,69.4723 120.279,60.4723 119.5,51.5C 120.134,48.5844 121.134,45.9178 122.5,43.5C 121.423,54.8069 121.257,66.1402 122,77.5C 123.041,79.3115 124.207,79.6448 125.5,78.5C 125.5,76.8333 125.5,75.1667 125.5,73.5C 128.164,60.3376 130.664,47.0042 133,33.5C 134.693,23.9323 139.859,21.4323 148.5,26C 149.252,26.6708 149.586,27.5041 149.5,28.5 Z"/></g>
<g><path style="opacity:1" fill="#ac7d5c" d="M 112.5,17.5 C 112.478,37.5905 110.811,57.4238 107.5,77C 107.316,78.3756 106.649,79.2089 105.5,79.5C 105.342,76.0977 105.676,72.7644 106.5,69.5C 107.062,51.8599 109.062,34.5266 112.5,17.5 Z"/></g>
<g><path style="opacity:1" fill="#8a5d3e" d="M 82.5,48.5 C 83.1174,48.6107 83.6174,48.944 84,49.5C 84.3054,57.0402 85.1388,64.3735 86.5,71.5C 87.0969,76.294 86.4302,80.6273 84.5,84.5C 82.7249,72.5854 82.0583,60.5854 82.5,48.5 Z"/></g>
<g><path style="opacity:1" fill="#b08262" d="M 126.5,11.5 C 127.5,11.8333 128.167,12.5 128.5,13.5C 127.368,25.8807 125.868,38.2141 124,50.5C 123.333,59.5 123.333,68.5 124,77.5C 124.383,78.056 124.883,78.3893 125.5,78.5C 124.207,79.6448 123.041,79.3115 122,77.5C 121.257,66.1402 121.423,54.8069 122.5,43.5C 122.5,43.1667 122.5,42.8333 122.5,42.5C 124.239,40.6251 125.239,38.2918 125.5,35.5C 123.921,28.6238 124.588,21.9571 127.5,15.5C 127.154,14.1508 126.821,12.8175 126.5,11.5 Z"/></g>
<g><path style="opacity:1" fill="#885b3c" d="M 128.5,13.5 C 129.926,15.6789 130.592,18.1789 130.5,21C 128.05,38.4336 126.383,55.9336 125.5,73.5C 125.5,75.1667 125.5,76.8333 125.5,78.5C 124.883,78.3893 124.383,78.056 124,77.5C 123.333,68.5 123.333,59.5 124,50.5C 125.868,38.2141 127.368,25.8807 128.5,13.5 Z"/></g>
<g><path style="opacity:1" fill="#aa7c5b" d="M 90.5,22.5 C 90.3147,43.8362 89.9814,65.1695 89.5,86.5C 86.6722,88.4007 85.0056,87.734 84.5,84.5C 86.4302,80.6273 87.0969,76.294 86.5,71.5C 86.7639,56.4718 87.5972,41.4718 89,26.5C 89.21,24.9419 89.71,23.6085 90.5,22.5 Z"/></g>
<g><path style="opacity:1" fill="#e0b498" d="M 141.5,55.5 C 140.12,55.9623 139.453,56.9623 139.5,58.5C 140.496,61.7975 140.663,65.1308 140,68.5C 137.879,73.9734 136.213,79.6401 135,85.5C 132.075,86.6319 130.908,88.7985 131.5,92C 131.494,94.2998 131.994,96.4664 133,98.5C 135.333,100.167 137.667,101.833 140,103.5C 142.444,108.937 143.444,114.604 143,120.5C 137.343,126.076 130.51,129.076 122.5,129.5C 119.393,127.758 116.059,126.425 112.5,125.5C 104.63,127.351 96.7966,129.351 89,131.5C 86.4289,130.356 84.2622,128.689 82.5,126.5C 78.0451,116.653 75.7118,106.32 75.5,95.5C 77.3665,102.926 79.8665,110.26 83,117.5C 85.0768,122.121 88.5768,123.955 93.5,123C 100.227,119.935 104.394,114.769 106,107.5C 111.02,104.126 114.02,99.459 115,93.5C 116.667,91.8333 118.333,90.1667 120,88.5C 120.044,85.5248 119.877,82.5248 119.5,79.5C 122.373,81.6268 125.373,81.9601 128.5,80.5C 129.84,73.9361 131.34,67.2695 133,60.5C 133.5,54.1754 133.666,47.8421 133.5,41.5C 134.5,41.5 135.5,41.5 136.5,41.5C 136.173,36.7863 136.507,32.1196 137.5,27.5C 140.233,25.2504 143.233,24.917 146.5,26.5C 144.761,36.1563 143.094,45.823 141.5,55.5 Z"/></g>
<g><path style="opacity:1" fill="#454240" d="M 215.5,80.5 C 217.167,80.5 218.833,80.5 220.5,80.5C 234.316,80.2348 247.65,82.5681 260.5,87.5C 261.521,88.0016 261.688,88.6683 261,89.5C 259.513,90.1552 258.347,91.1552 257.5,92.5C 259.167,93.8333 260.833,95.1667 262.5,96.5C 263.602,102.502 262.936,108.336 260.5,114C 257.833,114.667 255.167,114.667 252.5,114C 237.03,108.951 221.197,107.451 205,109.5C 198.51,111.693 192.01,113.693 185.5,115.5C 182.644,115.927 180.644,114.927 179.5,112.5C 185.801,110.566 187.801,106.566 185.5,100.5C 184.246,97.9066 182.58,95.5732 180.5,93.5C 191.194,86.8706 202.861,82.5373 215.5,80.5 Z"/></g>
<g><path style="opacity:1" fill="#d8ab8e" d="M 122.5,42.5 C 122.5,42.8333 122.5,43.1667 122.5,43.5C 121.134,45.9178 120.134,48.5844 119.5,51.5C 120.279,60.4723 120.779,69.4723 121,78.5C 123.135,80.2785 125.635,80.9452 128.5,80.5C 125.373,81.9601 122.373,81.6268 119.5,79.5C 118.226,72.362 118.226,65.1953 119.5,58C 119.623,53.7405 117.79,52.5738 114,54.5C 113.422,63.8397 112.755,73.173 112,82.5C 107.667,83.8333 103.333,83.8333 99,82.5C 97.9152,77.4151 97.4152,72.2484 97.5,67C 97.5284,57.7025 98.5284,48.5359 100.5,39.5C 99.5,39.5 98.5,39.5 97.5,39.5C 98.8767,35.2883 99.8767,30.955 100.5,26.5C 100.167,25.5 99.8333,24.5 99.5,23.5C 97.2534,22.6258 94.9201,22.2924 92.5,22.5C 92.5,21.8333 92.5,21.1667 92.5,20.5C 93.391,19.8902 94.391,19.5569 95.5,19.5C 97.6674,20.2685 99.834,21.2685 102,22.5C 102.409,28.5102 102.242,34.5102 101.5,40.5C 99.5806,54.0782 99.0806,67.7448 100,81.5C 103.057,82.4505 106.223,82.7839 109.5,82.5C 109.312,80.8967 109.812,79.5634 111,78.5C 112.343,56.4628 114.177,34.4628 116.5,12.5C 120.466,10.541 123.133,11.541 124.5,15.5C 123.099,19.1816 122.433,23.015 122.5,27C 123.512,32.197 123.512,37.3636 122.5,42.5 Z"/></g>
<g><path style="opacity:0.523" fill="#845838" d="M 106.5,28.5 C 106.243,42.3491 106.243,56.0158 106.5,69.5C 105.676,72.7644 105.342,76.0977 105.5,79.5C 105.5,80.1667 105.167,80.5 104.5,80.5C 103.362,71.2443 103.195,61.9109 104,52.5C 104.013,44.2589 104.847,36.2589 106.5,28.5 Z"/></g>
<g><path style="opacity:1" fill="#b38564" d="M 95.5,19.5 C 102.525,18.5323 106.192,21.5323 106.5,28.5C 104.847,36.2589 104.013,44.2589 104,52.5C 103.195,61.9109 103.362,71.2443 104.5,80.5C 103.18,77.572 102.514,74.2386 102.5,70.5C 101.542,60.3319 101.209,50.3319 101.5,40.5C 102.242,34.5102 102.409,28.5102 102,22.5C 99.834,21.2685 97.6674,20.2685 95.5,19.5 Z"/></g>
<g><path style="opacity:1" fill="#e6bba1" d="M 92.5,22.5 C 94.9201,22.2924 97.2534,22.6258 99.5,23.5C 99.8333,24.5 100.167,25.5 100.5,26.5C 99.8767,30.955 98.8767,35.2883 97.5,39.5C 98.5,39.5 99.5,39.5 100.5,39.5C 98.5284,48.5359 97.5284,57.7025 97.5,67C 97.4152,72.2484 97.9152,77.4151 99,82.5C 103.333,83.8333 107.667,83.8333 112,82.5C 112.755,73.173 113.422,63.8397 114,54.5C 117.79,52.5738 119.623,53.7405 119.5,58C 118.226,65.1953 118.226,72.362 119.5,79.5C 119.877,82.5248 120.044,85.5248 120,88.5C 118.333,90.1667 116.667,91.8333 115,93.5C 114.02,99.459 111.02,104.126 106,107.5C 104.394,114.769 100.227,119.935 93.5,123C 88.5768,123.955 85.0768,122.121 83,117.5C 79.8665,110.26 77.3665,102.926 75.5,95.5C 73.8413,88.65 72.8413,81.65 72.5,74.5C 73.8333,74.5 75.1667,74.5 76.5,74.5C 76.8333,74.5 77.1667,74.5 77.5,74.5C 78.1049,77.1267 78.6049,79.7934 79,82.5C 81.4883,88.4499 85.9883,90.7832 92.5,89.5C 92.1663,66.9924 92.1663,44.6591 92.5,22.5 Z"/></g>
<g><path style="opacity:1" fill="#36322f" d="M 203.5,79.5 C 207.702,79.1832 211.702,79.5166 215.5,80.5C 202.861,82.5373 191.194,86.8706 180.5,93.5C 171.409,90.7557 163.742,92.7557 157.5,99.5C 155.254,100.455 152.921,101.122 150.5,101.5C 155.179,95.318 161.179,90.818 168.5,88C 179.816,83.6145 191.483,80.7812 203.5,79.5 Z"/></g>
<g><path style="opacity:1" fill="#35322f" d="M 220.5,80.5 C 241.948,78.2804 261.615,83.4471 279.5,96C 280.944,97.7635 281.944,99.7635 282.5,102C 280.445,102.687 278.779,103.854 277.5,105.5C 279.339,107.527 279.839,109.86 279,112.5C 276.147,115.052 273.647,117.885 271.5,121C 269.527,121.495 267.527,121.662 265.5,121.5C 258.567,117.876 251.233,115.043 243.5,113C 230.189,111.655 216.856,111.322 203.5,112C 195.035,115.002 186.702,118.168 178.5,121.5C 177.5,121.333 176.5,121.167 175.5,121C 173.63,118.96 171.63,117.127 169.5,115.5C 172.505,113.723 175.838,112.723 179.5,112.5C 180.644,114.927 182.644,115.927 185.5,115.5C 192.01,113.693 198.51,111.693 205,109.5C 221.197,107.451 237.03,108.951 252.5,114C 255.167,114.667 257.833,114.667 260.5,114C 262.936,108.336 263.602,102.502 262.5,96.5C 260.833,95.1667 259.167,93.8333 257.5,92.5C 258.347,91.1552 259.513,90.1552 261,89.5C 261.688,88.6683 261.521,88.0016 260.5,87.5C 247.65,82.5681 234.316,80.2348 220.5,80.5 Z"/></g>
<g><path style="opacity:1" fill="#d3a586" d="M 76.5,74.5 C 75.1667,74.5 73.8333,74.5 72.5,74.5C 72.8413,81.65 73.8413,88.65 75.5,95.5C 75.7118,106.32 78.0451,116.653 82.5,126.5C 84.2622,128.689 86.4289,130.356 89,131.5C 96.7966,129.351 104.63,127.351 112.5,125.5C 116.059,126.425 119.393,127.758 122.5,129.5C 130.51,129.076 137.343,126.076 143,120.5C 143.444,114.604 142.444,108.937 140,103.5C 137.667,101.833 135.333,100.167 133,98.5C 131.994,96.4664 131.494,94.2998 131.5,92C 130.908,88.7985 132.075,86.6319 135,85.5C 136.213,79.6401 137.879,73.9734 140,68.5C 140.663,65.1308 140.496,61.7975 139.5,58.5C 139.453,56.9623 140.12,55.9623 141.5,55.5C 141.008,67.3008 139.342,78.9675 136.5,90.5C 136.875,92.4594 137.541,94.2927 138.5,96C 141.253,98.9266 144.586,100.76 148.5,101.5C 149.167,101.5 149.833,101.5 150.5,101.5C 152.921,101.122 155.254,100.455 157.5,99.5C 161.2,98.1542 164.867,96.6542 168.5,95C 171.167,94.3333 173.833,94.3333 176.5,95C 180.528,98.6337 180.195,101.967 175.5,105C 173.482,105.505 171.482,106.005 169.5,106.5C 170.335,105.057 171.668,104.057 173.5,103.5C 175.255,97.3419 172.921,95.1753 166.5,97C 162.3,100.6 157.633,103.433 152.5,105.5C 151.359,107.421 151.192,109.421 152,111.5C 155.174,112.728 158.341,112.561 161.5,111C 162.789,109.198 164.456,108.031 166.5,107.5C 162.755,111.572 159.088,115.572 155.5,119.5C 155.167,119.5 154.833,119.5 154.5,119.5C 147.214,121.644 140.548,125.144 134.5,130C 125.069,133.792 115.235,135.625 105,135.5C 98.8574,134.772 92.6908,134.272 86.5,134C 85.3333,132.833 84.1667,131.667 83,130.5C 80.94,125.38 78.6067,120.38 76,115.5C 71.1394,93.0387 69.4727,70.372 71,47.5C 73.627,45.0117 76.4603,44.8451 79.5,47C 80.8692,49.2393 80.3692,51.0726 78,52.5C 77.7744,55.095 77.2744,57.595 76.5,60C 77.5742,60.7387 78.2409,61.7387 78.5,63C 77.6931,66.8162 77.0265,70.6496 76.5,74.5 Z"/></g>
<g><path style="opacity:1" fill="#2a2623" d="M 203.5,79.5 C 231.113,74.7703 256.78,79.9369 280.5,95C 290.5,103.667 299.833,113 308.5,123C 313.006,125.814 317.673,126.147 322.5,124C 324.069,121.016 325.736,118.183 327.5,115.5C 328.66,119.459 328.827,123.459 328,127.5C 327.626,129.491 326.793,131.158 325.5,132.5C 322.971,136.189 319.638,139.022 315.5,141C 303.152,142.669 291.486,140.335 280.5,134C 277.03,131.165 273.363,128.832 269.5,127C 267.561,125.568 266.228,123.735 265.5,121.5C 267.527,121.662 269.527,121.495 271.5,121C 273.647,117.885 276.147,115.052 279,112.5C 279.839,109.86 279.339,107.527 277.5,105.5C 278.779,103.854 280.445,102.687 282.5,102C 281.944,99.7635 280.944,97.7635 279.5,96C 261.615,83.4471 241.948,78.2804 220.5,80.5C 218.833,80.5 217.167,80.5 215.5,80.5C 211.702,79.5166 207.702,79.1832 203.5,79.5 Z"/></g>
<g><path style="opacity:1" fill="#e4b99e" d="M 169.5,106.5 C 168.391,106.557 167.391,106.89 166.5,107.5C 164.456,108.031 162.789,109.198 161.5,111C 158.341,112.561 155.174,112.728 152,111.5C 151.192,109.421 151.359,107.421 152.5,105.5C 157.633,103.433 162.3,100.6 166.5,97C 172.921,95.1753 175.255,97.3419 173.5,103.5C 171.668,104.057 170.335,105.057 169.5,106.5 Z"/></g>
<g><path style="opacity:1" fill="#bd8f6e" d="M 180.5,93.5 C 182.58,95.5732 184.246,97.9066 185.5,100.5C 185.784,102.415 185.451,104.081 184.5,105.5C 178.833,106.62 173.167,107.786 167.5,109C 163.924,113.082 159.924,116.582 155.5,119.5C 159.088,115.572 162.755,111.572 166.5,107.5C 167.391,106.89 168.391,106.557 169.5,106.5C 171.482,106.005 173.482,105.505 175.5,105C 180.195,101.967 180.528,98.6337 176.5,95C 173.833,94.3333 171.167,94.3333 168.5,95C 164.867,96.6542 161.2,98.1542 157.5,99.5C 163.742,92.7557 171.409,90.7557 180.5,93.5 Z"/></g>
<g><path style="opacity:1" fill="#211d1a" d="M 265.5,121.5 C 266.228,123.735 267.561,125.568 269.5,127C 273.363,128.832 277.03,131.165 280.5,134C 291.486,140.335 303.152,142.669 315.5,141C 319.638,139.022 322.971,136.189 325.5,132.5C 324.306,136.363 321.973,139.363 318.5,141.5C 311.082,144.296 303.415,145.129 295.5,144C 281.981,137.742 268.314,131.742 254.5,126C 246.248,123.374 237.914,121.04 229.5,119C 215.686,117.416 202.352,119.083 189.5,124C 183.015,127.327 176.515,130.493 170,133.5C 165.365,131.365 161.865,128.032 159.5,123.5C 161.963,119.7 165.296,117.033 169.5,115.5C 171.63,117.127 173.63,118.96 175.5,121C 176.5,121.167 177.5,121.333 178.5,121.5C 186.702,118.168 195.035,115.002 203.5,112C 216.856,111.322 230.189,111.655 243.5,113C 251.233,115.043 258.567,117.876 265.5,121.5 Z"/></g>
<g><path style="opacity:1" fill="#14100d" d="M 318.5,141.5 C 317.768,144.427 317.935,147.427 319,150.5C 320.058,162.215 318.391,173.549 314,184.5C 313.812,196.801 311.978,208.801 308.5,220.5C 307.188,222.479 305.521,224.145 303.5,225.5C 302.548,223.955 302.215,222.288 302.5,220.5C 305.012,218.522 306.512,215.855 307,212.5C 310.742,198.719 312.075,184.719 311,170.5C 308.055,166.999 306.722,162.999 307,158.5C 309.683,161.016 312.183,163.683 314.5,166.5C 316.435,162.696 317.768,158.696 318.5,154.5C 312.386,153.481 307.386,155.314 303.5,160C 302.333,160.167 301.167,160.333 300,160.5C 295.52,159.637 291.02,158.97 286.5,158.5C 286.167,157.5 285.5,156.833 284.5,156.5C 281.519,151.713 277.186,148.546 271.5,147C 266.879,146.086 262.212,145.586 257.5,145.5C 231.996,148.119 206.496,148.119 181,145.5C 173.358,145.216 166.192,146.882 159.5,150.5C 156.15,150.335 152.817,150.502 149.5,151C 145.94,154.384 141.94,157.217 137.5,159.5C 135.423,161.076 133.923,163.076 133,165.5C 133.418,174.518 134.418,183.518 136,192.5C 136.473,194.779 137.473,196.779 139,198.5C 139.278,197.584 139.778,196.918 140.5,196.5C 140.5,197.5 140.5,198.5 140.5,199.5C 138.205,207.238 136.538,215.238 135.5,223.5C 135.167,224.167 134.833,224.833 134.5,225.5C 133.148,224.476 131.815,223.476 130.5,222.5C 129.5,222.167 128.833,221.5 128.5,220.5C 128.011,219.005 127.345,217.671 126.5,216.5C 126.568,207.614 125.901,198.78 124.5,190C 125.249,182.082 126.249,174.249 127.5,166.5C 127.5,163.5 127.5,160.5 127.5,157.5C 133.167,152.833 138.833,148.167 144.5,143.5C 147.833,143.5 151.167,143.5 154.5,143.5C 154.868,139.965 153.868,136.965 151.5,134.5C 153.445,130.264 156.112,126.597 159.5,123.5C 161.865,128.032 165.365,131.365 170,133.5C 176.515,130.493 183.015,127.327 189.5,124C 202.352,119.083 215.686,117.416 229.5,119C 237.914,121.04 246.248,123.374 254.5,126C 268.314,131.742 281.981,137.742 295.5,144C 303.415,145.129 311.082,144.296 318.5,141.5 Z"/></g>
<g><path style="opacity:1" fill="#7a4f32" d="M 185.5,100.5 C 187.801,106.566 185.801,110.566 179.5,112.5C 175.838,112.723 172.505,113.723 169.5,115.5C 165.296,117.033 161.963,119.7 159.5,123.5C 156.112,126.597 153.445,130.264 151.5,134.5C 148.815,137.19 146.482,140.19 144.5,143.5C 138.833,148.167 133.167,152.833 127.5,157.5C 124.323,160.011 121.99,163.177 120.5,167C 117.304,167.805 114.304,167.638 111.5,166.5C 112.978,166.762 114.311,166.429 115.5,165.5C 117.173,158.325 121.506,153.492 128.5,151C 132.648,147.096 136.981,143.429 141.5,140C 146.961,133.561 152.294,127.061 157.5,120.5C 161.271,117.232 164.938,113.732 168.5,110C 173.476,108.919 178.476,107.919 183.5,107C 184.056,106.617 184.389,106.117 184.5,105.5C 185.451,104.081 185.784,102.415 185.5,100.5 Z"/></g>
<g><path style="opacity:1" fill="#bf9171" d="M 82.5,48.5 C 82.0583,60.5854 82.7249,72.5854 84.5,84.5C 83.0689,84.1193 82.2355,83.1193 82,81.5C 81.5045,79.5273 81.3379,77.5273 81.5,75.5C 80.0413,75.5674 78.7079,75.2341 77.5,74.5C 77.1667,74.5 76.8333,74.5 76.5,74.5C 77.0265,70.6496 77.6931,66.8162 78.5,63C 78.2409,61.7387 77.5742,60.7387 76.5,60C 77.2744,57.595 77.7744,55.095 78,52.5C 80.3692,51.0726 80.8692,49.2393 79.5,47C 76.4603,44.8451 73.627,45.0117 71,47.5C 69.4727,70.372 71.1394,93.0387 76,115.5C 78.6067,120.38 80.94,125.38 83,130.5C 84.1667,131.667 85.3333,132.833 86.5,134C 92.6908,134.272 98.8574,134.772 105,135.5C 115.235,135.625 125.069,133.792 134.5,130C 140.548,125.144 147.214,121.644 154.5,119.5C 154.167,120.5 153.5,121.167 152.5,121.5C 151.127,121.343 149.793,121.51 148.5,122C 145.386,125.57 142.053,128.903 138.5,132C 130.98,134.095 123.98,137.262 117.5,141.5C 113.205,142.661 108.871,142.828 104.5,142C 103.328,141.581 102.328,140.915 101.5,140C 95.4646,139.131 89.4646,138.131 83.5,137C 78.3015,131.767 74.8015,125.6 73,118.5C 69.5106,95.2943 68.0106,71.9609 68.5,48.5C 72.047,43.9433 76.3804,43.2767 81.5,46.5C 82.2975,46.9569 82.6309,47.6236 82.5,48.5 Z"/></g>
<g><path style="opacity:1" fill="#302c29" d="M 151.5,134.5 C 153.868,136.965 154.868,139.965 154.5,143.5C 151.167,143.5 147.833,143.5 144.5,143.5C 146.482,140.19 148.815,137.19 151.5,134.5 Z"/></g>
<g><path style="opacity:1" fill="#9a6d4e" d="M 184.5,105.5 C 184.389,106.117 184.056,106.617 183.5,107C 178.476,107.919 173.476,108.919 168.5,110C 164.938,113.732 161.271,117.232 157.5,120.5C 155.983,120.511 154.816,121.177 154,122.5C 150.379,126.91 146.879,131.41 143.5,136C 137.147,139.843 131.147,144.177 125.5,149C 121.049,150.122 117.049,152.122 113.5,155C 111.607,158.962 109.274,162.462 106.5,165.5C 102.335,164.5 98.668,164.5 95.5,165.5C 95.5858,164.504 95.2524,163.671 94.5,163C 91.6441,161.741 88.9774,160.241 86.5,158.5C 90.2844,156.217 93.6178,153.384 96.5,150C 95.9169,147.501 94.5836,145.501 92.5,144C 89.1019,142.643 86.1019,140.81 83.5,138.5C 92.0748,139.912 98.7414,144.245 103.5,151.5C 105.765,152.647 108.098,152.814 110.5,152C 114.683,149.743 119.016,147.743 123.5,146C 125.291,143.586 126.957,141.086 128.5,138.5C 133.476,136.608 138.143,134.108 142.5,131C 145.535,127.335 148.868,124.168 152.5,121.5C 153.5,121.167 154.167,120.5 154.5,119.5C 154.833,119.5 155.167,119.5 155.5,119.5C 159.924,116.582 163.924,113.082 167.5,109C 173.167,107.786 178.833,106.62 184.5,105.5 Z"/></g>
<g><path style="opacity:1" fill="#865a3c" d="M 70.5,122.5 C 73.0943,126.03 74.9276,130.03 76,134.5C 78.1851,136.54 80.6851,137.874 83.5,138.5C 86.1019,140.81 89.1019,142.643 92.5,144C 94.5836,145.501 95.9169,147.501 96.5,150C 93.6178,153.384 90.2844,156.217 86.5,158.5C 85.1882,157.855 84.1882,156.855 83.5,155.5C 84.413,150.303 82.7464,145.97 78.5,142.5C 74.0805,136.583 71.4138,129.916 70.5,122.5 Z"/></g>
<g><path style="opacity:1" fill="#a67858" d="M 68.5,48.5 C 68.0106,71.9609 69.5106,95.2943 73,118.5C 74.8015,125.6 78.3015,131.767 83.5,137C 89.4646,138.131 95.4646,139.131 101.5,140C 102.328,140.915 103.328,141.581 104.5,142C 108.871,142.828 113.205,142.661 117.5,141.5C 123.98,137.262 130.98,134.095 138.5,132C 142.053,128.903 145.386,125.57 148.5,122C 149.793,121.51 151.127,121.343 152.5,121.5C 148.868,124.168 145.535,127.335 142.5,131C 138.143,134.108 133.476,136.608 128.5,138.5C 126.957,141.086 125.291,143.586 123.5,146C 119.016,147.743 114.683,149.743 110.5,152C 108.098,152.814 105.765,152.647 103.5,151.5C 98.7414,144.245 92.0748,139.912 83.5,138.5C 80.6851,137.874 78.1851,136.54 76,134.5C 74.9276,130.03 73.0943,126.03 70.5,122.5C 69.0821,117.398 68.2487,112.064 68,106.5C 67.4093,94.5037 66.9093,82.5037 66.5,70.5C 66.3569,62.9432 67.0236,55.6098 68.5,48.5 Z"/></g>
<g><path style="opacity:1" fill="#73492c" d="M 284.5,156.5 C 278.416,153.959 272.416,151.126 266.5,148C 256.94,147.065 247.606,147.565 238.5,149.5C 225.833,149.5 213.167,149.5 200.5,149.5C 190.342,148.341 180.008,148.175 169.5,149C 163.196,151.149 157.53,154.315 152.5,158.5C 154.833,155.833 157.167,153.167 159.5,150.5C 166.192,146.882 173.358,145.216 181,145.5C 206.496,148.119 231.996,148.119 257.5,145.5C 262.212,145.586 266.879,146.086 271.5,147C 277.186,148.546 281.519,151.713 284.5,156.5 Z"/></g>
<g><path style="opacity:1" fill="#895d3e" d="M 157.5,120.5 C 152.294,127.061 146.961,133.561 141.5,140C 136.981,143.429 132.648,147.096 128.5,151C 121.506,153.492 117.173,158.325 115.5,165.5C 114.311,166.429 112.978,166.762 111.5,166.5C 109.585,166.784 107.919,166.451 106.5,165.5C 109.274,162.462 111.607,158.962 113.5,155C 117.049,152.122 121.049,150.122 125.5,149C 131.147,144.177 137.147,139.843 143.5,136C 146.879,131.41 150.379,126.91 154,122.5C 154.816,121.177 155.983,120.511 157.5,120.5 Z"/></g>
<g><path style="opacity:1" fill="#1f1c18" d="M 159.5,150.5 C 157.167,153.167 154.833,155.833 152.5,158.5C 151.662,158.842 151.328,159.508 151.5,160.5C 148.643,163.546 146.81,167.213 146,171.5C 144.223,179.887 142.39,188.221 140.5,196.5C 139.778,196.918 139.278,197.584 139,198.5C 137.473,196.779 136.473,194.779 136,192.5C 134.418,183.518 133.418,174.518 133,165.5C 133.923,163.076 135.423,161.076 137.5,159.5C 141.94,157.217 145.94,154.384 149.5,151C 152.817,150.502 156.15,150.335 159.5,150.5 Z"/></g>
<g><path style="opacity:1" fill="#c79775" d="M 263.5,148.5 C 270.204,151.934 277.037,155.268 284,158.5C 284.253,170.37 284.42,182.203 284.5,194C 284.392,195.681 283.725,196.848 282.5,197.5C 277.6,195.25 272.6,193.083 267.5,191C 262.511,190.501 257.511,190.334 252.5,190.5C 258.109,190.111 263.609,189.111 269,187.5C 269.667,178.833 269.667,170.167 269,161.5C 268.599,156.435 266.765,152.101 263.5,148.5 Z"/></g>
<g><path style="opacity:1" fill="#bc8d6b" d="M 200.5,149.5 C 187.549,148.522 174.882,149.855 162.5,153.5C 160.958,157.14 160.291,160.973 160.5,165C 160.889,174.675 161.556,184.175 162.5,193.5C 160.492,195.268 158.326,196.934 156,198.5C 155.251,199.635 155.417,200.635 156.5,201.5C 157.86,200.82 159.193,200.153 160.5,199.5C 160.5,200.167 160.5,200.833 160.5,201.5C 157.583,202.417 154.583,203.084 151.5,203.5C 149.715,190.7 149.215,177.7 150,164.5C 150.791,163.255 151.291,161.922 151.5,160.5C 151.328,159.508 151.662,158.842 152.5,158.5C 157.53,154.315 163.196,151.149 169.5,149C 180.008,148.175 190.342,148.341 200.5,149.5 Z"/></g>
<g><path style="opacity:1" fill="#2f2f2f" d="M 78.5,142.5 C 82.7464,145.97 84.413,150.303 83.5,155.5C 84.1882,156.855 85.1882,157.855 86.5,158.5C 88.9774,160.241 91.6441,161.741 94.5,163C 95.2524,163.671 95.5858,164.504 95.5,165.5C 91.6896,174.089 88.5229,183.089 86,192.5C 85.3109,193.357 84.4776,194.023 83.5,194.5C 81.9716,193.139 80.3049,191.972 78.5,191C 77.3977,188.599 77.231,186.099 78,183.5C 80.2524,175.322 82.419,167.155 84.5,159C 82.5911,158.552 81.4244,159.385 81,161.5C 78.8452,167.786 76.8452,174.12 75,180.5C 75.4977,173.83 76.331,167.164 77.5,160.5C 77.3333,158.5 77.1667,156.5 77,154.5C 76.0147,152.825 75.1814,151.158 74.5,149.5C 75.0787,146.669 76.412,144.336 78.5,142.5 Z"/></g>
<g><path style="opacity:1" fill="#b48563" d="M 284.5,156.5 C 285.5,156.833 286.167,157.5 286.5,158.5C 287.925,159.922 288.925,161.589 289.5,163.5C 289.84,177.038 289.173,190.372 287.5,203.5C 286.041,203.567 284.708,203.234 283.5,202.5C 284.734,200.602 284.401,198.935 282.5,197.5C 283.725,196.848 284.392,195.681 284.5,194C 284.42,182.203 284.253,170.37 284,158.5C 277.037,155.268 270.204,151.934 263.5,148.5C 257.642,148.178 251.975,148.511 246.5,149.5C 244.167,149.5 241.833,149.5 239.5,149.5C 239.167,149.5 238.833,149.5 238.5,149.5C 247.606,147.565 256.94,147.065 266.5,148C 272.416,151.126 278.416,153.959 284.5,156.5 Z"/></g>
<g><path style="opacity:1" fill="#1a1714" d="M 302.5,220.5 C 301.833,217.5 301.167,214.5 300.5,211.5C 300.795,209.265 300.461,207.265 299.5,205.5C 297.606,195.193 295.772,184.859 294,174.5C 292.962,170.532 291.462,166.865 289.5,163.5C 288.925,161.589 287.925,159.922 286.5,158.5C 291.02,158.97 295.52,159.637 300,160.5C 301.167,160.333 302.333,160.167 303.5,160C 307.386,155.314 312.386,153.481 318.5,154.5C 317.768,158.696 316.435,162.696 314.5,166.5C 312.183,163.683 309.683,161.016 307,158.5C 306.722,162.999 308.055,166.999 311,170.5C 312.075,184.719 310.742,198.719 307,212.5C 306.512,215.855 305.012,218.522 302.5,220.5 Z"/></g>
<g><path style="opacity:1" fill="#d2a384" d="M 246.5,149.5 C 251.975,148.511 257.642,148.178 263.5,148.5C 266.765,152.101 268.599,156.435 269,161.5C 269.667,170.167 269.667,178.833 269,187.5C 263.609,189.111 258.109,190.111 252.5,190.5C 250.833,190.5 249.167,190.5 247.5,190.5C 238.656,192.6 229.656,193.933 220.5,194.5C 210.428,193.551 200.428,192.218 190.5,190.5C 180.823,188.551 171.489,189.551 162.5,193.5C 161.556,184.175 160.889,174.675 160.5,165C 160.291,160.973 160.958,157.14 162.5,153.5C 174.882,149.855 187.549,148.522 200.5,149.5C 213.167,149.5 225.833,149.5 238.5,149.5C 238.833,149.5 239.167,149.5 239.5,149.5C 238.432,150.434 237.099,150.768 235.5,150.5C 225.167,150.5 214.833,150.5 204.5,150.5C 197.159,150.334 189.826,150.5 182.5,151C 174.793,162.2 174.793,173.533 182.5,185C 197.433,190.092 212.766,192.425 228.5,192C 235.757,190.019 243.09,188.352 250.5,187C 257.572,184.397 261.406,179.231 262,171.5C 263.208,163.83 261.375,156.997 256.5,151C 253.207,150.174 249.874,149.674 246.5,149.5 Z"/></g>
<g><path style="opacity:1" fill="#e0b397" d="M 239.5,149.5 C 241.833,149.5 244.167,149.5 246.5,149.5C 249.874,149.674 253.207,150.174 256.5,151C 261.375,156.997 263.208,163.83 262,171.5C 261.406,179.231 257.572,184.397 250.5,187C 243.09,188.352 235.757,190.019 228.5,192C 212.766,192.425 197.433,190.092 182.5,185C 174.793,173.533 174.793,162.2 182.5,151C 189.826,150.5 197.159,150.334 204.5,150.5C 199.641,153.17 195.141,156.503 191,160.5C 188.365,164.351 188.031,168.351 190,172.5C 209.731,192.482 229.397,192.482 249,172.5C 249.346,170.782 249.846,169.115 250.5,167.5C 249.846,165.885 249.346,164.218 249,162.5C 244.928,157.923 240.428,153.923 235.5,150.5C 237.099,150.768 238.432,150.434 239.5,149.5 Z"/></g>
<g><path style="opacity:1" fill="#e8bea3" d="M 204.5,150.5 C 214.833,150.5 225.167,150.5 235.5,150.5C 240.428,153.923 244.928,157.923 249,162.5C 249.346,164.218 249.846,165.885 250.5,167.5C 249.846,169.115 249.346,170.782 249,172.5C 229.397,192.482 209.731,192.482 190,172.5C 188.031,168.351 188.365,164.351 191,160.5C 195.141,156.503 199.641,153.17 204.5,150.5 Z"/></g>
<g><path style="opacity:1" fill="#a87a59" d="M 151.5,160.5 C 151.291,161.922 150.791,163.255 150,164.5C 149.215,177.7 149.715,190.7 151.5,203.5C 148.417,204.993 145.083,205.993 141.5,206.5C 140.532,204.393 140.198,202.059 140.5,199.5C 140.5,198.5 140.5,197.5 140.5,196.5C 142.39,188.221 144.223,179.887 146,171.5C 146.81,167.213 148.643,163.546 151.5,160.5 Z"/></g>
<g><path style="opacity:1" fill="#343434" d="M 83.5,205.5 C 83.7852,203.712 83.4519,202.045 82.5,200.5C 80.1667,199.333 77.8333,198.167 75.5,197C 74.1068,195.829 73.2735,194.329 73,192.5C 71.4878,191.743 70.1545,190.743 69,189.5C 67.3134,185.557 65.8134,181.557 64.5,177.5C 58.4874,182.033 56.3207,188.033 58,195.5C 61.0635,204.636 67.0635,210.969 76,214.5C 77.981,213.35 79.8143,212.016 81.5,210.5C 80.8067,214.527 78.4734,216.86 74.5,217.5C 59.3368,211.653 53.0035,200.653 55.5,184.5C 57.2516,182.754 58.5849,180.754 59.5,178.5C 61.7991,177.222 64.1324,175.889 66.5,174.5C 66.9498,179.383 68.1164,184.05 70,188.5C 72.8333,190 75,192.167 76.5,195C 79.4799,197.324 82.8133,198.824 86.5,199.5C 86.539,202.089 85.539,204.089 83.5,205.5 Z"/></g>
<g><path style="opacity:1" fill="#404040" d="M 83.5,205.5 C 82.8333,207.167 82.1667,208.833 81.5,210.5C 79.8143,212.016 77.981,213.35 76,214.5C 67.0635,210.969 61.0635,204.636 58,195.5C 56.3207,188.033 58.4874,182.033 64.5,177.5C 65.8134,181.557 67.3134,185.557 69,189.5C 70.1545,190.743 71.4878,191.743 73,192.5C 73.2735,194.329 74.1068,195.829 75.5,197C 77.8333,198.167 80.1667,199.333 82.5,200.5C 83.4519,202.045 83.7852,203.712 83.5,205.5 Z"/></g>
<g><path style="opacity:1" fill="#a67958" d="M 289.5,163.5 C 291.462,166.865 292.962,170.532 294,174.5C 295.772,184.859 297.606,195.193 299.5,205.5C 295.329,206.465 291.329,205.798 287.5,203.5C 289.173,190.372 289.84,177.038 289.5,163.5 Z"/></g>
<g><path style="opacity:1" fill="#745b4b" d="M 190.5,190.5 C 192.933,191.413 195.433,192.413 198,193.5C 198.251,195.603 197.251,196.937 195,197.5C 186.29,195.475 177.456,194.975 168.5,196C 165.933,197.401 163.267,198.568 160.5,199.5C 159.193,200.153 157.86,200.82 156.5,201.5C 155.417,200.635 155.251,199.635 156,198.5C 158.326,196.934 160.492,195.268 162.5,193.5C 171.489,189.551 180.823,188.551 190.5,190.5 Z"/></g>
<g><path style="opacity:1" fill="#71594a" d="M 247.5,190.5 C 249.167,190.5 250.833,190.5 252.5,190.5C 257.511,190.334 262.511,190.501 267.5,191C 272.6,193.083 277.6,195.25 282.5,197.5C 284.401,198.935 284.734,200.602 283.5,202.5C 280.99,202.073 278.657,201.407 276.5,200.5C 277.239,200.631 277.906,200.464 278.5,200C 275.382,198.107 272.049,196.774 268.5,196C 260.054,195.267 251.72,195.6 243.5,197C 241.993,196.163 241.493,194.996 242,193.5C 243.719,192.131 245.552,191.131 247.5,190.5 Z"/></g>
<g><path style="opacity:0.998" fill="#1b1b1b" d="M 59.5,178.5 C 58.5849,180.754 57.2516,182.754 55.5,184.5C 42.6204,203.771 38.7871,224.771 44,247.5C 44.5613,248.022 45.228,248.355 46,248.5C 60.4661,243.188 71.2994,233.855 78.5,220.5C 79.7766,223.034 79.7766,225.534 78.5,228C 79,228.5 79.5,229 80,229.5C 91.1942,225.101 102.028,219.935 112.5,214C 116.092,211.079 118.925,207.579 121,203.5C 121.789,201.288 121.622,199.288 120.5,197.5C 121.693,193.327 122.859,192.994 124,196.5C 125.061,202.724 124.394,208.724 122,214.5C 109.821,223.257 97.8211,232.257 86,241.5C 77.6292,251.742 71.7958,263.242 68.5,276C 68.0983,280.2 69.765,283.2 73.5,285C 82.1979,287.032 90.8645,286.865 99.5,284.5C 100.442,284.608 101.275,284.941 102,285.5C 102.443,289.882 103.61,294.048 105.5,298C 104.778,303.777 102.444,308.777 98.5,313C 93.0164,315.426 87.6831,317.926 82.5,320.5C 86.87,321.17 91.2033,320.67 95.5,319C 102.635,315.017 109.801,311.184 117,307.5C 118.911,308.782 119.744,310.615 119.5,313C 118.252,321.82 113.586,328.153 105.5,332C 92.2176,339.612 78.2176,341.612 63.5,338C 61.3834,336.269 59.8834,334.102 59,331.5C 57.9505,332.517 56.7839,332.684 55.5,332C 41.8241,318.804 35.1574,302.637 35.5,283.5C 35.9855,262.815 36.8188,242.148 38,221.5C 41.2705,209.29 45.9371,197.623 52,186.5C 54.0001,183.334 56.5001,180.668 59.5,178.5 Z"/></g>
<g><path style="opacity:0.994" fill="#151515" d="M 127.5,166.5 C 126.249,174.249 125.249,182.082 124.5,190C 125.901,198.78 126.568,207.614 126.5,216.5C 125.766,217.708 125.433,219.041 125.5,220.5C 124.596,221.209 124.263,222.209 124.5,223.5C 123.055,226.937 122.055,230.603 121.5,234.5C 120.448,238.426 119.782,242.426 119.5,246.5C 118.92,257.835 118.253,269.169 117.5,280.5C 118.052,290.367 122.385,298.034 130.5,303.5C 130.389,304.117 130.056,304.617 129.5,305C 133.551,311.255 135.051,318.088 134,325.5C 132.279,327.711 130.279,329.711 128,331.5C 124.22,339.873 123.387,348.373 125.5,357C 124.811,361.056 123.811,365.056 122.5,369C 125.398,374.898 123.731,379.231 117.5,382C 111.593,383.361 105.593,383.861 99.5,383.5C 99.6495,384.552 99.4828,385.552 99,386.5C 95.6281,377.702 94.2947,377.702 95,386.5C 98.107,391.056 100.94,395.723 103.5,400.5C 94.3177,391.821 86.8177,381.821 81,370.5C 72.8226,358.314 63.1559,347.314 52,337.5C 42.0135,323.208 36.1802,307.375 34.5,290C 34.5039,287.639 34.8373,285.473 35.5,283.5C 35.1574,302.637 41.8241,318.804 55.5,332C 56.7839,332.684 57.9505,332.517 59,331.5C 59.8834,334.102 61.3834,336.269 63.5,338C 78.2176,341.612 92.2176,339.612 105.5,332C 113.586,328.153 118.252,321.82 119.5,313C 119.744,310.615 118.911,308.782 117,307.5C 109.801,311.184 102.635,315.017 95.5,319C 91.2033,320.67 86.87,321.17 82.5,320.5C 87.6831,317.926 93.0164,315.426 98.5,313C 102.444,308.777 104.778,303.777 105.5,298C 103.61,294.048 102.443,289.882 102,285.5C 101.275,284.941 100.442,284.608 99.5,284.5C 90.8645,286.865 82.1979,287.032 73.5,285C 69.765,283.2 68.0983,280.2 68.5,276C 71.7958,263.242 77.6292,251.742 86,241.5C 97.8211,232.257 109.821,223.257 122,214.5C 124.394,208.724 125.061,202.724 124,196.5C 122.859,192.994 121.693,193.327 120.5,197.5C 116.3,200.934 111.633,203.267 106.5,204.5C 103.061,204.747 99.728,204.414 96.5,203.5C 97.5676,202.566 98.901,202.232 100.5,202.5C 100.181,200.25 100.681,198.25 102,196.5C 102.21,197.803 102.043,199.136 101.5,200.5C 101.482,202.373 101.982,202.706 103,201.5C 105.265,192.706 107.931,184.04 111,175.5C 112.529,174.271 113.696,172.771 114.5,171C 116.473,170.505 118.473,170.338 120.5,170.5C 120.363,177.626 121.03,177.959 122.5,171.5C 124.006,169.599 125.673,167.932 127.5,166.5 Z"/></g>
<g><path style="opacity:1" fill="#c89c7d" d="M 190.5,190.5 C 200.428,192.218 210.428,193.551 220.5,194.5C 229.656,193.933 238.656,192.6 247.5,190.5C 245.552,191.131 243.719,192.131 242,193.5C 241.493,194.996 241.993,196.163 243.5,197C 251.72,195.6 260.054,195.267 268.5,196C 272.049,196.774 275.382,198.107 278.5,200C 277.906,200.464 277.239,200.631 276.5,200.5C 265.161,198.556 254.161,199.722 243.5,204C 240.322,206.514 237.156,209.014 234,211.5C 229.828,209.553 225.495,208.22 221,207.5C 215.416,208.354 209.916,209.188 204.5,210C 191.336,199.561 176.67,196.727 160.5,201.5C 160.5,200.833 160.5,200.167 160.5,199.5C 163.267,198.568 165.933,197.401 168.5,196C 177.456,194.975 186.29,195.475 195,197.5C 197.251,196.937 198.251,195.603 198,193.5C 195.433,192.413 192.933,191.413 190.5,190.5 Z"/></g>
<g><path style="opacity:1" fill="#262626" d="M 74.5,149.5 C 75.1814,151.158 76.0147,152.825 77,154.5C 77.1667,156.5 77.3333,158.5 77.5,160.5C 76.331,167.164 75.4977,173.83 75,180.5C 76.8452,174.12 78.8452,167.786 81,161.5C 81.4244,159.385 82.5911,158.552 84.5,159C 82.419,167.155 80.2524,175.322 78,183.5C 77.231,186.099 77.3977,188.599 78.5,191C 80.3049,191.972 81.9716,193.139 83.5,194.5C 84.4776,194.023 85.3109,193.357 86,192.5C 88.5229,183.089 91.6896,174.089 95.5,165.5C 98.668,164.5 102.335,164.5 106.5,165.5C 107.919,166.451 109.585,166.784 111.5,166.5C 114.304,167.638 117.304,167.805 120.5,167C 121.99,163.177 124.323,160.011 127.5,157.5C 127.5,160.5 127.5,163.5 127.5,166.5C 125.673,167.932 124.006,169.599 122.5,171.5C 121.03,177.959 120.363,177.626 120.5,170.5C 118.473,170.338 116.473,170.505 114.5,171C 113.696,172.771 112.529,174.271 111,175.5C 107.931,184.04 105.265,192.706 103,201.5C 101.982,202.706 101.482,202.373 101.5,200.5C 102.043,199.136 102.21,197.803 102,196.5C 100.681,198.25 100.181,200.25 100.5,202.5C 98.901,202.232 97.5676,202.566 96.5,203.5C 94.516,202.844 92.516,202.178 90.5,201.5C 89.5581,201.608 88.7247,201.941 88,202.5C 84.3528,207.865 82.5195,213.865 82.5,220.5C 95.2974,219.101 106.297,213.934 115.5,205C 114.975,204.308 114.308,203.808 113.5,203.5C 111.253,204.374 108.92,204.708 106.5,204.5C 111.633,203.267 116.3,200.934 120.5,197.5C 121.622,199.288 121.789,201.288 121,203.5C 118.925,207.579 116.092,211.079 112.5,214C 102.028,219.935 91.1942,225.101 80,229.5C 79.5,229 79,228.5 78.5,228C 79.7766,225.534 79.7766,223.034 78.5,220.5C 71.2994,233.855 60.4661,243.188 46,248.5C 45.228,248.355 44.5613,248.022 44,247.5C 38.7871,224.771 42.6204,203.771 55.5,184.5C 53.0035,200.653 59.3368,211.653 74.5,217.5C 78.4734,216.86 80.8067,214.527 81.5,210.5C 82.1667,208.833 82.8333,207.167 83.5,205.5C 85.539,204.089 86.539,202.089 86.5,199.5C 82.8133,198.824 79.4799,197.324 76.5,195C 75,192.167 72.8333,190 70,188.5C 68.1164,184.05 66.9498,179.383 66.5,174.5C 64.1324,175.889 61.7991,177.222 59.5,178.5C 61.3815,175.548 64.0482,173.548 67.5,172.5C 69.3882,164.593 71.7216,156.926 74.5,149.5 Z"/></g>
<g><path style="opacity:1" fill="#393939" d="M 96.5,203.5 C 99.728,204.414 103.061,204.747 106.5,204.5C 108.92,204.708 111.253,204.374 113.5,203.5C 114.308,203.808 114.975,204.308 115.5,205C 106.297,213.934 95.2974,219.101 82.5,220.5C 82.5195,213.865 84.3528,207.865 88,202.5C 88.7247,201.941 89.5581,201.608 90.5,201.5C 92.516,202.178 94.516,202.844 96.5,203.5 Z"/></g>
<g><path style="opacity:1" fill="#434140" d="M 276.5,200.5 C 278.657,201.407 280.99,202.073 283.5,202.5C 284.708,203.234 286.041,203.567 287.5,203.5C 291.329,205.798 295.329,206.465 299.5,205.5C 300.461,207.265 300.795,209.265 300.5,211.5C 299.878,212.627 299.045,213.627 298,214.5C 297.667,220.5 297.333,226.5 297,232.5C 296.604,235.657 295.771,238.657 294.5,241.5C 293.89,242.391 293.557,243.391 293.5,244.5C 291.863,246.475 290.196,248.475 288.5,250.5C 285.374,254.238 281.374,256.738 276.5,258C 265.912,259.699 255.912,258.199 246.5,253.5C 239.235,246.964 234.569,238.964 232.5,229.5C 232.5,228.167 232.5,226.833 232.5,225.5C 232.94,221.629 232.94,217.962 232.5,214.5C 224.649,210.706 216.649,210.54 208.5,214C 207.663,215.011 207.33,216.178 207.5,217.5C 208.324,229.019 205.324,239.353 198.5,248.5C 193.947,253.53 188.28,256.697 181.5,258C 171.863,259.679 162.863,258.179 154.5,253.5C 148.802,248.775 145.135,242.775 143.5,235.5C 142.7,228.858 142.533,222.191 143,215.5C 138.872,213.096 138.372,210.096 141.5,206.5C 145.083,205.993 148.417,204.993 151.5,203.5C 154.583,203.084 157.583,202.417 160.5,201.5C 176.67,196.727 191.336,199.561 204.5,210C 209.916,209.188 215.416,208.354 221,207.5C 225.495,208.22 229.828,209.553 234,211.5C 237.156,209.014 240.322,206.514 243.5,204C 254.161,199.722 265.161,198.556 276.5,200.5 Z"/></g>
<g><path style="opacity:1" fill="#b28c72" d="M 182.5,204.5 C 177.125,204.172 171.792,204.505 166.5,205.5C 167.002,206.716 167.335,207.883 167.5,209C 177.508,208.262 187.508,208.429 197.5,209.5C 199.5,210.833 201.167,212.5 202.5,214.5C 202.631,215.239 202.464,215.906 202,216.5C 200.048,214.106 197.548,212.606 194.5,212C 180.216,208.105 167.216,210.438 155.5,219C 152.628,221.537 150.128,224.37 148,227.5C 147.505,225.527 147.338,223.527 147.5,221.5C 147.66,212.668 151.993,207.168 160.5,205C 167.954,203.35 175.288,203.183 182.5,204.5 Z"/></g>
<g><path style="opacity:1" fill="#c59e85" d="M 182.5,204.5 C 188.044,204.792 193.044,206.459 197.5,209.5C 187.508,208.429 177.508,208.262 167.5,209C 167.335,207.883 167.002,206.716 166.5,205.5C 171.792,204.505 177.125,204.172 182.5,204.5 Z"/></g>
<g><path style="opacity:1" fill="#936f58" d="M 292.5,219.5 C 293.651,224.65 293.817,229.984 293,235.5C 292.76,237.852 291.927,239.852 290.5,241.5C 290.33,240.178 290.663,239.011 291.5,238C 290.56,233.708 288.394,230.208 285,227.5C 283.989,228.056 283.156,228.722 282.5,229.5C 280.396,222.566 275.73,218.066 268.5,216C 264.49,215.643 260.49,215.81 256.5,216.5C 245.133,214.189 238.799,218.856 237.5,230.5C 236.837,228.359 236.503,226.025 236.5,223.5C 236.315,219.859 236.981,216.526 238.5,213.5C 238.369,214.239 238.536,214.906 239,215.5C 240.167,214.333 241.333,213.167 242.5,212C 257.602,208.31 271.602,210.643 284.5,219C 287.372,221.537 289.872,224.37 292,227.5C 292.497,224.854 292.664,222.187 292.5,219.5 Z"/></g>
<g><path style="opacity:1" fill="#b38c72" d="M 292.5,219.5 C 292.664,222.187 292.497,224.854 292,227.5C 289.872,224.37 287.372,221.537 284.5,219C 271.602,210.643 257.602,208.31 242.5,212C 241.333,213.167 240.167,214.333 239,215.5C 238.536,214.906 238.369,214.239 238.5,213.5C 242.012,208.905 246.678,206.071 252.5,205C 263.639,202.52 274.473,203.353 285,207.5C 289.587,209.564 292.087,213.564 292.5,219.5 Z"/></g>
<g><path style="opacity:1" fill="#8f6344" d="M 140.5,199.5 C 140.198,202.059 140.532,204.393 141.5,206.5C 138.372,210.096 138.872,213.096 143,215.5C 142.533,222.191 142.7,228.858 143.5,235.5C 139.763,254.986 142.93,273.319 153,290.5C 162.091,300.598 171.257,310.765 180.5,321C 181.094,321.464 181.761,321.631 182.5,321.5C 182.351,322.552 182.517,323.552 183,324.5C 187.134,326.795 189.967,330.129 191.5,334.5C 178.943,323.778 167.109,312.111 156,299.5C 145.893,287.201 139.227,273.201 136,257.5C 135.503,259.81 135.337,262.143 135.5,264.5C 134.833,264.5 134.5,264.167 134.5,263.5C 133.473,254.382 131.639,245.382 129,236.5C 126.91,233.853 124.41,233.186 121.5,234.5C 122.055,230.603 123.055,226.937 124.5,223.5C 124.343,224.873 124.51,226.207 125,227.5C 128.025,230.069 130.358,233.069 132,236.5C 132.985,234.634 133.485,232.634 133.5,230.5C 132.726,227.669 131.726,225.003 130.5,222.5C 131.815,223.476 133.148,224.476 134.5,225.5C 134.833,224.833 135.167,224.167 135.5,223.5C 136.538,215.238 138.205,207.238 140.5,199.5 Z"/></g>
<g><path style="opacity:1" fill="#8d6041" d="M 300.5,211.5 C 301.167,214.5 301.833,217.5 302.5,220.5C 302.215,222.288 302.548,223.955 303.5,225.5C 305.521,224.145 307.188,222.479 308.5,220.5C 308.833,220.5 309.167,220.5 309.5,220.5C 308.627,222.886 307.127,224.886 305,226.5C 304.333,230.5 304.333,234.5 305,238.5C 307.546,235.963 309.212,232.963 310,229.5C 311.5,228 313,226.5 314.5,225C 313.62,223.644 313.286,222.144 313.5,220.5C 316.27,222.366 317.77,225.032 318,228.5C 318.812,232.689 318.645,236.689 317.5,240.5C 317.817,237.428 317.484,234.428 316.5,231.5C 313.195,232.972 310.695,235.305 309,238.5C 305.584,246.162 303.751,254.162 303.5,262.5C 303.5,263.167 303.167,263.5 302.5,263.5C 302.662,261.473 302.495,259.473 302,257.5C 299.324,266.879 296.657,276.212 294,285.5C 292.066,289.759 289.732,293.759 287,297.5C 275.269,310.731 262.769,323.065 249.5,334.5C 250.389,332.264 251.722,330.264 253.5,328.5C 261.616,322.605 268.116,315.271 273,306.5C 292.669,288.777 299.836,267.111 294.5,241.5C 295.771,238.657 296.604,235.657 297,232.5C 297.333,226.5 297.667,220.5 298,214.5C 299.045,213.627 299.878,212.627 300.5,211.5 Z"/></g>
<g><path style="opacity:1" fill="#926e57" d="M 202.5,214.5 C 203.833,220.167 203.833,225.833 202.5,231.5C 202.588,227.694 201.921,224.028 200.5,220.5C 196.155,217.814 191.488,216.647 186.5,217C 187.056,217.383 187.389,217.883 187.5,218.5C 182.005,216.434 176.338,215.601 170.5,216C 165.375,217.016 161.709,219.849 159.5,224.5C 159.624,225.107 159.957,225.44 160.5,225.5C 159.5,226.833 158.5,228.167 157.5,229.5C 156.732,228.737 156.232,227.737 156,226.5C 151.449,229.995 149.283,234.662 149.5,240.5C 147.989,238.524 147.156,236.191 147,233.5C 146.188,229.311 146.355,225.311 147.5,221.5C 147.338,223.527 147.505,225.527 148,227.5C 150.128,224.37 152.628,221.537 155.5,219C 167.216,210.438 180.216,208.105 194.5,212C 197.548,212.606 200.048,214.106 202,216.5C 202.464,215.906 202.631,215.239 202.5,214.5 Z"/></g>
<g><path style="opacity:1" fill="#c29678" d="M 232.5,214.5 C 232.5,215.5 232.5,216.5 232.5,217.5C 224.146,216.402 215.812,216.402 207.5,217.5C 207.33,216.178 207.663,215.011 208.5,214C 216.649,210.54 224.649,210.706 232.5,214.5 Z"/></g>
<g><path style="opacity:1" fill="#242221" d="M 187.5,218.5 C 192.962,221.798 197.295,226.298 200.5,232C 200.43,232.765 200.097,233.265 199.5,233.5C 198.167,231.5 196.5,229.833 194.5,228.5C 193.521,226.855 192.188,225.521 190.5,224.5C 189.772,227.212 188.939,229.879 188,232.5C 186.89,234.037 185.39,234.703 183.5,234.5C 180.833,234.5 178.167,234.5 175.5,234.5C 171.461,231.967 170.794,228.967 173.5,225.5C 175.948,225.99 177.615,225.157 178.5,223C 177.928,220.926 176.595,219.76 174.5,219.5C 172.585,219.216 170.919,219.549 169.5,220.5C 168.209,220.263 167.209,220.596 166.5,221.5C 164.228,222.441 162.228,223.774 160.5,225.5C 159.957,225.44 159.624,225.107 159.5,224.5C 161.709,219.849 165.375,217.016 170.5,216C 176.338,215.601 182.005,216.434 187.5,218.5 Z"/></g>
<g><path style="opacity:1" fill="#262422" d="M 282.5,229.5 C 282.167,229.5 281.833,229.5 281.5,229.5C 279.208,224.85 275.542,221.85 270.5,220.5C 268.833,220.169 266.833,219.502 264.5,218.5C 263.5,219 262.5,219.5 261.5,220C 267.786,223.428 269.12,228.262 265.5,234.5C 262.5,234.5 259.5,234.5 256.5,234.5C 251.059,233.522 249.059,230.189 250.5,224.5C 254.116,226.444 256.116,225.444 256.5,221.5C 254.297,221.604 252.297,222.27 250.5,223.5C 247.94,225.273 245.607,227.273 243.5,229.5C 242.527,231.139 241.194,232.473 239.5,233.5C 242.777,225.556 248.443,219.89 256.5,216.5C 260.49,215.81 264.49,215.643 268.5,216C 275.73,218.066 280.396,222.566 282.5,229.5 Z"/></g>
<g><path style="opacity:1" fill="#785d47" d="M 270.5,220.5 C 272.623,224.693 272.956,229.027 271.5,233.5C 269.435,233.517 267.435,233.85 265.5,234.5C 269.12,228.262 267.786,223.428 261.5,220C 262.5,219.5 263.5,219 264.5,218.5C 266.833,219.502 268.833,220.169 270.5,220.5 Z"/></g>
<g><path style="opacity:1" fill="#ca9b7a" d="M 125.5,220.5 C 126.5,220.5 127.5,220.5 128.5,220.5C 128.833,221.5 129.5,222.167 130.5,222.5C 131.726,225.003 132.726,227.669 133.5,230.5C 133.485,232.634 132.985,234.634 132,236.5C 130.358,233.069 128.025,230.069 125,227.5C 124.51,226.207 124.343,224.873 124.5,223.5C 124.263,222.209 124.596,221.209 125.5,220.5 Z"/></g>
<g><path style="opacity:1" fill="#dcdbda" d="M 174.5,219.5 C 176.595,219.76 177.928,220.926 178.5,223C 177.615,225.157 175.948,225.99 173.5,225.5C 172.005,223.169 172.338,221.169 174.5,219.5 Z"/></g>
<g><path style="opacity:1" fill="#ad866c" d="M 202.5,231.5 C 202.405,233.786 201.738,235.786 200.5,237.5C 200.5,237.167 200.5,236.833 200.5,236.5C 200.443,235.391 200.11,234.391 199.5,233.5C 200.097,233.265 200.43,232.765 200.5,232C 197.295,226.298 192.962,221.798 187.5,218.5C 187.389,217.883 187.056,217.383 186.5,217C 191.488,216.647 196.155,217.814 200.5,220.5C 201.921,224.028 202.588,227.694 202.5,231.5 Z"/></g>
<g><path style="opacity:1" fill="#a98369" d="M 256.5,216.5 C 248.443,219.89 242.777,225.556 239.5,233.5C 239.5,234.5 239.5,235.5 239.5,236.5C 237.926,234.898 237.259,232.898 237.5,230.5C 238.799,218.856 245.133,214.189 256.5,216.5 Z"/></g>
<g><path style="opacity:1" fill="#d5d3d3" d="M 250.5,224.5 C 250.5,224.167 250.5,223.833 250.5,223.5C 252.297,222.27 254.297,221.604 256.5,221.5C 256.116,225.444 254.116,226.444 250.5,224.5 Z"/></g>
<g><path style="opacity:1" fill="#d4d2d2" d="M 166.5,221.5 C 166.704,224.918 166.704,228.584 166.5,232.5C 163.208,232.353 160.208,231.353 157.5,229.5C 158.5,228.167 159.5,226.833 160.5,225.5C 162.228,223.774 164.228,222.441 166.5,221.5 Z"/></g>
<g><path style="opacity:1" fill="#d0cecc" d="M 270.5,220.5 C 275.542,221.85 279.208,224.85 281.5,229.5C 279.711,230.877 277.711,231.877 275.5,232.5C 274.167,232.833 272.833,233.167 271.5,233.5C 272.956,229.027 272.623,224.693 270.5,220.5 Z"/></g>
<g><path style="opacity:1" fill="#624c34" d="M 174.5,219.5 C 172.338,221.169 172.005,223.169 173.5,225.5C 170.794,228.967 171.461,231.967 175.5,234.5C 174.5,234.5 173.5,234.5 172.5,234.5C 171.432,233.566 170.099,233.232 168.5,233.5C 167.182,229.064 167.515,224.731 169.5,220.5C 170.919,219.549 172.585,219.216 174.5,219.5 Z"/></g>
<g><path style="opacity:1" fill="#8d8885" d="M 166.5,221.5 C 167.209,220.596 168.209,220.263 169.5,220.5C 167.515,224.731 167.182,229.064 168.5,233.5C 167.508,233.672 166.842,233.338 166.5,232.5C 166.704,228.584 166.704,224.918 166.5,221.5 Z"/></g>
<g><path style="opacity:1" fill="#cecbca" d="M 194.5,228.5 C 196.5,229.833 198.167,231.5 199.5,233.5C 200.11,234.391 200.443,235.391 200.5,236.5C 198.236,235.781 195.903,235.448 193.5,235.5C 193.5,234.5 193.5,233.5 193.5,232.5C 193.232,230.901 193.566,229.568 194.5,228.5 Z"/></g>
<g><path style="opacity:1" fill="#d6d5d5" d="M 243.5,229.5 C 245.408,230.486 246.408,232.152 246.5,234.5C 244.343,235.407 242.01,236.073 239.5,236.5C 239.5,235.5 239.5,234.5 239.5,233.5C 241.194,232.473 242.527,231.139 243.5,229.5 Z"/></g>
<g><path style="opacity:1" fill="#65503b" d="M 250.5,223.5 C 250.5,223.833 250.5,224.167 250.5,224.5C 249.059,230.189 251.059,233.522 256.5,234.5C 253.269,235.782 249.936,235.782 246.5,234.5C 246.408,232.152 245.408,230.486 243.5,229.5C 245.607,227.273 247.94,225.273 250.5,223.5 Z"/></g>
<g><path style="opacity:1" fill="#957459" d="M 194.5,228.5 C 193.566,229.568 193.232,230.901 193.5,232.5C 192.596,233.209 192.263,234.209 192.5,235.5C 189.287,235.81 186.287,235.477 183.5,234.5C 185.39,234.703 186.89,234.037 188,232.5C 188.939,229.879 189.772,227.212 190.5,224.5C 192.188,225.521 193.521,226.855 194.5,228.5 Z"/></g>
<g><path style="opacity:1" fill="#c79877" d="M 309.5,220.5 C 310.833,220.5 312.167,220.5 313.5,220.5C 313.286,222.144 313.62,223.644 314.5,225C 313,226.5 311.5,228 310,229.5C 309.212,232.963 307.546,235.963 305,238.5C 304.333,234.5 304.333,230.5 305,226.5C 307.127,224.886 308.627,222.886 309.5,220.5 Z"/></g>
<g><path style="opacity:1" fill="#c8a189" d="M 157.5,229.5 C 160.208,231.353 163.208,232.353 166.5,232.5C 166.842,233.338 167.508,233.672 168.5,233.5C 170.099,233.232 171.432,233.566 172.5,234.5C 171.524,240.056 168.857,244.723 164.5,248.5C 161.031,249.742 157.698,249.408 154.5,247.5C 152.1,245.704 150.433,243.37 149.5,240.5C 149.283,234.662 151.449,229.995 156,226.5C 156.232,227.737 156.732,228.737 157.5,229.5 Z"/></g>
<g><path style="opacity:1" fill="#c59e85" d="M 290.5,241.5 C 289.243,244.427 287.243,246.761 284.5,248.5C 282.801,248.66 281.134,248.494 279.5,248C 276.683,245.362 274.35,242.362 272.5,239C 273.129,236.625 274.129,234.459 275.5,232.5C 277.711,231.877 279.711,230.877 281.5,229.5C 281.833,229.5 282.167,229.5 282.5,229.5C 283.156,228.722 283.989,228.056 285,227.5C 288.394,230.208 290.56,233.708 291.5,238C 290.663,239.011 290.33,240.178 290.5,241.5 Z"/></g>
<g><path style="opacity:1" fill="#d8b49f" d="M 193.5,232.5 C 193.5,233.5 193.5,234.5 193.5,235.5C 195.903,235.448 198.236,235.781 200.5,236.5C 200.5,236.833 200.5,237.167 200.5,237.5C 194.358,251.292 183.692,257.125 168.5,255C 162.761,254.3 158.094,251.8 154.5,247.5C 157.698,249.408 161.031,249.742 164.5,248.5C 168.857,244.723 171.524,240.056 172.5,234.5C 173.5,234.5 174.5,234.5 175.5,234.5C 178.167,234.5 180.833,234.5 183.5,234.5C 186.287,235.477 189.287,235.81 192.5,235.5C 192.263,234.209 192.596,233.209 193.5,232.5 Z"/></g>
<g><path style="opacity:1" fill="#d8b49e" d="M 275.5,232.5 C 274.129,234.459 273.129,236.625 272.5,239C 274.35,242.362 276.683,245.362 279.5,248C 281.134,248.494 282.801,248.66 284.5,248.5C 272.531,257.659 260.197,257.825 247.5,249C 243.763,245.447 241.096,241.281 239.5,236.5C 242.01,236.073 244.343,235.407 246.5,234.5C 249.936,235.782 253.269,235.782 256.5,234.5C 259.5,234.5 262.5,234.5 265.5,234.5C 267.435,233.85 269.435,233.517 271.5,233.5C 272.833,233.167 274.167,232.833 275.5,232.5 Z"/></g>
<g><path style="opacity:1" fill="#bf8f6e" d="M 316.5,247.5 C 316.188,255.096 314.188,262.096 310.5,268.5C 303.954,273.525 301.287,271.859 302.5,263.5C 303.167,263.5 303.5,263.167 303.5,262.5C 304.736,260.389 306.236,258.389 308,256.5C 309.301,250.034 310.967,243.701 313,237.5C 313.689,236.643 314.522,235.977 315.5,235.5C 316.491,239.445 316.824,243.445 316.5,247.5 Z"/></g>
<g><path style="opacity:1" fill="#ad7e5c" d="M 317.5,240.5 C 317.802,243.059 317.468,245.393 316.5,247.5C 316.824,243.445 316.491,239.445 315.5,235.5C 314.522,235.977 313.689,236.643 313,237.5C 310.967,243.701 309.301,250.034 308,256.5C 306.236,258.389 304.736,260.389 303.5,262.5C 303.751,254.162 305.584,246.162 309,238.5C 310.695,235.305 313.195,232.972 316.5,231.5C 317.484,234.428 317.817,237.428 317.5,240.5 Z"/></g>
<g><path style="opacity:1" fill="#c29270" d="M 134.5,263.5 C 134.5,264.167 134.833,264.5 135.5,264.5C 135.756,266.792 135.423,268.959 134.5,271C 131.829,270.571 129.162,269.737 126.5,268.5C 123.456,263.338 121.789,257.672 121.5,251.5C 121.5,246.833 121.5,242.167 121.5,237.5C 122.822,237.33 123.989,237.663 125,238.5C 128.337,246.916 131.504,255.25 134.5,263.5 Z"/></g>
<g><path style="opacity:1" fill="#a67857" d="M 134.5,263.5 C 131.504,255.25 128.337,246.916 125,238.5C 123.989,237.663 122.822,237.33 121.5,237.5C 121.5,242.167 121.5,246.833 121.5,251.5C 120.833,249.833 120.167,248.167 119.5,246.5C 119.782,242.426 120.448,238.426 121.5,234.5C 124.41,233.186 126.91,233.853 129,236.5C 131.639,245.382 133.473,254.382 134.5,263.5 Z"/></g>
<g><path style="opacity:1" fill="#b08160" d="M 214.5,275.5 C 212.958,274.699 211.292,274.366 209.5,274.5C 208.4,273.395 207.733,272.062 207.5,270.5C 203.319,264.189 203.986,258.189 209.5,252.5C 207.419,266.901 213.419,271.734 227.5,267C 229.833,265.667 230.833,263.667 230.5,261C 229.087,257.659 228.087,254.159 227.5,250.5C 230.808,249.974 232.974,251.307 234,254.5C 238.49,262.521 236.99,269.021 229.5,274C 224.599,275.325 219.599,275.825 214.5,275.5 Z"/></g>
<g><path style="opacity:1" fill="#a37658" d="M 232.5,214.5 C 232.94,217.962 232.94,221.629 232.5,225.5C 231.733,224.828 231.066,223.995 230.5,223C 223.777,221.213 217.11,221.213 210.5,223C 210,223.5 209.5,224 209,224.5C 207.916,255.082 192.083,269.416 161.5,267.5C 160.833,266.833 160.167,266.167 159.5,265.5C 156.591,263.644 153.591,261.977 150.5,260.5C 149.164,258.99 147.997,257.323 147,255.5C 146.952,259.539 147.452,263.539 148.5,267.5C 150.575,275.885 153.742,283.885 158,291.5C 166.084,301.733 174.251,311.733 182.5,321.5C 181.761,321.631 181.094,321.464 180.5,321C 171.257,310.765 162.091,300.598 153,290.5C 142.93,273.319 139.763,254.986 143.5,235.5C 145.135,242.775 148.802,248.775 154.5,253.5C 153.427,254.251 153.26,255.251 154,256.5C 155.558,258.359 157.391,259.859 159.5,261C 170.53,263.286 181.197,262.286 191.5,258C 194,255.5 196.5,253 199,250.5C 199.692,249.563 199.525,248.897 198.5,248.5C 205.324,239.353 208.324,229.019 207.5,217.5C 215.812,216.402 224.146,216.402 232.5,217.5C 232.5,216.5 232.5,215.5 232.5,214.5 Z"/></g>
<g><path style="opacity:1" fill="#c69c81" d="M 198.5,248.5 C 199.525,248.897 199.692,249.563 199,250.5C 196.5,253 194,255.5 191.5,258C 181.197,262.286 170.53,263.286 159.5,261C 157.391,259.859 155.558,258.359 154,256.5C 153.26,255.251 153.427,254.251 154.5,253.5C 162.863,258.179 171.863,259.679 181.5,258C 188.28,256.697 193.947,253.53 198.5,248.5 Z"/></g>
<g><path style="opacity:1" fill="#9d7154" d="M 232.5,229.5 C 234.569,238.964 239.235,246.964 246.5,253.5C 246.062,253.435 245.728,253.601 245.5,254C 253.343,262.253 263.01,265.253 274.5,263C 277.833,261.667 281.167,260.333 284.5,259C 287.493,256.541 288.826,253.708 288.5,250.5C 290.196,248.475 291.863,246.475 293.5,244.5C 293.893,252.031 291.226,258.031 285.5,262.5C 275.129,266.953 264.463,267.62 253.5,264.5C 252.167,264.167 250.833,263.833 249.5,263.5C 242.768,257.009 237.268,249.676 233,241.5C 232.501,237.514 232.334,233.514 232.5,229.5 Z"/></g>
<g><path style="opacity:1" fill="#c09579" d="M 288.5,250.5 C 288.826,253.708 287.493,256.541 284.5,259C 281.167,260.333 277.833,261.667 274.5,263C 263.01,265.253 253.343,262.253 245.5,254C 245.728,253.601 246.062,253.435 246.5,253.5C 255.912,258.199 265.912,259.699 276.5,258C 281.374,256.738 285.374,254.238 288.5,250.5 Z"/></g>
<g><path style="opacity:1" fill="#ca9c7c" d="M 232.5,225.5 C 232.5,226.833 232.5,228.167 232.5,229.5C 232.334,233.514 232.501,237.514 233,241.5C 237.268,249.676 242.768,257.009 249.5,263.5C 246.811,261.657 243.978,259.99 241,258.5C 240.676,260.569 239.842,260.902 238.5,259.5C 237.778,263.847 237.112,268.18 236.5,272.5C 233.564,273.115 230.897,274.282 228.5,276C 223.648,276.815 218.981,276.648 214.5,275.5C 219.599,275.825 224.599,275.325 229.5,274C 236.99,269.021 238.49,262.521 234,254.5C 232.974,251.307 230.808,249.974 227.5,250.5C 228.087,254.159 229.087,257.659 230.5,261C 230.833,263.667 229.833,265.667 227.5,267C 213.419,271.734 207.419,266.901 209.5,252.5C 203.986,258.189 203.319,264.189 207.5,270.5C 207.733,272.062 208.4,273.395 209.5,274.5C 203.342,274.925 200.675,272.092 201.5,266C 201.596,262.012 202.096,258.178 203,254.5C 199.448,257.719 195.615,260.552 191.5,263C 190.663,264.011 190.33,265.178 190.5,266.5C 180.844,270.044 171.178,270.377 161.5,267.5C 192.083,269.416 207.916,255.082 209,224.5C 209.5,224 210,223.5 210.5,223C 217.11,221.213 223.777,221.213 230.5,223C 231.066,223.995 231.733,224.828 232.5,225.5 Z"/></g>
<g><path style="opacity:1" fill="#e2b79b" d="M 216.5,254.5 C 220.401,253.857 223.734,254.857 226.5,257.5C 228.187,260.903 227.52,263.736 224.5,266C 216.242,268.718 212.409,265.885 213,257.5C 214.145,256.364 215.312,255.364 216.5,254.5 Z"/></g>
<g><path style="opacity:1" fill="#e1b599" d="M 214.5,222.5 C 219.953,222.365 225.286,223.032 230.5,224.5C 230.953,231.216 230.953,237.882 230.5,244.5C 223.224,245.465 215.891,245.799 208.5,245.5C 209.664,238.538 210.664,231.538 211.5,224.5C 212.739,224.058 213.739,223.391 214.5,222.5 Z"/></g>
<g><path style="opacity:1" fill="#d4a687" d="M 209.5,274.5 C 211.292,274.366 212.958,274.699 214.5,275.5C 218.981,276.648 223.648,276.815 228.5,276C 230.897,274.282 233.564,273.115 236.5,272.5C 237.112,268.18 237.778,263.847 238.5,259.5C 239.842,260.902 240.676,260.569 241,258.5C 243.978,259.99 246.811,261.657 249.5,263.5C 250.833,263.833 252.167,264.167 253.5,264.5C 253.611,265.117 253.944,265.617 254.5,266C 262.712,268.58 271.045,269.08 279.5,267.5C 280.552,267.351 281.552,267.517 282.5,268C 281.152,270.513 279.152,272.347 276.5,273.5C 268.567,271.01 260.567,270.843 252.5,273C 249.924,275.651 248.591,278.818 248.5,282.5C 242.936,283.896 237.269,284.563 231.5,284.5C 232.605,282.287 232.605,280.12 231.5,278C 223.833,277.333 216.167,277.333 208.5,278C 207.24,279.814 207.24,281.647 208.5,283.5C 215.108,284.462 221.774,284.795 228.5,284.5C 219.295,285.792 209.962,285.792 200.5,284.5C 195.468,284.561 191.968,282.228 190,277.5C 188.59,276.213 187.09,275.046 185.5,274C 179.181,273.127 173.014,273.627 167,275.5C 162.877,274.554 159.711,272.221 157.5,268.5C 158.689,267.571 160.022,267.238 161.5,267.5C 171.178,270.377 180.844,270.044 190.5,266.5C 190.33,265.178 190.663,264.011 191.5,263C 195.615,260.552 199.448,257.719 203,254.5C 202.096,258.178 201.596,262.012 201.5,266C 200.675,272.092 203.342,274.925 209.5,274.5 Z"/></g>
<g><path style="opacity:1" fill="#bb8c6b" d="M 150.5,260.5 C 149.207,262.364 149.207,264.364 150.5,266.5C 153.584,275.156 157.418,283.489 162,291.5C 170.06,298.561 177.06,306.561 183,315.5C 196.263,330.474 212.763,335.641 232.5,331C 237.921,329.973 242.921,327.973 247.5,325C 262.324,310.842 274.49,294.675 284,276.5C 284.891,272.394 286.058,268.394 287.5,264.5C 284.351,264.415 281.684,265.415 279.5,267.5C 271.045,269.08 262.712,268.58 254.5,266C 253.944,265.617 253.611,265.117 253.5,264.5C 264.463,267.62 275.129,266.953 285.5,262.5C 288.263,262.256 290.429,260.923 292,258.5C 291.869,265.744 290.369,272.744 287.5,279.5C 284.919,284.331 282.085,288.998 279,293.5C 269.315,304.628 259.982,315.961 251,327.5C 248.433,330.731 245.266,333.231 241.5,335C 227.403,337.311 213.403,336.977 199.5,334C 191.333,327.827 184.499,320.327 179,311.5C 176.244,308.073 172.91,305.407 169,303.5C 166.578,299.656 163.911,295.99 161,292.5C 156.255,284.343 152.088,276.01 148.5,267.5C 147.452,263.539 146.952,259.539 147,255.5C 147.997,257.323 149.164,258.99 150.5,260.5 Z"/></g>
<g><path style="opacity:1" fill="#9d6f4f" d="M 294.5,241.5 C 299.836,267.111 292.669,288.777 273,306.5C 268.116,315.271 261.616,322.605 253.5,328.5C 251.722,330.264 250.389,332.264 249.5,334.5C 245.148,336.344 240.814,338.178 236.5,340C 225.5,340.667 214.5,340.667 203.5,340C 198.964,338.892 194.964,337.059 191.5,334.5C 195.301,335.201 198.968,336.368 202.5,338C 213.5,338.667 224.5,338.667 235.5,338C 239.467,337.517 243.134,336.184 246.5,334C 257.007,323.159 267.174,311.992 277,300.5C 280.605,293.9 284.605,287.566 289,281.5C 291.144,274.598 293.144,267.598 295,260.5C 295.667,256.167 295.667,251.833 295,247.5C 294.768,246.263 294.268,245.263 293.5,244.5C 293.557,243.391 293.89,242.391 294.5,241.5 Z"/></g>
<g><path style="opacity:0.998" fill="#1c1c1c" d="M 130.5,303.5 C 134.825,305.179 139.158,306.513 143.5,307.5C 142.448,307.351 141.448,307.517 140.5,308C 142.116,308.615 143.449,309.615 144.5,311C 143.833,311.333 143.167,311.667 142.5,312C 143.114,313.13 143.114,314.463 142.5,316C 144.204,322.393 145.204,328.893 145.5,335.5C 144.556,344.823 144.389,354.156 145,363.5C 148.402,366.022 151.402,365.355 154,361.5C 155.823,354.475 156.989,347.475 157.5,340.5C 158.963,359.772 153.629,376.772 141.5,391.5C 137.181,394.248 133.348,397.581 130,401.5C 131.955,407.234 133.455,413.234 134.5,419.5C 127.167,419.5 119.833,419.5 112.5,419.5C 109.757,413.015 106.757,406.681 103.5,400.5C 100.94,395.723 98.107,391.056 95,386.5C 94.2947,377.702 95.6281,377.702 99,386.5C 99.4828,385.552 99.6495,384.552 99.5,383.5C 105.593,383.861 111.593,383.361 117.5,382C 123.731,379.231 125.398,374.898 122.5,369C 123.811,365.056 124.811,361.056 125.5,357C 123.387,348.373 124.22,339.873 128,331.5C 130.279,329.711 132.279,327.711 134,325.5C 135.051,318.088 133.551,311.255 129.5,305C 130.056,304.617 130.389,304.117 130.5,303.5 Z"/></g>
<g><path style="opacity:1" fill="#161515" d="M 153.5,304.5 C 164.441,316.477 176.441,327.31 189.5,337C 190.914,338.993 191.914,341.16 192.5,343.5C 191.542,343.047 190.708,342.381 190,341.5C 186.638,340.594 183.471,340.594 180.5,341.5C 180.262,339.596 179.262,338.262 177.5,337.5C 176.688,330.989 173.688,328.989 168.5,331.5C 164.617,324.778 159.45,319.111 153,314.5C 152.536,313.906 152.369,313.239 152.5,312.5C 152.631,311.624 152.298,310.957 151.5,310.5C 148.718,309.484 146.051,308.484 143.5,307.5C 145.924,307.808 148.257,307.474 150.5,306.5C 151.005,305.081 152.005,304.415 153.5,304.5 Z"/></g>
<g><path style="opacity:0.989" fill="#121212" d="M 277.5,313.5 C 281.915,313.861 285.915,315.194 289.5,317.5C 288.5,317.5 287.5,317.5 286.5,317.5C 284.983,322.358 282.983,327.025 280.5,331.5C 269.605,334.276 260.272,339.609 252.5,347.5C 251.167,348.833 249.833,350.167 248.5,351.5C 251.547,345.402 254.047,339.069 256,332.5C 263.038,325.958 270.205,319.625 277.5,313.5 Z"/></g>
<g><path style="opacity:1" fill="#252525" d="M 143.5,307.5 C 146.051,308.484 148.718,309.484 151.5,310.5C 152.298,310.957 152.631,311.624 152.5,312.5C 150.429,310.9 148.095,310.4 145.5,311C 152.905,319.368 156.905,329.201 157.5,340.5C 156.989,347.475 155.823,354.475 154,361.5C 151.402,365.355 148.402,366.022 145,363.5C 144.389,354.156 144.556,344.823 145.5,335.5C 145.204,328.893 144.204,322.393 142.5,316C 143.114,314.463 143.114,313.13 142.5,312C 143.167,311.667 143.833,311.333 144.5,311C 143.449,309.615 142.116,308.615 140.5,308C 141.448,307.517 142.448,307.351 143.5,307.5 Z"/></g>
<g><path style="opacity:1" fill="#3e3e3e" d="M 152.5,312.5 C 152.369,313.239 152.536,313.906 153,314.5C 159.45,319.111 164.617,324.778 168.5,331.5C 168.5,331.833 168.5,332.167 168.5,332.5C 167.518,331.859 166.518,331.193 165.5,330.5C 165.167,331.5 164.833,332.5 164.5,333.5C 165.333,352.853 161.5,371.186 153,388.5C 152.333,393.5 152.333,398.5 153,403.5C 155.785,408.735 158.285,414.068 160.5,419.5C 155.5,419.5 150.5,419.5 145.5,419.5C 144.413,411.978 142.58,404.645 140,397.5C 139.25,396.874 138.416,396.374 137.5,396C 139.041,394.629 140.375,393.129 141.5,391.5C 153.629,376.772 158.963,359.772 157.5,340.5C 156.905,329.201 152.905,319.368 145.5,311C 148.095,310.4 150.429,310.9 152.5,312.5 Z"/></g>
<g><path style="opacity:1" fill="#464646" d="M 168.5,332.5 C 170.518,343.387 174.018,353.721 179,363.5C 184.284,367.488 189.284,371.821 194,376.5C 194.399,376.272 194.565,375.938 194.5,375.5C 195.156,376.622 195.489,377.955 195.5,379.5C 194.766,392.859 193.766,406.192 192.5,419.5C 190.833,419.5 189.167,419.5 187.5,419.5C 190.315,398.363 185.482,379.363 173,362.5C 172.049,358.973 170.716,355.64 169,352.5C 164.092,364.732 160.259,377.399 157.5,390.5C 158.055,394.054 159.221,397.387 161,400.5C 166.182,406.206 170.348,412.539 173.5,419.5C 169.167,419.5 164.833,419.5 160.5,419.5C 158.285,414.068 155.785,408.735 153,403.5C 152.333,398.5 152.333,393.5 153,388.5C 161.5,371.186 165.333,352.853 164.5,333.5C 164.833,332.5 165.167,331.5 165.5,330.5C 166.518,331.193 167.518,331.859 168.5,332.5 Z"/></g>
<g><path style="opacity:1" fill="#ad7f5e" d="M 293.5,244.5 C 294.268,245.263 294.768,246.263 295,247.5C 295.667,251.833 295.667,256.167 295,260.5C 293.144,267.598 291.144,274.598 289,281.5C 284.605,287.566 280.605,293.9 277,300.5C 267.174,311.992 257.007,323.159 246.5,334C 243.134,336.184 239.467,337.517 235.5,338C 224.5,338.667 213.5,338.667 202.5,338C 198.968,336.368 195.301,335.201 191.5,334.5C 189.967,330.129 187.134,326.795 183,324.5C 182.517,323.552 182.351,322.552 182.5,321.5C 174.251,311.733 166.084,301.733 158,291.5C 153.742,283.885 150.575,275.885 148.5,267.5C 152.088,276.01 156.255,284.343 161,292.5C 163.911,295.99 166.578,299.656 169,303.5C 172.91,305.407 176.244,308.073 179,311.5C 184.499,320.327 191.333,327.827 199.5,334C 213.403,336.977 227.403,337.311 241.5,335C 245.266,333.231 248.433,330.731 251,327.5C 259.982,315.961 269.315,304.628 279,293.5C 282.085,288.998 284.919,284.331 287.5,279.5C 290.369,272.744 291.869,265.744 292,258.5C 290.429,260.923 288.263,262.256 285.5,262.5C 291.226,258.031 293.893,252.031 293.5,244.5 Z"/></g>
<g><path style="opacity:1" fill="#7b4f30" d="M 191.5,334.5 C 194.964,337.059 198.964,338.892 203.5,340C 214.5,340.667 225.5,340.667 236.5,340C 240.814,338.178 245.148,336.344 249.5,334.5C 262.769,323.065 275.269,310.731 287,297.5C 289.732,293.759 292.066,289.759 294,285.5C 296.657,276.212 299.324,266.879 302,257.5C 302.495,259.473 302.662,261.473 302.5,263.5C 301.287,271.859 303.954,273.525 310.5,268.5C 310.084,270.752 308.751,272.252 306.5,273C 304.257,272.681 302.09,272.848 300,273.5C 296.04,288.927 288.54,302.261 277.5,313.5C 270.205,319.625 263.038,325.958 256,332.5C 254.047,339.069 251.547,345.402 248.5,351.5C 247.167,353.5 245.833,355.5 244.5,357.5C 244.631,356.624 244.298,355.957 243.5,355.5C 240.93,356.634 238.264,357.468 235.5,358C 223.948,358.418 212.615,358.585 201.5,358.5C 200.079,355.991 198.412,353.657 196.5,351.5C 195.674,348.515 194.341,345.849 192.5,343.5C 191.914,341.16 190.914,338.993 189.5,337C 176.441,327.31 164.441,316.477 153.5,304.5C 146.873,294.915 141.54,284.582 137.5,273.5C 135.269,273.113 132.936,272.947 130.5,273C 128.616,271.951 127.282,270.451 126.5,268.5C 129.162,269.737 131.829,270.571 134.5,271C 135.423,268.959 135.756,266.792 135.5,264.5C 135.337,262.143 135.503,259.81 136,257.5C 139.227,273.201 145.893,287.201 156,299.5C 167.109,312.111 178.943,323.778 191.5,334.5 Z"/></g>
<g><path style="opacity:1" fill="#c59675" d="M 150.5,260.5 C 153.591,261.977 156.591,263.644 159.5,265.5C 156.951,265.613 154.618,264.946 152.5,263.5C 152.167,263.667 151.833,263.833 151.5,264C 156.073,272.451 160.573,280.951 165,289.5C 168.923,295.539 173.423,301.039 178.5,306C 181.797,308.295 184.797,310.962 187.5,314C 189.112,314.72 190.612,314.554 192,313.5C 193.189,308.885 191.856,305.218 188,302.5C 186.195,298.331 185.028,293.998 184.5,289.5C 185.974,290.436 186.974,291.77 187.5,293.5C 187.343,294.873 187.51,296.207 188,297.5C 194.731,304.394 200.897,311.727 206.5,319.5C 215.195,324.765 223.862,324.765 232.5,319.5C 239.558,312.446 246.225,305.112 252.5,297.5C 251.435,300.997 250.435,304.497 249.5,308C 250.155,309.487 251.155,310.653 252.5,311.5C 259.396,308.448 263.896,303.448 266,296.5C 269.907,292.28 271.74,287.28 271.5,281.5C 267.392,283.058 263.059,283.724 258.5,283.5C 258.737,284.791 258.404,285.791 257.5,286.5C 257.5,285.833 257.5,285.167 257.5,284.5C 257.759,280.932 259.759,279.599 263.5,280.5C 263.773,278.549 263.107,277.049 261.5,276C 259.153,275.666 256.819,275.833 254.5,276.5C 254.5,278.167 254.5,279.833 254.5,281.5C 252.5,281.833 250.5,282.167 248.5,282.5C 248.591,278.818 249.924,275.651 252.5,273C 260.567,270.843 268.567,271.01 276.5,273.5C 279.152,272.347 281.152,270.513 282.5,268C 281.552,267.517 280.552,267.351 279.5,267.5C 281.684,265.415 284.351,264.415 287.5,264.5C 286.058,268.394 284.891,272.394 284,276.5C 274.49,294.675 262.324,310.842 247.5,325C 242.921,327.973 237.921,329.973 232.5,331C 212.763,335.641 196.263,330.474 183,315.5C 177.06,306.561 170.06,298.561 162,291.5C 157.418,283.489 153.584,275.156 150.5,266.5C 149.207,264.364 149.207,262.364 150.5,260.5 Z"/></g>
<g><path style="opacity:1" fill="#bc8d6c" d="M 257.5,284.5 C 257.5,285.167 257.5,285.833 257.5,286.5C 256.406,290.459 254.739,294.125 252.5,297.5C 246.225,305.112 239.558,312.446 232.5,319.5C 223.862,324.765 215.195,324.765 206.5,319.5C 200.897,311.727 194.731,304.394 188,297.5C 187.51,296.207 187.343,294.873 187.5,293.5C 190.235,298.072 193.902,301.905 198.5,305C 212.478,312.286 226.478,312.286 240.5,305C 243.33,300.835 247.163,297.001 252,293.5C 252.483,292.552 252.649,291.552 252.5,290.5C 254.177,288.46 255.844,286.46 257.5,284.5 Z"/></g>
<g><path style="opacity:1" fill="#d4a788" d="M 252.5,297.5 C 254.739,294.125 256.406,290.459 257.5,286.5C 258.404,285.791 258.737,284.791 258.5,283.5C 263.059,283.724 267.392,283.058 271.5,281.5C 271.74,287.28 269.907,292.28 266,296.5C 263.896,303.448 259.396,308.448 252.5,311.5C 251.155,310.653 250.155,309.487 249.5,308C 250.435,304.497 251.435,300.997 252.5,297.5 Z"/></g>
<g><path style="opacity:1" fill="#b6826a" d="M 190.5,283.5 C 189.833,283.5 189.167,283.5 188.5,283.5C 184.833,281.833 183.833,282.833 185.5,286.5C 186.543,289.056 188.21,291.223 190.5,293C 211.892,307.759 232.558,306.926 252.5,290.5C 252.649,291.552 252.483,292.552 252,293.5C 247.163,297.001 243.33,300.835 240.5,305C 226.478,312.286 212.478,312.286 198.5,305C 193.902,301.905 190.235,298.072 187.5,293.5C 186.974,291.77 185.974,290.436 184.5,289.5C 183.815,287.586 183.315,285.586 183,283.5C 181.301,282.594 179.467,282.261 177.5,282.5C 176.753,276.933 179.087,275.1 184.5,277C 185.893,278.171 186.727,279.671 187,281.5C 188.302,282.085 189.469,282.751 190.5,283.5 Z"/></g>
<g><path style="opacity:1" fill="#aa705b" d="M 257.5,284.5 C 255.844,286.46 254.177,288.46 252.5,290.5C 232.558,306.926 211.892,307.759 190.5,293C 188.21,291.223 186.543,289.056 185.5,286.5C 186.5,287.167 187.5,287.833 188.5,288.5C 191.275,291.605 194.608,293.938 198.5,295.5C 199.29,296.401 200.29,297.068 201.5,297.5C 203.65,298.67 205.984,299.67 208.5,300.5C 216.03,299.18 223.53,299.18 231,300.5C 233.294,299.578 235.461,298.578 237.5,297.5C 239.153,297.34 240.486,296.674 241.5,295.5C 245.542,294.149 248.875,291.815 251.5,288.5C 253.451,287.284 254.951,285.618 256,283.5C 256.692,282.563 256.525,281.897 255.5,281.5C 255.167,281.5 254.833,281.5 254.5,281.5C 254.5,279.833 254.5,278.167 254.5,276.5C 256.819,275.833 259.153,275.666 261.5,276C 263.107,277.049 263.773,278.549 263.5,280.5C 259.759,279.599 257.759,280.932 257.5,284.5 Z"/></g>
<g><path style="opacity:1" fill="#844640" d="M 201.5,297.5 C 213.5,297.5 225.5,297.5 237.5,297.5C 235.461,298.578 233.294,299.578 231,300.5C 223.53,299.18 216.03,299.18 208.5,300.5C 205.984,299.67 203.65,298.67 201.5,297.5 Z"/></g>
<g><path style="opacity:1" fill="#3c1c18" d="M 241.5,295.5 C 240.486,296.674 239.153,297.34 237.5,297.5C 225.5,297.5 213.5,297.5 201.5,297.5C 200.29,297.068 199.29,296.401 198.5,295.5C 203.595,295.571 208.595,294.905 213.5,293.5C 218.315,294.629 223.149,294.629 228,293.5C 232.371,294.863 236.871,295.529 241.5,295.5 Z"/></g>
<g><path style="opacity:1" fill="#25110d" d="M 188.5,288.5 C 193.035,290.007 197.701,291.007 202.5,291.5C 208.483,291.999 214.483,292.333 220.5,292.5C 226.74,292.667 232.74,292 238.5,290.5C 243.005,290.729 247.339,290.063 251.5,288.5C 248.875,291.815 245.542,294.149 241.5,295.5C 236.871,295.529 232.371,294.863 228,293.5C 223.149,294.629 218.315,294.629 213.5,293.5C 208.595,294.905 203.595,295.571 198.5,295.5C 194.608,293.938 191.275,291.605 188.5,288.5 Z"/></g>
<g><path style="opacity:1" fill="#777472" d="M 207.5,289.5 C 213.833,289.5 220.167,289.5 226.5,289.5C 230.702,289.183 234.702,289.517 238.5,290.5C 232.74,292 226.74,292.667 220.5,292.5C 214.483,292.333 208.483,291.999 202.5,291.5C 202.082,290.778 201.416,290.278 200.5,290C 202.81,289.503 205.143,289.337 207.5,289.5 Z"/></g>
<g><path style="opacity:1" fill="#605c59" d="M 255.5,281.5 C 256.525,281.897 256.692,282.563 256,283.5C 254.951,285.618 253.451,287.284 251.5,288.5C 247.339,290.063 243.005,290.729 238.5,290.5C 234.702,289.517 230.702,289.183 226.5,289.5C 232.76,288.729 239.094,287.562 245.5,286C 249.229,285.156 252.563,283.656 255.5,281.5 Z"/></g>
<g><path style="opacity:1" fill="#625e5c" d="M 188.5,283.5 C 188.611,284.117 188.944,284.617 189.5,285C 195.701,286.217 201.701,287.717 207.5,289.5C 205.143,289.337 202.81,289.503 200.5,290C 201.416,290.278 202.082,290.778 202.5,291.5C 197.701,291.007 193.035,290.007 188.5,288.5C 187.5,287.833 186.5,287.167 185.5,286.5C 183.833,282.833 184.833,281.833 188.5,283.5 Z"/></g>
<g><path style="opacity:1" fill="#8c573f" d="M 254.5,281.5 C 254.833,281.5 255.167,281.5 255.5,281.5C 252.563,283.656 249.229,285.156 245.5,286C 239.094,287.562 232.76,288.729 226.5,289.5C 220.167,289.5 213.833,289.5 207.5,289.5C 201.701,287.717 195.701,286.217 189.5,285C 188.944,284.617 188.611,284.117 188.5,283.5C 189.167,283.5 189.833,283.5 190.5,283.5C 193.764,284.324 197.098,284.658 200.5,284.5C 209.962,285.792 219.295,285.792 228.5,284.5C 229.5,284.5 230.5,284.5 231.5,284.5C 237.269,284.563 242.936,283.896 248.5,282.5C 250.5,282.167 252.5,281.833 254.5,281.5 Z"/></g>
<g><path style="opacity:1" fill="#e5ba9f" d="M 231.5,284.5 C 230.5,284.5 229.5,284.5 228.5,284.5C 221.774,284.795 215.108,284.462 208.5,283.5C 207.24,281.647 207.24,279.814 208.5,278C 216.167,277.333 223.833,277.333 231.5,278C 232.605,280.12 232.605,282.287 231.5,284.5 Z"/></g>
<g><path style="opacity:1" fill="#cd9f7f" d="M 159.5,265.5 C 160.167,266.167 160.833,266.833 161.5,267.5C 160.022,267.238 158.689,267.571 157.5,268.5C 159.711,272.221 162.877,274.554 167,275.5C 173.014,273.627 179.181,273.127 185.5,274C 187.09,275.046 188.59,276.213 190,277.5C 191.968,282.228 195.468,284.561 200.5,284.5C 197.098,284.658 193.764,284.324 190.5,283.5C 189.469,282.751 188.302,282.085 187,281.5C 186.727,279.671 185.893,278.171 184.5,277C 179.087,275.1 176.753,276.933 177.5,282.5C 179.467,282.261 181.301,282.594 183,283.5C 183.315,285.586 183.815,287.586 184.5,289.5C 185.028,293.998 186.195,298.331 188,302.5C 191.856,305.218 193.189,308.885 192,313.5C 190.612,314.554 189.112,314.72 187.5,314C 184.797,310.962 181.797,308.295 178.5,306C 173.423,301.039 168.923,295.539 165,289.5C 160.573,280.951 156.073,272.451 151.5,264C 151.833,263.833 152.167,263.667 152.5,263.5C 154.618,264.946 156.951,265.613 159.5,265.5 Z"/></g>
<g><path style="opacity:1" fill="#845838" d="M 207.5,270.5 C 206.532,267.555 206.366,264.555 207,261.5C 209.286,267.773 213.786,270.44 220.5,269.5C 227.242,269.934 231.742,266.934 234,260.5C 235.395,266.1 233.562,270.267 228.5,273C 220.966,275.546 213.966,274.713 207.5,270.5 Z"/></g>
<g><path style="opacity:1" fill="#2c2c2c" d="M 289.5,317.5 C 291.153,317.66 292.486,318.326 293.5,319.5C 297.208,325.991 297.208,332.658 293.5,339.5C 283.816,350.199 272.482,358.533 259.5,364.5C 271.903,355.601 283.237,345.434 293.5,334C 293.975,332.237 294.642,330.57 295.5,329C 294.07,327.56 292.403,327.226 290.5,328C 282.722,333.61 275.722,340.11 269.5,347.5C 269.167,347.333 268.833,347.167 268.5,347C 272.504,344.529 274.504,341.029 274.5,336.5C 266.336,338.582 259.003,342.249 252.5,347.5C 260.272,339.609 269.605,334.276 280.5,331.5C 282.983,327.025 284.983,322.358 286.5,317.5C 287.5,317.5 288.5,317.5 289.5,317.5 Z"/></g>
<g><path style="opacity:1" fill="#424242" d="M 177.5,337.5 C 179.262,338.262 180.262,339.596 180.5,341.5C 183.842,349.325 187.676,356.992 192,364.5C 192.876,366.635 194.376,367.969 196.5,368.5C 195.4,369.605 194.733,370.938 194.5,372.5C 191.586,371.094 189.086,369.094 187,366.5C 180.641,356.616 175.475,346.116 171.5,335C 171.833,334.5 172.167,334 172.5,333.5C 174.186,334.857 175.852,336.19 177.5,337.5 Z"/></g>
<g><path style="opacity:1" fill="#3d3d3d" d="M 259.5,364.5 C 258.833,364.5 258.167,364.5 257.5,364.5C 265.058,359.113 272.225,353.113 279,346.5C 279.667,345.833 279.667,345.167 279,344.5C 274.729,347.051 270.229,349.218 265.5,351C 256.519,358.157 247.185,364.824 237.5,371C 236.62,372.356 236.286,373.856 236.5,375.5C 237.833,375.5 239.167,375.5 240.5,375.5C 238.737,376.822 237.07,378.322 235.5,380C 233.231,380.758 231.064,380.591 229,379.5C 228.517,380.448 228.351,381.448 228.5,382.5C 227.402,381.399 227.235,380.066 228,378.5C 229.376,377.295 230.542,375.962 231.5,374.5C 236.612,370.931 240.278,366.264 242.5,360.5C 243.401,359.71 244.068,358.71 244.5,357.5C 245.833,355.5 247.167,353.5 248.5,351.5C 249.833,350.167 251.167,348.833 252.5,347.5C 259.003,342.249 266.336,338.582 274.5,336.5C 274.504,341.029 272.504,344.529 268.5,347C 268.833,347.167 269.167,347.333 269.5,347.5C 275.722,340.11 282.722,333.61 290.5,328C 292.403,327.226 294.07,327.56 295.5,329C 294.642,330.57 293.975,332.237 293.5,334C 283.237,345.434 271.903,355.601 259.5,364.5 Z"/></g>
<g><path style="opacity:1" fill="#2c2c2c" d="M 192.5,343.5 C 194.341,345.849 195.674,348.515 196.5,351.5C 195.233,350.913 194.233,350.913 193.5,351.5C 196.968,360.44 201.468,368.773 207,376.5C 207.985,374.825 208.819,373.158 209.5,371.5C 210.026,373.23 211.026,374.564 212.5,375.5C 212.5,376.167 212.5,376.833 212.5,377.5C 212.5,379.833 212.5,382.167 212.5,384.5C 211.833,385.167 211.167,385.833 210.5,386.5C 206.91,385.372 203.577,383.705 200.5,381.5C 199.548,379.955 199.215,378.288 199.5,376.5C 199.664,373.813 199.497,371.146 199,368.5C 198.023,367.226 197.189,367.226 196.5,368.5C 194.376,367.969 192.876,366.635 192,364.5C 187.676,356.992 183.842,349.325 180.5,341.5C 183.471,340.594 186.638,340.594 190,341.5C 190.708,342.381 191.542,343.047 192.5,343.5 Z"/></g>
<g><path style="opacity:1" fill="#4f4d4d" d="M 196.5,351.5 C 198.412,353.657 200.079,355.991 201.5,358.5C 201.932,359.71 202.599,360.71 203.5,361.5C 205.102,365.095 207.102,368.429 209.5,371.5C 208.819,373.158 207.985,374.825 207,376.5C 201.468,368.773 196.968,360.44 193.5,351.5C 194.233,350.913 195.233,350.913 196.5,351.5 Z"/></g>
<g><path style="opacity:1" fill="#4d4d4d" d="M 187.5,419.5 C 182.833,419.5 178.167,419.5 173.5,419.5C 170.348,412.539 166.182,406.206 161,400.5C 159.221,397.387 158.055,394.054 157.5,390.5C 160.259,377.399 164.092,364.732 169,352.5C 170.716,355.64 172.049,358.973 173,362.5C 185.482,379.363 190.315,398.363 187.5,419.5 Z"/></g>
<g><path style="opacity:1" fill="#3e3e3e" d="M 291.5,363.5 C 297.331,360.187 302.497,355.854 307,350.5C 315.792,352.961 321.625,358.461 324.5,367C 324.129,369.856 323.629,372.689 323,375.5C 318.911,378.216 316.577,381.883 316,386.5C 318.333,382.833 321.333,379.833 325,377.5C 326.952,374.033 328.452,370.366 329.5,366.5C 336.899,383.671 343.565,401.337 349.5,419.5C 347.833,419.5 346.167,419.5 344.5,419.5C 338.696,406.058 333.029,392.558 327.5,379C 325.369,379.398 323.369,380.398 321.5,382C 318.376,386.051 315.043,389.884 311.5,393.5C 311.12,392.867 310.787,392.2 310.5,391.5C 304.935,399.947 297.268,405.447 287.5,408C 283.497,411.155 280.497,414.988 278.5,419.5C 270.5,419.5 262.5,419.5 254.5,419.5C 254.5,408.5 254.5,397.5 254.5,386.5C 255.351,380.66 256.018,374.66 256.5,368.5C 257.151,369.091 257.818,369.757 258.5,370.5C 262.722,367.56 267.055,364.894 271.5,362.5C 278.757,359.754 285.424,355.92 291.5,351C 295.297,346.552 298.964,342.052 302.5,337.5C 305.257,339.088 306.09,341.421 305,344.5C 302.466,351.034 297.966,355.534 291.5,358C 283.905,363.139 275.905,367.806 267.5,372C 268.5,372.667 269.5,372.667 270.5,372C 277.221,368.482 284.221,365.648 291.5,363.5 Z"/></g>
<g><path style="opacity:1" fill="#2c2c2c" d="M 177.5,337.5 C 175.852,336.19 174.186,334.857 172.5,333.5C 172.167,334 171.833,334.5 171.5,335C 175.475,346.116 180.641,356.616 187,366.5C 189.086,369.094 191.586,371.094 194.5,372.5C 194.5,373.5 194.5,374.5 194.5,375.5C 194.565,375.938 194.399,376.272 194,376.5C 189.284,371.821 184.284,367.488 179,363.5C 174.018,353.721 170.518,343.387 168.5,332.5C 168.5,332.167 168.5,331.833 168.5,331.5C 173.688,328.989 176.688,330.989 177.5,337.5 Z"/></g>
<g><path style="opacity:1" fill="#494949" d="M 257.5,364.5 C 256.833,365.5 256.167,366.5 255.5,367.5C 254.041,367.433 252.708,367.766 251.5,368.5C 247.656,370.587 243.989,372.92 240.5,375.5C 239.167,375.5 237.833,375.5 236.5,375.5C 236.286,373.856 236.62,372.356 237.5,371C 247.185,364.824 256.519,358.157 265.5,351C 270.229,349.218 274.729,347.051 279,344.5C 279.667,345.167 279.667,345.833 279,346.5C 272.225,353.113 265.058,359.113 257.5,364.5 Z"/></g>
<g><path style="opacity:1" fill="#484848" d="M 291.5,363.5 C 293.655,363.628 295.655,363.128 297.5,362C 299.569,360 301.735,358.167 304,356.5C 311.676,359.01 316.842,364.01 319.5,371.5C 316.143,381.701 309.809,389.535 300.5,395C 291.869,394.723 283.536,396.057 275.5,399C 269.635,404.63 264.135,410.464 259,416.5C 252.443,392.441 260.943,376.607 284.5,369C 287.336,367.609 289.669,365.776 291.5,363.5 Z"/></g>
<g><path style="opacity:1" fill="#a87e62" d="M 244.5,357.5 C 244.068,358.71 243.401,359.71 242.5,360.5C 242.265,359.903 241.765,359.57 241,359.5C 238.865,360.127 236.698,360.627 234.5,361C 224.172,361.5 213.839,361.666 203.5,361.5C 202.599,360.71 201.932,359.71 201.5,358.5C 212.615,358.585 223.948,358.418 235.5,358C 238.264,357.468 240.93,356.634 243.5,355.5C 244.298,355.957 244.631,356.624 244.5,357.5 Z"/></g>
<g><path style="opacity:1" fill="#e4bba1" d="M 242.5,360.5 C 240.278,366.264 236.612,370.931 231.5,374.5C 225.203,375.32 218.869,375.653 212.5,375.5C 211.026,374.564 210.026,373.23 209.5,371.5C 207.102,368.429 205.102,365.095 203.5,361.5C 213.839,361.666 224.172,361.5 234.5,361C 236.698,360.627 238.865,360.127 241,359.5C 241.765,359.57 242.265,359.903 242.5,360.5 Z"/></g>
<g><path style="opacity:1" fill="#252525" d="M 293.5,319.5 C 297.178,322.176 299.344,325.843 300,330.5C 302.333,332.167 304.667,333.833 307,335.5C 307.939,338.121 308.772,340.788 309.5,343.5C 319.446,347.717 327.279,354.384 333,363.5C 342.044,381.47 349.211,400.136 354.5,419.5C 352.833,419.5 351.167,419.5 349.5,419.5C 343.565,401.337 336.899,383.671 329.5,366.5C 328.691,364.708 328.191,362.708 328,360.5C 326.667,358.5 325.333,356.5 324,354.5C 318.652,351.144 313.319,347.811 308,344.5C 307.667,344.833 307.333,345.167 307,345.5C 308.657,339.611 306.491,335.611 300.5,333.5C 292.479,344.854 282.812,354.521 271.5,362.5C 267.055,364.894 262.722,367.56 258.5,370.5C 257.818,369.757 257.151,369.091 256.5,368.5C 256.5,367.833 256.167,367.5 255.5,367.5C 256.167,366.5 256.833,365.5 257.5,364.5C 258.167,364.5 258.833,364.5 259.5,364.5C 272.482,358.533 283.816,350.199 293.5,339.5C 297.208,332.658 297.208,325.991 293.5,319.5 Z"/></g>
<g><path style="opacity:1" fill="#b1b1b1" d="M 255.5,367.5 C 256.167,367.5 256.5,367.833 256.5,368.5C 256.018,374.66 255.351,380.66 254.5,386.5C 254.666,381.156 254.499,375.823 254,370.5C 253,371.167 252,371.833 251,372.5C 250.814,375.036 250.314,377.369 249.5,379.5C 247.664,375.351 248.331,371.685 251.5,368.5C 252.708,367.766 254.041,367.433 255.5,367.5 Z"/></g>
<g><path style="opacity:1" fill="#2d2d2d" d="M 329.5,366.5 C 328.452,370.366 326.952,374.033 325,377.5C 321.333,379.833 318.333,382.833 316,386.5C 316.577,381.883 318.911,378.216 323,375.5C 323.629,372.689 324.129,369.856 324.5,367C 321.625,358.461 315.792,352.961 307,350.5C 302.497,355.854 297.331,360.187 291.5,363.5C 284.221,365.648 277.221,368.482 270.5,372C 269.5,372.667 268.5,372.667 267.5,372C 275.905,367.806 283.905,363.139 291.5,358C 297.966,355.534 302.466,351.034 305,344.5C 306.09,341.421 305.257,339.088 302.5,337.5C 298.964,342.052 295.297,346.552 291.5,351C 285.424,355.92 278.757,359.754 271.5,362.5C 282.812,354.521 292.479,344.854 300.5,333.5C 306.491,335.611 308.657,339.611 307,345.5C 307.333,345.167 307.667,344.833 308,344.5C 313.319,347.811 318.652,351.144 324,354.5C 325.333,356.5 326.667,358.5 328,360.5C 328.191,362.708 328.691,364.708 329.5,366.5 Z"/></g>
<g><path style="opacity:1" fill="#212121" d="M 251.5,368.5 C 248.331,371.685 247.664,375.351 249.5,379.5C 249.5,380.167 249.5,380.833 249.5,381.5C 243.102,382.967 236.768,384.634 230.5,386.5C 230.068,385.29 229.401,384.29 228.5,383.5C 228.5,383.167 228.5,382.833 228.5,382.5C 228.351,381.448 228.517,380.448 229,379.5C 231.064,380.591 233.231,380.758 235.5,380C 237.07,378.322 238.737,376.822 240.5,375.5C 243.989,372.92 247.656,370.587 251.5,368.5 Z"/></g>
<g><path style="opacity:1" fill="#d1d0d0" d="M 231.5,374.5 C 230.542,375.962 229.376,377.295 228,378.5C 227.235,380.066 227.402,381.399 228.5,382.5C 228.5,382.833 228.5,383.167 228.5,383.5C 225.183,384.221 221.849,384.388 218.5,384C 216.266,381.937 214.266,379.771 212.5,377.5C 212.5,376.833 212.5,376.167 212.5,375.5C 218.869,375.653 225.203,375.32 231.5,374.5 Z"/></g>
<g><path style="opacity:1" fill="#464646" d="M 344.5,419.5 C 327.5,419.5 310.5,419.5 293.5,419.5C 298.997,410.514 304.997,401.847 311.5,393.5C 315.043,389.884 318.376,386.051 321.5,382C 323.369,380.398 325.369,379.398 327.5,379C 333.029,392.558 338.696,406.058 344.5,419.5 Z"/></g>
<g><path style="opacity:1" fill="#bababa" d="M 212.5,377.5 C 214.266,379.771 216.266,381.937 218.5,384C 221.849,384.388 225.183,384.221 228.5,383.5C 227.083,388.416 225.083,393.083 222.5,397.5C 223.118,399.831 222.284,401.831 220,403.5C 218.412,401.579 216.912,399.579 215.5,397.5C 216.875,395.837 216.542,394.503 214.5,393.5C 214.833,392.833 215.167,392.167 215.5,391.5C 213.918,389.423 212.918,387.09 212.5,384.5C 212.5,382.167 212.5,379.833 212.5,377.5 Z"/></g>
<g><path style="opacity:1" fill="#444444" d="M 199.5,376.5 C 199.215,378.288 199.548,379.955 200.5,381.5C 203.577,383.705 206.91,385.372 210.5,386.5C 213.024,395.313 214.357,404.313 214.5,413.5C 213.5,413.5 212.5,413.5 211.5,413.5C 211.5,415.5 211.5,417.5 211.5,419.5C 206.833,419.5 202.167,419.5 197.5,419.5C 198.117,405.025 198.784,390.692 199.5,376.5 Z"/></g>
<g><path style="opacity:1" fill="#414141" d="M 249.5,381.5 C 248.651,394.147 248.318,406.813 248.5,419.5C 241.5,419.5 234.5,419.5 227.5,419.5C 227.5,417.5 227.5,415.5 227.5,413.5C 226.5,413.5 225.5,413.5 224.5,413.5C 225.258,404.226 227.258,395.226 230.5,386.5C 236.768,384.634 243.102,382.967 249.5,381.5 Z"/></g>
<g><path style="opacity:1" fill="#dcdcdc" d="M 254.5,386.5 C 254.5,397.5 254.5,408.5 254.5,419.5C 252.5,419.5 250.5,419.5 248.5,419.5C 248.318,406.813 248.651,394.147 249.5,381.5C 249.5,380.833 249.5,380.167 249.5,379.5C 250.314,377.369 250.814,375.036 251,372.5C 252,371.833 253,371.167 254,370.5C 254.499,375.823 254.666,381.156 254.5,386.5 Z"/></g>
<g><path style="opacity:1" fill="#303030" d="M 141.5,391.5 C 140.375,393.129 139.041,394.629 137.5,396C 138.416,396.374 139.25,396.874 140,397.5C 142.58,404.645 144.413,411.978 145.5,419.5C 141.833,419.5 138.167,419.5 134.5,419.5C 133.455,413.234 131.955,407.234 130,401.5C 133.348,397.581 137.181,394.248 141.5,391.5 Z"/></g>
<g><path style="opacity:1" fill="#2f2f2f" d="M 311.5,393.5 C 304.997,401.847 298.997,410.514 293.5,419.5C 288.5,419.5 283.5,419.5 278.5,419.5C 280.497,414.988 283.497,411.155 287.5,408C 297.268,405.447 304.935,399.947 310.5,391.5C 310.787,392.2 311.12,392.867 311.5,393.5 Z"/></g>
<g><path style="opacity:1" fill="#d9d9d9" d="M 199.5,376.5 C 198.784,390.692 198.117,405.025 197.5,419.5C 195.833,419.5 194.167,419.5 192.5,419.5C 193.766,406.192 194.766,392.859 195.5,379.5C 195.489,377.955 195.156,376.622 194.5,375.5C 194.5,374.5 194.5,373.5 194.5,372.5C 194.733,370.938 195.4,369.605 196.5,368.5C 197.189,367.226 198.023,367.226 199,368.5C 199.497,371.146 199.664,373.813 199.5,376.5 Z"/></g>
<g><path style="opacity:1" fill="#989898" d="M 228.5,383.5 C 229.401,384.29 230.068,385.29 230.5,386.5C 227.258,395.226 225.258,404.226 224.5,413.5C 225.5,413.5 226.5,413.5 227.5,413.5C 227.5,415.5 227.5,417.5 227.5,419.5C 222.167,419.5 216.833,419.5 211.5,419.5C 211.5,417.5 211.5,415.5 211.5,413.5C 212.5,413.5 213.5,413.5 214.5,413.5C 214.357,404.313 213.024,395.313 210.5,386.5C 211.167,385.833 211.833,385.167 212.5,384.5C 212.918,387.09 213.918,389.423 215.5,391.5C 215.167,392.167 214.833,392.833 214.5,393.5C 216.542,394.503 216.875,395.837 215.5,397.5C 216.912,399.579 218.412,401.579 220,403.5C 222.284,401.831 223.118,399.831 222.5,397.5C 225.083,393.083 227.083,388.416 228.5,383.5 Z"/></g>
</svg>
